<svg width="40" height="40" viewBox="0 0 40 40" fill="none" xmlns="http://www.w3.org/2000/svg">
<path d="M13 15V22H25.3913L28 19.4545L25.3913 15H13Z" fill="#ED6D4E"/>
<path fill-rule="evenodd" clip-rule="evenodd" d="M7 19.9688L20 7L33 19.9688V35C33 36.1046 32.1046 37 31 37H9C7.89543 37 7 36.1046 7 35V19.9688ZM25.68 19.3999C25.6571 19.3713 25.6754 19.3488 25.6754 19.3488C26.5434 18.2881 25.408 17 24.4428 17C23.8002 17 23.2318 17.397 22.8847 18.0061H20.546C20.3609 18.0061 20.24 18.008 20.24 18.008C20.24 18.008 20.0937 18.0081 20 18.008L19.9248 18.0079C19.7763 18.0078 19.7247 18.0077 19.4542 18.0061H17.1154C16.7683 17.3972 16.1998 17 15.5574 17C14.5921 17 13.4567 18.2881 14.3246 19.3488C14.3246 19.3488 14.3429 19.3711 14.32 19.3999C13.4566 20.4876 14.5002 21.8 15.5572 21.8C16.2021 21.8 16.7725 21.3997 17.1192 20.7868H22.8806C23.2274 21.3997 23.7975 21.8 24.4427 21.8C25.4998 21.7999 26.5434 20.4876 25.68 19.3999ZM20 24C17.7909 24 16 25.7909 16 28V35H24V28C24 25.7909 22.2091 24 20 24Z" fill="#FFCF6F"/>
<path fill-rule="evenodd" clip-rule="evenodd" d="M21.4221 3.63872C21.4054 3.62084 21.3884 3.60319 21.371 3.58579C20.59 2.80474 19.3236 2.80474 18.5426 3.58579L3.41416 18.7142C2.63311 19.4953 2.63311 20.7616 3.41416 21.5426C4.1952 22.3237 5.46153 22.3237 6.24258 21.5426L19.9637 7.82147L33.5828 21.4406C34.3639 22.2216 35.6302 22.2216 36.4113 21.4406C37.1923 20.6595 37.1923 19.3932 36.4113 18.6121L21.5803 3.78116C21.5295 3.73038 21.4767 3.6829 21.4221 3.63872Z" fill="url(#paint0_linear_656_3410)"/>
<defs>
<linearGradient id="paint0_linear_656_3410" x1="6.29862" y1="27.2094" x2="-1.78583" y2="7.4859" gradientUnits="userSpaceOnUse">
<stop offset="0.298343" stop-color="#4552CB"/>
<stop offset="1" stop-color="#4596EA"/>
</linearGradient>
</defs>
</svg>
