<svg width="25" height="24" viewBox="0 0 25 24" fill="none" xmlns="http://www.w3.org/2000/svg">
<path d="M21.1861 9.66011C21.0055 9.06011 20.6445 8.58014 20.1028 8.30015C19.4208 7.94015 18.6184 7.98013 18.0568 8.08013L16.8732 3.96011C16.793 3.68011 16.5723 3.46015 16.2915 3.40015C16.0106 3.34015 15.7097 3.42018 15.5091 3.64018C12.6406 6.84018 11.457 7.62014 8.28759 9.00014L5.80016 9.72016C3.61363 10.3602 2.34986 12.6602 2.97172 14.8402C3.27262 15.9002 3.97471 16.8002 4.95764 17.3402C5.5795 17.6802 6.26154 17.8601 6.94357 17.8601C7.26453 17.8601 7.60556 17.8202 7.92651 17.7402L8.18729 18.6801C8.32771 19.1801 8.60854 19.6201 8.96962 19.9801L9.39088 20.3801C9.55136 20.5201 9.75196 20.6001 9.95256 20.6001C10.1732 20.6001 10.3738 20.5201 10.5343 20.3601C10.8352 20.0401 10.8352 19.5402 10.4942 19.2202L10.0729 18.8202C9.91243 18.6602 9.79208 18.4602 9.7319 18.2402L9.47111 17.3001L10.6346 16.9601C13.9645 16.4601 15.469 16.5001 19.5412 17.6601C19.6214 17.6801 19.6816 17.7001 19.7618 17.7001C19.9624 17.7001 20.1831 17.6201 20.3235 17.4601C20.5241 17.2601 20.6044 16.9601 20.5241 16.6801L19.3406 12.5801C19.8621 12.3801 20.5642 12.0201 20.9654 11.3601C21.2864 10.8601 21.3666 10.2801 21.1861 9.66011ZM5.76004 15.9601C5.15824 15.6401 4.73699 15.0802 4.53639 14.4402C4.15525 13.0802 4.93758 11.6801 6.26153 11.2801L8.06692 10.7601L8.88939 13.6601L9.45106 15.6601L7.64567 16.1801C7.02381 16.3601 6.34177 16.2801 5.76004 15.9601ZM13.9244 15.0801C13.0217 15.0801 12.119 15.1601 11.0559 15.3001L9.89238 11.2001L9.61154 10.2001C12.1792 9.04014 13.5433 8.14013 15.7699 5.78013L18.6184 15.7601C16.6927 15.2801 15.3286 15.0801 13.9244 15.0801ZM19.6214 10.5402C19.5011 10.7602 19.2002 10.9202 18.9193 11.0402L18.5181 9.64018C18.819 9.60018 19.16 9.60016 19.3807 9.72016C19.481 9.78016 19.5813 9.86013 19.6615 10.0801C19.7217 10.3201 19.6615 10.4402 19.6214 10.5402ZM14.5463 9.22016C14.7669 9.54016 14.7067 9.98014 14.3858 10.2001C13.6436 10.7201 12.8011 11.1801 12.7609 11.2001C12.6606 11.2601 12.5403 11.2801 12.44 11.2801C12.1792 11.2801 11.9385 11.1401 11.8181 10.9001C11.6376 10.5601 11.778 10.1401 12.119 9.96011C12.119 9.96011 12.9214 9.54013 13.5633 9.08013C13.8642 8.82013 14.3056 8.90016 14.5463 9.22016Z" fill="#4552CB"/>
</svg>
