<svg width="32" height="32" viewBox="0 0 32 32" fill="none" xmlns="http://www.w3.org/2000/svg">
<path d="M26.1401 16C26.1401 16.5867 25.6601 17.0667 25.0734 17.0667H9.50008L14.3267 21.92C14.7534 22.3467 14.7534 23.0133 14.3267 23.44C14.1134 23.6533 13.8467 23.76 13.5801 23.76C13.3134 23.76 13.0201 23.6533 12.8334 23.44L6.19342 16.7733C5.76675 16.3467 5.76675 15.68 6.19342 15.28L12.8334 8.61333C13.2601 8.18667 13.9267 8.18667 14.3534 8.61333C14.7801 9.04 14.7801 9.70667 14.3534 10.1333L9.50008 14.9333H25.0734C25.6601 14.9333 26.1401 15.4133 26.1401 16Z" fill="white"/>
</svg>
