<svg width="40" height="40" viewBox="0 0 40 40" fill="none" xmlns="http://www.w3.org/2000/svg">
<path fill-rule="evenodd" clip-rule="evenodd" d="M38.0553 19H1.94468C1.40821 19 0.93881 19.3284 0.569992 19.7977C0.234702 20.3138 0 20.9707 0 21.7214V22.6129V29.7449V35H2.77703V29.7449H37.223V35H40V22.6129V21.7214C40 20.9707 39.7988 20.3138 39.43 19.7977C39.0612 19.3284 38.5918 19 38.0553 19Z" fill="#FD90AA"/>
<path d="M21.861 15.0119C21.358 15.0119 20.9557 15.3586 20.9557 15.8315V18.9836H19.0445V15.8315C19.0445 15.3586 18.6422 15.0119 18.1393 15.0119H8.68411C8.2147 15.0119 7.81235 15.3586 7.81235 15.8315V18.9836H5.76709V10.9456C5.76709 10.6935 5.86768 10.4413 6.06885 10.2837C6.23649 10.0946 6.50473 10 6.77296 10H33.2273C33.4955 10 33.7637 10.0946 33.9314 10.2837C34.1326 10.4413 34.2331 10.6935 34.2331 10.9456V18.9836H32.1879V15.8315C32.1879 15.3586 31.7855 15.0119 31.3161 15.0119H21.861Z" fill="#FFC4CD"/>
</svg>
