<svg width="24" height="24" viewBox="0 0 24 24" fill="none" xmlns="http://www.w3.org/2000/svg">
<path d="M18.6372 16.9289C19.1209 17.4131 19.1209 18.1662 18.6372 18.6503C18.3954 18.8924 18.0998 19 17.7774 19C17.4549 19 17.1593 18.8924 16.9175 18.6503L12 13.7282L7.08252 18.6503C6.84068 18.8924 6.54511 19 6.22265 19C5.90019 19 5.60462 18.8924 5.36278 18.6503C4.87909 18.1662 4.87909 17.4131 5.36278 16.9289L10.2802 12.0067L5.36278 7.08454C4.87909 6.60039 4.87909 5.84726 5.36278 5.36311C5.84646 4.87896 6.59884 4.87896 7.08252 5.36311L12 10.2853L16.9175 5.36311C17.4012 4.87896 18.1535 4.87896 18.6372 5.36311C19.1209 5.84726 19.1209 6.60039 18.6372 7.08454L13.7197 12.0067L18.6372 16.9289Z" fill="#4552CB"/>
</svg>
