<svg width="40" height="40" viewBox="0 0 40 40" fill="none" xmlns="http://www.w3.org/2000/svg">
<path d="M38.24 4H18.2218C17.8038 4 17.4618 4.34201 17.4618 4.75999V6.59907H27.144C28.4013 6.59907 29.424 7.6218 29.424 8.87906V20.2867H30.1537L35.1773 25.3102C35.3217 25.4546 35.5193 25.5383 35.7168 25.5383C35.8156 25.5383 35.9144 25.5154 36.0056 25.4774C36.2944 25.3634 36.4768 25.0822 36.4768 24.7783V20.2867H38.24C38.658 20.2867 39 19.9523 39 19.5267V4.75999C39 4.34201 38.658 4 38.24 4Z" fill="url(#paint0_linear_656_3962)"/>
<path d="M27.1438 8.11914H1.75999C1.34201 8.11914 1 8.46115 1 8.87913V27.613C1 28.031 1.34201 28.373 1.75999 28.373H4.19959V34.263C4.19959 34.567 4.38198 34.8482 4.66318 34.9621C4.76198 35.0001 4.86078 35.023 4.95959 35.023C5.15719 35.023 5.34719 34.947 5.49159 34.8026L11.9211 28.373H27.1438C27.5618 28.373 27.9038 28.031 27.9038 27.613V8.87913C27.9038 8.46115 27.5618 8.11914 27.1438 8.11914ZM20.0987 19.3139L14.9839 24.421C14.8395 24.573 14.6419 24.6414 14.4519 24.6414C14.2543 24.6414 14.0567 24.573 13.9123 24.421L8.80516 19.3139C7.97674 18.4855 7.52076 17.3911 7.52076 16.2207C7.52076 15.0503 7.97674 13.9483 8.80516 13.1199C10.3404 11.5923 12.7419 11.4403 14.4519 12.6715C16.1619 11.4403 18.5635 11.5999 20.0911 13.1275C20.9195 13.9559 21.3754 15.0503 21.3754 16.2207C21.3831 17.3911 20.9271 18.4855 20.0987 19.3139Z" fill="#FFC4CD"/>
<defs>
<linearGradient id="paint0_linear_656_3962" x1="19.6493" y1="31.2594" x2="7.28514" y2="14.3726" gradientUnits="userSpaceOnUse">
<stop offset="0.298343" stop-color="#4552CB"/>
<stop offset="1" stop-color="#4596EA"/>
</linearGradient>
</defs>
</svg>
