<svg width="10" height="10" viewBox="0 0 10 10" fill="none" xmlns="http://www.w3.org/2000/svg">
<path fill-rule="evenodd" clip-rule="evenodd" d="M10 5C10 7.76142 7.76142 10 5 10C2.23858 10 0 7.76142 0 5C0 2.23858 2.23858 0 5 0C7.76142 0 10 2.23858 10 5ZM6.83333 3.77168L5.65606 4.94895L6.83333 6.12623C7.02928 6.32217 7.03119 6.63795 6.83457 6.83457C6.63931 7.02983 6.32377 7.03088 6.12623 6.83333L4.94895 5.65606L3.77168 6.83333C3.57573 7.02928 3.25996 7.03119 3.06333 6.83457C2.86807 6.63931 2.86702 6.32377 3.06457 6.12623L4.24184 4.94895L3.06457 3.77168C2.86862 3.57573 2.86671 3.25996 3.06333 3.06333C3.2586 2.86807 3.57413 2.86702 3.77168 3.06457L4.94895 4.24184L6.12623 3.06457C6.32217 2.86862 6.63795 2.86671 6.83457 3.06333C7.02983 3.2586 7.03088 3.57413 6.83333 3.77168Z" fill="#BBC3CE"/>
</svg>
