<svg width="40" height="40" viewBox="0 0 40 40" fill="none" xmlns="http://www.w3.org/2000/svg">
<path fill-rule="evenodd" clip-rule="evenodd" d="M21.2444 5.02947L21.2119 5.03816C20.76 4.99707 20.267 4.95599 19.8151 4.95599C14.0638 4.99707 9.62703 8.89978 8.18919 10.3376L8.14811 10.3787C6.75135 11.7755 5.80649 13.5419 5.35459 15.3906L5.31351 15.3084C2.60216 17.2803 1 20.4025 1 23.689C1 29.276 5.56 33.836 11.147 33.836L19.0346 33.8771C20.5278 33.8718 20.6387 33.8718 22.28 33.8718C23.9213 33.8718 25.5254 33.8771 25.5254 33.8771H28.8941C29.1816 35.3971 30.5373 36.5473 32.1395 36.5473C33.947 36.5473 35.4259 35.0684 35.4259 33.2609C35.4259 31.4533 33.947 29.9744 32.1395 29.9744C31.8108 29.9744 31.5232 30.2619 31.5232 30.5906C31.5232 30.9192 31.8108 31.2068 32.1395 31.2068C33.2897 31.2068 34.1935 32.1106 34.1935 33.2609C34.1935 34.4111 33.2897 35.3149 32.1395 35.3149C31.2357 35.3149 30.4551 34.6987 30.2086 33.8771H32.1395C32.4681 33.8771 32.7557 33.5895 32.7557 33.2609C32.7557 32.9322 32.4681 32.6446 32.1395 32.6446H25.5665C25.5665 32.6446 23.9624 32.6474 22.3211 32.6474C21.4758 32.6474 21.0255 32.6467 20.5892 32.646H20.589H20.5885H20.5877H20.5873C20.1771 32.6453 19.7788 32.6446 19.0757 32.6446L11.1881 32.6036C6.25838 32.6036 2.27351 28.5776 2.27351 23.689C2.27351 21.183 3.34162 18.8003 5.14919 17.116C5.10811 17.4036 5.10811 17.6911 5.10811 18.0198C5.10811 24.0176 9.99676 28.9063 15.9946 28.9063C19.6508 28.9063 23.1838 26.8933 25.1968 23.689L27.6205 26.1127C30.0443 28.5365 33.9881 28.5365 36.4119 26.1127L37.1924 25.3322C38.3838 24.1409 39 22.5798 39 20.9365C38.9589 19.2933 38.3427 17.6911 37.1514 16.5409L32.4601 11.8496L27.8266 7.69658C25.0383 5.37081 22.0182 5.06862 21.2444 5.02947ZM30.4796 15.3815C29.9054 14.8068 29.1285 14.5025 28.3178 14.5025C27.5071 14.5025 26.7303 14.8068 26.156 15.3815C25.5818 15.9562 25.2778 16.7338 25.2778 17.5452C25.2778 18.3566 25.5818 19.1342 26.156 19.7089L29.5676 23.1235C30.1756 23.732 30.9525 24.0025 31.7294 24.0025C32.5062 24.0025 33.2831 23.6982 33.8911 23.1235C35.0734 21.9402 35.0734 20.0132 33.8911 18.8299L30.4796 15.3815Z" fill="#FD90AA"/>
<path d="M10.542 22.9039C7.67089 20.0318 7.67089 15.3434 10.542 12.4713C13.4131 9.55693 18.0998 9.55693 21.0131 12.4291C22.4065 13.8229 23.1665 15.6813 23.1665 17.6665C23.1665 19.6516 22.4065 21.5101 21.0131 22.9039C19.6198 24.2977 17.762 25.058 15.7776 25.058C13.7931 25.058 11.9353 24.2977 10.542 22.9039Z" fill="#FFCF6F"/>
</svg>
