<svg width="375" height="376" viewBox="0 0 375 376" fill="none" xmlns="http://www.w3.org/2000/svg">
<g clip-path="url(#clip0_529_11562)">
<path opacity="0.1" d="M-630 182.205C-479.3 181.605 -479.1 235.905 -328.4 235.405C-177.7 234.805 -177.9 180.605 -27.2 180.005C123.5 179.405 123.7 233.705 274.4 233.205" stroke="#4552CB" stroke-width="180" stroke-miterlimit="10" stroke-linecap="round"/>
<path d="M252.849 228.418C252.849 228.418 275.149 248.918 294.849 241.118C299.649 239.218 306.149 236.618 311.049 231.618C303.049 232.218 300.649 230.518 300.649 230.518C300.649 230.518 307.049 230.218 312.649 225.418C318.949 220.118 323.449 210.418 325.049 206.018C323.349 206.818 320.449 206.118 320.449 206.118C320.449 206.118 327.549 187.018 314.149 173.818C313.649 177.718 311.449 179.318 311.449 179.318C311.449 179.318 310.149 175.818 303.149 171.018C291.249 162.918 282.349 167.718 282.349 167.718C282.349 167.718 303.549 177.818 301.649 202.218C300.949 210.618 282.249 226.818 257.649 217.918" fill="white"/>
<path d="M248.449 225.818C248.449 225.818 270.749 244.518 290.449 236.718C295.249 234.818 297.749 233.118 298.749 231.618C290.749 232.218 288.349 230.518 288.349 230.518C288.349 230.518 295.549 231.318 308.249 222.818C313.549 219.318 316.449 214.018 317.949 209.518C316.249 210.318 313.349 209.618 313.349 209.618C313.349 209.618 323.249 195.118 314.049 180.818C313.549 184.718 311.349 186.318 311.349 186.318C311.349 186.318 305.649 173.118 298.649 168.318C286.749 160.218 277.849 165.018 277.849 165.018C277.849 165.018 299.049 175.118 297.149 199.518C296.449 207.918 277.749 224.118 253.149 215.218" fill="#F1A852"/>
<path d="M99.2489 160.218L110.549 145.318L118.949 152.918L117.449 169.118L99.2489 160.218Z" fill="#F1A852"/>
<path d="M122.249 175.318C122.249 175.318 121.549 187.018 118.949 188.618C116.349 190.218 99.9489 181.918 99.9489 181.918L79.2489 168.218L102.849 160.118L115.249 166.218L122.249 175.318Z" fill="#FBF5F5"/>
<path d="M87.9489 120.918C87.9489 120.918 83.6489 111.918 85.2489 104.218C86.9489 96.5182 90.9489 90.4182 94.9489 87.2182C97.7489 85.0182 104.249 80.9182 105.949 82.5182C107.649 84.1182 107.249 91.0182 108.249 95.5182C108.949 98.6182 115.949 110.818 119.949 112.818C123.949 114.818 113.249 132.818 113.249 132.818L87.9489 120.918Z" fill="#ED6D4E"/>
<path d="M115.249 150.318V166.318C115.249 166.318 138.649 207.518 151.549 214.618C167.249 223.318 186.249 226.318 198.249 228.718C206.249 238.418 217.549 255.918 224.949 256.318C228.249 256.518 241.549 257.018 245.849 257.218C246.749 257.218 247.449 257.818 247.749 258.618L255.849 279.718C256.049 280.318 256.549 280.818 257.049 281.218L263.449 285.318C264.549 286.018 265.949 285.618 266.549 284.418L269.449 278.118C269.849 277.218 269.749 276.118 269.149 275.318L250.049 249.018C249.549 248.318 249.349 247.418 249.549 246.518L258.749 201.118L286.549 204.318C287.849 204.518 289.149 203.918 289.949 202.818L294.949 195.918C295.449 195.218 295.349 194.218 294.649 193.618L288.949 189.218C288.149 188.618 287.049 188.318 286.049 188.518L269.849 191.718C267.549 192.118 265.249 191.018 264.149 189.018L255.249 172.218C255.249 172.218 250.249 167.718 243.449 169.418C236.649 171.118 219.649 180.218 219.649 180.218C219.649 180.218 184.249 160.718 173.649 152.418C169.249 149.018 160.949 141.618 158.149 136.818C154.349 130.318 148.649 108.118 148.649 108.118L148.849 94.1182L139.049 76.6182C139.049 76.6182 132.849 73.3182 130.849 74.4182C130.149 74.8182 123.349 76.9182 122.349 80.6182C121.349 84.3182 118.349 110.818 118.349 110.818L114.849 121.018L113.049 129.518L69.5489 110.718L59.0489 105.718C58.4489 105.418 57.6489 105.518 57.0489 105.818L51.7489 109.418C50.9489 110.018 50.7489 111.118 51.3489 111.918L56.6489 118.718L107.249 145.918L115.249 150.318Z" fill="white"/>
<path d="M99.7489 170.618C100.649 169.018 103.149 165.318 104.049 164.018C104.249 163.718 104.249 163.418 104.149 163.118L99.6489 153.318C99.4489 153.018 99.1489 152.818 98.7489 152.918L79.8489 157.618C79.4489 157.718 79.2489 158.018 79.2489 158.418V168.218L98.8489 171.018C99.2489 171.118 99.5489 170.918 99.7489 170.618Z" fill="white"/>
<path d="M133.249 75.0182C133.249 75.0182 131.449 74.2182 133.249 72.2182C135.049 70.2182 137.849 71.0182 138.449 72.2182C140.349 75.7182 140.249 78.1182 140.249 78.1182C140.249 78.1182 135.249 76.5182 133.249 75.0182Z" fill="#382F2D"/>
<path d="M140.349 102.518C140.349 99.1182 136.449 89.3182 132.549 82.7182C131.349 80.7182 128.149 76.4182 128.149 76.4182" stroke="#DDDDDD" stroke-width="2" stroke-miterlimit="10" stroke-linecap="round" stroke-linejoin="round"/>
<path d="M159.249 116.418C159.249 116.418 182.149 107.818 186.749 97.3182C191.149 87.3182 195.349 91.3182 195.349 91.3182C195.349 91.3182 203.849 107.818 196.849 121.018C189.849 134.218 166.949 134.218 161.149 128.318C155.549 122.418 159.249 116.418 159.249 116.418Z" fill="#ED6D4E"/>
<path d="M147.549 91.3182C147.549 91.3182 144.849 106.518 145.349 109.018C145.849 111.518 150.549 122.818 151.149 124.518C151.849 126.218 157.349 135.618 158.049 136.418C159.849 133.518 161.149 131.018 162.349 128.518C164.349 124.318 161.149 118.518 159.849 115.718C158.549 113.018 156.349 103.418 156.149 101.918C155.949 100.418 155.049 99.3182 152.149 97.6182C149.449 95.9182 147.549 91.3182 147.549 91.3182Z" fill="#F1A852"/>
<path d="M152.649 103.118C152.649 103.118 156.949 108.018 157.549 110.118C158.049 112.118 158.549 114.518 157.549 114.918C156.549 115.318 155.549 111.518 155.349 110.518C155.149 109.518 152.649 103.118 152.649 103.118Z" fill="#382F2D"/>
<path d="M115.049 121.618C113.549 124.518 113.049 127.918 113.549 131.218C114.549 136.718 116.049 145.018 116.649 147.018C117.649 150.018 124.749 158.718 140.249 162.018C155.649 165.318 175.249 164.918 181.849 158.018C175.149 154.618 158.849 137.618 158.849 137.618C158.849 137.618 133.149 135.218 120.349 128.818C115.849 126.518 115.249 121.218 115.249 121.218L115.049 121.618Z" fill="#F1A852"/>
<path d="M201.549 178.618L181.949 158.018L220.049 180.318L201.549 178.618Z" fill="#ED6D4E"/>
<path d="M220.049 180.318L227.849 182.618C227.849 182.618 231.849 179.118 233.349 178.118C235.949 176.418 243.549 172.718 243.649 171.118C243.749 169.518 244.249 169.418 243.849 169.518C237.349 170.918 220.049 180.318 220.049 180.318Z" fill="#F1A852"/>
<path d="M208.649 228.318C209.649 228.318 210.449 228.818 210.849 229.718C212.149 233.018 215.349 240.918 216.749 242.818C218.549 245.218 227.749 256.318 227.749 256.318C227.749 256.318 222.649 257.518 217.249 251.718C211.349 246.318 198.249 228.618 198.249 228.618L208.649 228.318Z" fill="#F1A852"/>
<path d="M148.149 212.118L178.049 213.118C178.849 213.118 179.549 213.418 180.149 213.918L197.549 228.618C197.549 228.618 193.849 228.618 174.449 223.618C151.949 217.618 148.149 212.118 148.149 212.118Z" fill="#ED6D4E"/>
<g filter="url(#filter0_d_529_11562)">
<rect x="173" y="17" width="184" height="49" rx="18" fill="white"/>
</g>
<path d="M200.029 28L203.179 37.6738H213.372L205.126 43.6525L208.276 53.3262L200.029 47.3475L191.783 53.3262L194.933 43.6525L186.687 37.6738H196.88L200.029 28Z" fill="#FFCF6F"/>
<path d="M232.765 28L235.915 37.6738H246.108L237.861 43.6525L241.011 53.3262L232.765 47.3475L224.518 53.3262L227.668 43.6525L219.422 37.6738H229.615L232.765 28Z" fill="#FFCF6F"/>
<path d="M265.5 28L268.65 37.6738H278.843L270.596 43.6525L273.746 53.3262L265.5 47.3475L257.254 53.3262L260.404 43.6525L252.157 37.6738H262.35L265.5 28Z" fill="#FFCF6F"/>
<path d="M298.235 28L301.385 37.6738H311.578L303.332 43.6525L306.482 53.3262L298.235 47.3475L289.989 53.3262L293.139 43.6525L284.893 37.6738H295.086L298.235 28Z" fill="#FFCF6F"/>
<path d="M330.971 28L334.12 37.6738H344.313L336.067 43.6525L339.217 53.3262L330.971 47.3475L322.724 53.3262L325.874 43.6525L317.628 37.6738H327.821L330.971 28Z" fill="#FFCF6F"/>
</g>
<defs>
<filter id="filter0_d_529_11562" x="171" y="15" width="194" height="59" filterUnits="userSpaceOnUse" color-interpolation-filters="sRGB">
<feFlood flood-opacity="0" result="BackgroundImageFix"/>
<feColorMatrix in="SourceAlpha" type="matrix" values="0 0 0 0 0 0 0 0 0 0 0 0 0 0 0 0 0 0 127 0" result="hardAlpha"/>
<feOffset dx="3" dy="3"/>
<feGaussianBlur stdDeviation="2.5"/>
<feColorMatrix type="matrix" values="0 0 0 0 0.153198 0 0 0 0 0.112906 0 0 0 0 0.294965 0 0 0 0.03 0"/>
<feBlend mode="normal" in2="BackgroundImageFix" result="effect1_dropShadow_529_11562"/>
<feBlend mode="normal" in="SourceGraphic" in2="effect1_dropShadow_529_11562" result="shape"/>
</filter>
<clipPath id="clip0_529_11562">
<rect width="375.7" height="375.7" fill="white"/>
</clipPath>
</defs>
</svg>
