<svg width="24" height="24" viewBox="0 0 24 24" fill="none" xmlns="http://www.w3.org/2000/svg">
<path d="M20.4892 5.0607L19.9328 4.50424C19.6024 4.17387 19.1677 4 18.7156 4C18.2461 4 17.8288 4.17387 17.4984 4.50424L6.50907 15.511C6.43952 15.5805 6.38735 15.6501 6.35258 15.7545L5.04846 19.0408C4.94413 19.3016 5.01368 19.5972 5.20496 19.7885C5.34406 19.9276 5.51794 19.9972 5.69183 19.9972C5.77877 19.9972 5.86571 19.9798 5.95265 19.945L9.25641 18.6583C9.34335 18.6235 9.43029 18.5713 9.49985 18.5018L20.5066 7.49505C21.1673 6.8343 21.1673 5.73884 20.4892 5.0607ZM7.56975 16.4673L8.54349 17.4411L6.92639 18.0671L7.56975 16.4673ZM19.4981 6.52129L9.89977 16.1196L8.89126 15.1111L18.4896 5.4954C18.5765 5.40846 18.6808 5.39106 18.733 5.39106C18.7852 5.39106 18.8895 5.40846 18.9764 5.4954L19.5328 6.05182C19.6372 6.17354 19.6372 6.38219 19.4981 6.52129Z" fill="#4552CB"/>
</svg>
