<svg width="24" height="24" viewBox="0 0 24 24" fill="none" xmlns="http://www.w3.org/2000/svg">
<path d="M19.7213 4.43979L18.2889 2.97981C18.1695 2.85981 18.0302 2.7998 17.8711 2.7998C17.7119 2.7998 17.5527 2.85981 17.4532 2.97981L9.11712 11.4798C9.05743 11.5398 9.01762 11.5998 8.97783 11.6798L8.04276 14.0598C7.96318 14.2798 8.00296 14.5398 8.18202 14.6998C8.30139 14.8198 8.44065 14.8798 8.59982 14.8798C8.6794 14.8798 8.7391 14.8598 8.81869 14.8398L11.1663 13.8998C11.2459 13.8598 11.3056 13.8198 11.3653 13.7598L19.7014 5.25981C19.9601 5.03981 19.9601 4.65979 19.7213 4.43979ZM10.6292 12.8398L9.67417 13.2198L10.0522 12.2398L17.8711 4.25981L18.4679 4.85981L10.6292 12.8398ZM16.7171 12.1198V20.1998C16.7171 20.6398 16.3192 20.9998 15.8815 20.9998H4.58097C4.14327 20.9998 3.78516 20.6398 3.78516 20.1998V4.95981C3.78516 4.51981 4.14327 4.1998 4.58097 4.1998H12.8574C13.2951 4.1998 13.6532 4.5598 13.6532 4.9998C13.6532 5.4398 13.2951 5.7998 12.8574 5.7998H5.37678V19.3998H15.1255V12.1198C15.1255 11.6798 15.4836 11.3198 15.9213 11.3198C16.359 11.3198 16.7171 11.6798 16.7171 12.1198Z" fill="#4552CB"/>
</svg>
