<svg width="16" height="16" viewBox="0 0 16 16" fill="none" xmlns="http://www.w3.org/2000/svg">
<path d="M14.0433 7.70667C13.95 7.57333 11.79 4.39999 8.00329 4.39999C4.21662 4.39999 2.05662 7.57333 1.96329 7.70667C1.84329 7.88 1.84329 8.12 1.96329 8.30667C2.05662 8.44 4.21662 11.6133 8.00329 11.6133C11.79 11.6133 13.95 8.44 14.0433 8.30667C14.1633 8.12 14.1633 7.88 14.0433 7.70667ZM8.00329 10.5333C5.42996 10.5333 3.66996 8.71999 3.06996 7.99999C3.66996 7.26666 5.41662 5.46666 8.00329 5.46666C10.5766 5.46666 12.3366 7.27999 12.9366 7.99999C12.3366 8.73333 10.5766 10.5333 8.00329 10.5333ZM8.30996 5.81334C7.72329 5.73334 7.14996 5.88 6.66996 6.24C5.69662 6.97333 5.49662 8.35999 6.22996 9.33333C6.58996 9.81333 7.09662 10.1067 7.68329 10.2C7.78996 10.2133 7.89662 10.2267 7.98996 10.2267C8.46996 10.2267 8.92329 10.0666 9.30996 9.78665C10.2833 9.05331 10.4833 7.66665 9.74996 6.69332C9.41662 6.19999 8.89662 5.89334 8.30996 5.81334ZM8.84329 9.13333C8.54996 9.35999 8.17662 9.45333 7.80329 9.39999C7.42996 9.34666 7.09662 9.14665 6.86996 8.85331C6.40329 8.22665 6.52329 7.34666 7.14996 6.86666C7.44329 6.63999 7.81662 6.54666 8.18996 6.59999C8.56329 6.65333 8.89662 6.85334 9.12329 7.14667C9.58996 7.77334 9.46996 8.66666 8.84329 9.13333ZM8.78996 7.19999C8.89662 7.29333 8.94996 7.44 8.94996 7.57333C8.94996 7.70667 8.89662 7.85334 8.78996 7.94667C8.69662 8.04001 8.54996 8.10667 8.41662 8.10667C8.26996 8.10667 8.13662 8.05334 8.04329 7.94667C7.93662 7.84001 7.88329 7.70667 7.88329 7.57333C7.88329 7.42667 7.93662 7.29333 8.04329 7.19999C8.13662 7.09333 8.28329 7.04 8.41662 7.04C8.56329 7.05333 8.69662 7.10666 8.78996 7.19999Z" fill="#BBC3CE"/>
</svg>
