<svg width="295" height="46" viewBox="0 0 295 46" fill="none" xmlns="http://www.w3.org/2000/svg">
<rect width="295" height="46" rx="23" fill="white"/>
<rect x="40" y="12" width="22" height="22" rx="2" fill="#4552CB"/>
<g clip-path="url(#clip0_238_10135)">
<path d="M56.9948 15.252L54.3234 15.2477C51.3222 15.2477 49.3827 17.2609 49.3827 20.3769V22.7419H46.6968C46.4647 22.7419 46.2767 22.9322 46.2767 23.1671V26.5936C46.2767 26.8284 46.4649 27.0186 46.6968 27.0186H49.3827V35.6648C49.3827 35.8996 49.5707 36.0898 49.8028 36.0898H53.3072C53.5393 36.0898 53.7272 35.8994 53.7272 35.6648V27.0186H56.8677C57.0998 27.0186 57.2878 26.8284 57.2878 26.5936L57.2891 23.1671C57.2891 23.0543 57.2447 22.9463 57.1661 22.8665C57.0874 22.7867 56.9803 22.7419 56.8688 22.7419H53.7272V20.7371C53.7272 19.7735 53.9542 19.2843 55.1948 19.2843L56.9944 19.2837C57.2263 19.2837 57.4142 19.0933 57.4142 18.8587V15.677C57.4142 15.4426 57.2265 15.2524 56.9948 15.252Z" fill="white"/>
</g>
<path d="M84.2 29.152C82.4827 29.152 81.16 28.6773 80.232 27.728C79.304 26.7733 78.84 25.232 78.84 23.104C78.84 21.0187 79.312 19.4827 80.256 18.496C81.2 17.504 82.5573 17.008 84.328 17.008C85.192 17.008 86.0453 17.1227 86.888 17.352V18.488C86.072 18.2533 85.2347 18.136 84.376 18.136C83.4533 18.136 82.6853 18.2987 82.072 18.624C81.464 18.9493 81 19.4747 80.68 20.2C80.3653 20.9253 80.208 21.8827 80.208 23.072C80.208 24.2933 80.368 25.2693 80.688 26C81.008 26.7253 81.4667 27.2453 82.064 27.56C82.6613 27.8693 83.4053 28.024 84.296 28.024C84.7333 28.024 85.1573 27.9893 85.568 27.92C85.984 27.8507 86.424 27.736 86.888 27.576V28.712C86.056 29.0053 85.16 29.152 84.2 29.152ZM91.4281 29.152C90.2655 29.152 89.3588 28.7867 88.7081 28.056C88.0628 27.32 87.7401 26.192 87.7401 24.672C87.7401 23.152 88.0628 22.024 88.7081 21.288C89.3535 20.552 90.2601 20.184 91.4281 20.184C92.6015 20.184 93.5108 20.5493 94.1561 21.28C94.8015 22.0107 95.1241 23.1387 95.1241 24.664C95.1241 26.1787 94.7988 27.3067 94.1481 28.048C93.4975 28.784 92.5908 29.152 91.4281 29.152ZM91.4281 28.112C92.2068 28.112 92.7988 27.8507 93.2041 27.328C93.6095 26.8 93.8121 25.92 93.8121 24.688C93.8121 23.4347 93.6095 22.5467 93.2041 22.024C92.7988 21.496 92.2068 21.232 91.4281 21.232C90.6548 21.232 90.0628 21.4933 89.6521 22.016C89.2468 22.5387 89.0441 23.416 89.0441 24.648C89.0441 25.896 89.2468 26.7867 89.6521 27.32C90.0575 27.848 90.6495 28.112 91.4281 28.112ZM97.2467 20.32H98.3267L98.4147 21.304H98.5027C98.8601 20.9413 99.2707 20.664 99.7347 20.472C100.204 20.28 100.703 20.184 101.231 20.184C102.1 20.184 102.78 20.4293 103.271 20.92C103.767 21.4053 104.015 22.1867 104.015 23.264V29H102.735V23.32C102.735 22.6107 102.577 22.1013 102.263 21.792C101.953 21.4827 101.505 21.328 100.919 21.328C100.487 21.328 100.055 21.4213 99.6227 21.608C99.1907 21.7947 98.8254 22.0853 98.5267 22.48V29H97.2467V20.32ZM110.092 28.04C110.396 28.04 110.751 27.9973 111.156 27.912V28.992C110.703 29.0987 110.258 29.152 109.82 29.152C107.948 29.152 107.012 28.192 107.012 26.272V21.376H105.372V20.32H107.012L107.22 17.16H108.292V20.32H111.02V21.376H108.292V26.072C108.292 26.7813 108.436 27.288 108.724 27.592C109.018 27.8907 109.474 28.04 110.092 28.04ZM112.676 29V20.32H113.956V29H112.676ZM113.316 18.44C113.028 18.44 112.807 18.3707 112.652 18.232C112.497 18.088 112.42 17.888 112.42 17.632C112.42 17.376 112.497 17.176 112.652 17.032C112.812 16.888 113.033 16.816 113.316 16.816C113.599 16.816 113.817 16.888 113.972 17.032C114.127 17.176 114.204 17.376 114.204 17.632C114.204 17.888 114.127 18.088 113.972 18.232C113.817 18.3707 113.599 18.44 113.316 18.44ZM116.539 20.32H117.619L117.707 21.304H117.795C118.153 20.9413 118.563 20.664 119.027 20.472C119.497 20.28 119.995 20.184 120.523 20.184C121.393 20.184 122.073 20.4293 122.563 20.92C123.059 21.4053 123.307 22.1867 123.307 23.264V29H122.027V23.32C122.027 22.6107 121.87 22.1013 121.555 21.792C121.246 21.4827 120.798 21.328 120.211 21.328C119.779 21.328 119.347 21.4213 118.915 21.608C118.483 21.7947 118.118 22.0853 117.819 22.48V29H116.539V20.32ZM128.465 29.144C127.606 29.144 126.929 28.9013 126.433 28.416C125.942 27.9307 125.697 27.1547 125.697 26.088V20.32H126.977V26.024C126.977 26.728 127.132 27.2347 127.441 27.544C127.756 27.848 128.193 28 128.753 28C129.18 28 129.606 27.904 130.033 27.712C130.465 27.52 130.825 27.232 131.113 26.848V20.32H132.393V29H131.313L131.217 28.048H131.137C130.78 28.4107 130.372 28.6853 129.913 28.872C129.46 29.0533 128.977 29.144 128.465 29.144ZM141.369 25.088H135.809C135.83 25.8187 135.95 26.4053 136.169 26.848C136.393 27.2907 136.718 27.6107 137.145 27.808C137.571 28.0053 138.115 28.104 138.777 28.104C139.406 28.104 140.126 27.9867 140.937 27.752V28.8C140.147 29.0347 139.377 29.152 138.625 29.152C137.243 29.152 136.211 28.7947 135.529 28.08C134.851 27.3653 134.513 26.224 134.513 24.656C134.513 23.168 134.819 22.0507 135.433 21.304C136.051 20.5573 136.915 20.184 138.025 20.184C139.107 20.184 139.934 20.5573 140.505 21.304C141.081 22.0453 141.369 23.1733 141.369 24.688V25.088ZM138.009 21.12C137.31 21.12 136.774 21.36 136.401 21.84C136.027 22.32 135.83 23.1093 135.809 24.208H140.137C140.115 23.104 139.926 22.3147 139.569 21.84C139.217 21.36 138.697 21.12 138.009 21.12ZM158.061 20.32H159.269L156.741 29H155.229L152.997 21.584L150.749 29H149.245L146.701 20.32H147.957L150.061 27.672L152.261 20.32H153.765L155.957 27.632L158.061 20.32ZM161.12 29V20.32H162.4V29H161.12ZM161.76 18.44C161.472 18.44 161.251 18.3707 161.096 18.232C160.942 18.088 160.864 17.888 160.864 17.632C160.864 17.376 160.942 17.176 161.096 17.032C161.256 16.888 161.478 16.816 161.76 16.816C162.043 16.816 162.262 16.888 162.416 17.032C162.571 17.176 162.648 17.376 162.648 17.632C162.648 17.888 162.571 18.088 162.416 18.232C162.262 18.3707 162.043 18.44 161.76 18.44ZM168.576 28.04C168.88 28.04 169.234 27.9973 169.64 27.912V28.992C169.186 29.0987 168.741 29.152 168.304 29.152C166.432 29.152 165.496 28.192 165.496 26.272V21.376H163.856V20.32H165.496L165.704 17.16H166.776V20.32H169.504V21.376H166.776V26.072C166.776 26.7813 166.92 27.288 167.208 27.592C167.501 27.8907 167.957 28.04 168.576 28.04ZM171.159 16.072H172.439V21.288H172.519C172.866 20.9253 173.266 20.6507 173.719 20.464C174.173 20.2773 174.663 20.184 175.191 20.184C176.039 20.184 176.706 20.4293 177.191 20.92C177.682 21.4053 177.927 22.184 177.927 23.256V29H176.647V23.312C176.647 22.6027 176.49 22.0987 176.175 21.8C175.866 21.496 175.418 21.344 174.831 21.344C174.389 21.344 173.951 21.4373 173.519 21.624C173.093 21.8107 172.733 22.0987 172.439 22.488V29H171.159V16.072ZM192.604 19.28H186.908V22.16H191.788V24.28H186.908V29H184.3V17.16H192.604V19.28ZM196.378 20.112C197.332 20.112 198.103 20.2293 198.69 20.464C199.276 20.6987 199.711 21.0853 199.994 21.624C200.276 22.1573 200.418 22.8827 200.418 23.8V29H198.306L198.13 28.136H198.01C197.754 28.4827 197.426 28.7413 197.026 28.912C196.626 29.0773 196.18 29.16 195.69 29.16C195.103 29.16 194.596 29.056 194.17 28.848C193.743 28.6347 193.415 28.3387 193.186 27.96C192.962 27.576 192.85 27.1307 192.85 26.624C192.85 25.7867 193.14 25.1387 193.722 24.68C194.308 24.2213 195.231 23.952 196.49 23.872L197.914 23.752V23.64C197.914 23.2347 197.847 22.9173 197.714 22.688C197.586 22.4587 197.378 22.296 197.09 22.2C196.807 22.0987 196.418 22.048 195.922 22.048C195.564 22.048 195.172 22.0773 194.746 22.136C194.324 22.1947 193.924 22.2827 193.546 22.4V20.48C193.962 20.3627 194.423 20.272 194.93 20.208C195.436 20.144 195.919 20.112 196.378 20.112ZM196.53 27.384C196.78 27.384 197.026 27.3413 197.266 27.256C197.506 27.1653 197.722 27.024 197.914 26.832V25.192L196.746 25.28C196.266 25.3173 195.916 25.4293 195.698 25.616C195.479 25.7973 195.37 26.0533 195.37 26.384C195.37 26.7093 195.468 26.9573 195.666 27.128C195.863 27.2987 196.151 27.384 196.53 27.384ZM206.403 29.168C204.92 29.168 203.789 28.792 203.011 28.04C202.237 27.2827 201.851 26.1493 201.851 24.64C201.851 23.12 202.261 21.9867 203.083 21.24C203.909 20.488 205.104 20.112 206.667 20.112C207.392 20.112 208.045 20.1787 208.627 20.312V22.336C208.067 22.224 207.531 22.168 207.019 22.168C206.427 22.168 205.944 22.2507 205.571 22.416C205.203 22.5813 204.931 22.8453 204.755 23.208C204.579 23.5653 204.491 24.0347 204.491 24.616C204.491 25.496 204.68 26.1307 205.059 26.52C205.437 26.9093 206.019 27.104 206.803 27.104C207.075 27.104 207.352 27.0827 207.635 27.04C207.917 26.992 208.248 26.9173 208.627 26.816V28.84C207.955 29.0587 207.213 29.168 206.403 29.168ZM217.332 25.368H212.02C212.047 25.8373 212.145 26.208 212.316 26.48C212.492 26.7467 212.764 26.9413 213.132 27.064C213.5 27.1813 214.001 27.24 214.636 27.24C215.303 27.24 216.039 27.1467 216.844 26.96V28.872C215.991 29.0693 215.135 29.168 214.276 29.168C213.161 29.168 212.249 29.0107 211.54 28.696C210.836 28.376 210.313 27.8827 209.972 27.216C209.631 26.5493 209.46 25.6827 209.46 24.616C209.46 23.656 209.617 22.84 209.932 22.168C210.252 21.4907 210.716 20.9787 211.324 20.632C211.932 20.2853 212.668 20.112 213.532 20.112C214.769 20.112 215.711 20.504 216.356 21.288C217.007 22.0667 217.332 23.2027 217.332 24.696V25.368ZM213.5 21.728C213.015 21.728 212.649 21.8933 212.404 22.224C212.159 22.5547 212.028 23.1093 212.012 23.888H214.948C214.932 23.104 214.807 22.5493 214.572 22.224C214.337 21.8933 213.98 21.728 213.5 21.728ZM222.135 29.16C221.543 29.16 220.951 29.1173 220.359 29.032C219.767 28.952 219.226 28.832 218.735 28.672V16.072H221.295V21.096H221.415C221.671 20.7813 221.991 20.5387 222.375 20.368C222.759 20.1973 223.194 20.112 223.679 20.112C224.314 20.112 224.887 20.2667 225.399 20.576C225.911 20.8853 226.319 21.3653 226.623 22.016C226.927 22.6613 227.079 23.472 227.079 24.448C227.079 26 226.666 27.1733 225.839 27.968C225.018 28.7627 223.783 29.16 222.135 29.16ZM222.327 27.224C223.063 27.224 223.61 27.0213 223.967 26.616C224.324 26.2107 224.503 25.5547 224.503 24.648C224.503 23.7467 224.348 23.1147 224.039 22.752C223.735 22.384 223.292 22.2 222.711 22.2C222.439 22.2 222.178 22.2453 221.927 22.336C221.682 22.4213 221.471 22.552 221.295 22.728V27.096C221.615 27.1813 221.959 27.224 222.327 27.224ZM232.592 29.168C231.706 29.168 230.944 29 230.304 28.664C229.669 28.328 229.178 27.824 228.832 27.152C228.49 26.4747 228.32 25.64 228.32 24.648C228.32 23.144 228.69 22.0133 229.432 21.256C230.173 20.4933 231.226 20.112 232.592 20.112C233.952 20.112 235.002 20.4933 235.744 21.256C236.49 22.0187 236.864 23.144 236.864 24.632C236.864 25.6293 236.69 26.4667 236.344 27.144C236.002 27.8213 235.512 28.328 234.872 28.664C234.237 29 233.477 29.168 232.592 29.168ZM232.592 27.224C232.97 27.224 233.282 27.144 233.528 26.984C233.773 26.824 233.96 26.5573 234.088 26.184C234.221 25.8053 234.288 25.296 234.288 24.656C234.288 24.0053 234.221 23.488 234.088 23.104C233.96 22.72 233.77 22.448 233.52 22.288C233.274 22.128 232.965 22.048 232.592 22.048C232.218 22.048 231.906 22.128 231.656 22.288C231.41 22.448 231.221 22.7173 231.088 23.096C230.96 23.4693 230.896 23.9787 230.896 24.624C230.896 25.2747 230.96 25.792 231.088 26.176C231.221 26.5547 231.41 26.824 231.656 26.984C231.901 27.144 232.213 27.224 232.592 27.224ZM242.373 29.168C241.487 29.168 240.725 29 240.085 28.664C239.45 28.328 238.959 27.824 238.613 27.152C238.271 26.4747 238.101 25.64 238.101 24.648C238.101 23.144 238.471 22.0133 239.213 21.256C239.954 20.4933 241.007 20.112 242.373 20.112C243.733 20.112 244.783 20.4933 245.525 21.256C246.271 22.0187 246.645 23.144 246.645 24.632C246.645 25.6293 246.471 26.4667 246.125 27.144C245.783 27.8213 245.293 28.328 244.653 28.664C244.018 29 243.258 29.168 242.373 29.168ZM242.373 27.224C242.751 27.224 243.063 27.144 243.309 26.984C243.554 26.824 243.741 26.5573 243.869 26.184C244.002 25.8053 244.069 25.296 244.069 24.656C244.069 24.0053 244.002 23.488 243.869 23.104C243.741 22.72 243.551 22.448 243.301 22.288C243.055 22.128 242.746 22.048 242.373 22.048C241.999 22.048 241.687 22.128 241.437 22.288C241.191 22.448 241.002 22.7173 240.869 23.096C240.741 23.4693 240.677 23.9787 240.677 24.624C240.677 25.2747 240.741 25.792 240.869 26.176C241.002 26.5547 241.191 26.824 241.437 26.984C241.682 27.144 241.994 27.224 242.373 27.224ZM254.039 29L251.647 25.528H250.623V29H248.063V16.072H250.623V23.48H251.631L253.815 20.248H256.543L253.759 24.456L256.823 29H254.039Z" fill="#4552CB"/>
<defs>
<clipPath id="clip0_238_10135">
<rect width="16.5" height="22" fill="white" transform="matrix(-1 0 0 1 59.4767 14.1476)"/>
</clipPath>
</defs>
</svg>
