<svg width="22" height="25" viewBox="0 0 22 25" fill="none" xmlns="http://www.w3.org/2000/svg">
<rect width="22" height="22" rx="2" fill="#4552CB"/>
<g clip-path="url(#clip0_238_10137)">
<path d="M16.9948 3.25199L14.3234 3.24765C11.3222 3.24765 9.38273 5.26089 9.38273 8.37692V10.7419H6.69678C6.46468 10.7419 6.27673 10.9322 6.27673 11.1671V14.5936C6.27673 14.8284 6.4649 15.0186 6.69678 15.0186H9.38273V23.6648C9.38273 23.8996 9.57068 24.0898 9.80278 24.0898H13.3072C13.5393 24.0898 13.7272 23.8994 13.7272 23.6648V15.0186H16.8677C17.0998 15.0186 17.2878 14.8284 17.2878 14.5936L17.2891 11.1671C17.2891 11.0543 17.2447 10.9463 17.1661 10.8665C17.0874 10.7867 16.9803 10.7419 16.8688 10.7419H13.7272V8.73707C13.7272 7.77349 13.9542 7.28433 15.1948 7.28433L16.9944 7.28368C17.2263 7.28368 17.4142 7.0933 17.4142 6.85869V3.67697C17.4142 3.44258 17.2265 3.25242 16.9948 3.25199Z" fill="white"/>
</g>
<defs>
<clipPath id="clip0_238_10137">
<rect width="16.5" height="22" fill="white" transform="matrix(-1 0 0 1 19.4767 2.14764)"/>
</clipPath>
</defs>
</svg>
