<svg width="24" height="24" viewBox="0 0 24 24" fill="none" xmlns="http://www.w3.org/2000/svg">
<path d="M9.29354 14.0301C9.93423 14.4524 10.6381 14.7007 11.3519 14.7976L11.3391 16.9644L10.1879 16.9578C9.83072 16.9558 9.5398 17.2433 9.53754 17.6003C9.53556 17.9575 9.82289 18.2487 10.1805 18.2506L11.3317 18.2572L11.3231 19.685C11.3213 20.0419 11.6087 20.3331 11.9661 20.3353C12.3233 20.3373 12.6142 20.0498 12.6164 19.6928L12.6247 18.2647L13.7762 18.2715C14.1334 18.2735 14.4243 17.986 14.4266 17.629C14.4277 17.4017 14.3119 17.2015 14.1351 17.085C14.0342 17.0185 13.9137 16.9793 13.7836 16.9788L12.6321 16.972L12.6449 14.8059C14.0357 14.6305 15.3454 13.8756 16.1756 12.6161C17.6831 10.3289 17.0488 7.24164 14.7616 5.7341C12.4744 4.22655 9.38712 4.86085 7.87957 7.14806C6.37203 9.43526 7.00607 12.5224 9.29354 14.0301ZM14.0503 6.81333C15.7424 7.92865 16.2114 10.2125 15.0963 11.9043C13.9811 13.5962 11.6969 14.0657 10.0051 12.9506C8.31321 11.8355 7.84394 9.55144 8.95926 7.85932C10.0746 6.16719 12.3581 5.69802 14.0503 6.81333Z" fill="#FD90AA"/>
</svg>
