<svg width="24" height="24" viewBox="0 0 24 24" fill="none" xmlns="http://www.w3.org/2000/svg">
<path d="M16.3619 15.2952C17.3143 14.0952 17.8857 12.5905 17.8857 10.9524C17.9048 7.12381 14.781 4 10.9524 4C7.12381 4 4 7.12381 4 10.9524C4 14.781 7.12381 17.9048 10.9524 17.9048C12.5905 17.9048 14.0952 17.3333 15.2952 16.381L18.7048 19.7905C18.8571 19.9238 19.0476 20 19.2381 20C19.4286 20 19.619 19.9238 19.7714 19.7714C20.0762 19.4667 20.0762 18.9905 19.7714 18.6857L16.3619 15.2952ZM5.52381 10.9524C5.52381 7.9619 7.9619 5.52381 10.9524 5.52381C13.9429 5.52381 16.381 7.9619 16.381 10.9524C16.381 13.9429 13.9429 16.381 10.9524 16.381C7.9619 16.381 5.52381 13.9429 5.52381 10.9524Z" fill="#4552CB"/>
</svg>
