<svg width="22" height="22" viewBox="0 0 22 22" fill="none" xmlns="http://www.w3.org/2000/svg">
<g clip-path="url(#clip0_238_10147)">
<path d="M21.7828 8.9375C21.9233 9.67298 22 10.4431 22 11.2474C22.0001 17.5313 17.7071 22 11.2247 22C5.02318 22 0 17.0774 0 11C0 4.9226 5.02318 0 11.2247 0C14.2556 0 16.7878 1.09303 18.7314 2.86681L15.5669 5.96761V5.96053C14.3885 4.86043 12.8943 4.29681 11.2247 4.29681C7.52073 4.29681 4.51106 7.36303 4.51106 10.9932C4.51106 14.6227 7.52068 17.6963 11.2247 17.6963C14.5852 17.6963 16.872 15.8124 17.3428 13.2276H11.2247V8.9375H21.7828Z" fill="#4552CB"/>
</g>
<defs>
<clipPath id="clip0_238_10147">
<rect width="22" height="22" fill="white"/>
</clipPath>
</defs>
</svg>
