<svg width="295" height="46" viewBox="0 0 295 46" fill="none" xmlns="http://www.w3.org/2000/svg">
<rect width="295" height="46" rx="23" fill="white"/>
<path d="M84.2 29.152C82.4827 29.152 81.16 28.6773 80.232 27.728C79.304 26.7733 78.84 25.232 78.84 23.104C78.84 21.0187 79.312 19.4827 80.256 18.496C81.2 17.504 82.5573 17.008 84.328 17.008C85.192 17.008 86.0453 17.1227 86.888 17.352V18.488C86.072 18.2533 85.2347 18.136 84.376 18.136C83.4533 18.136 82.6853 18.2987 82.072 18.624C81.464 18.9493 81 19.4747 80.68 20.2C80.3653 20.9253 80.208 21.8827 80.208 23.072C80.208 24.2933 80.368 25.2693 80.688 26C81.008 26.7253 81.4667 27.2453 82.064 27.56C82.6613 27.8693 83.4053 28.024 84.296 28.024C84.7333 28.024 85.1573 27.9893 85.568 27.92C85.984 27.8507 86.424 27.736 86.888 27.576V28.712C86.056 29.0053 85.16 29.152 84.2 29.152ZM91.4281 29.152C90.2655 29.152 89.3588 28.7867 88.7081 28.056C88.0628 27.32 87.7401 26.192 87.7401 24.672C87.7401 23.152 88.0628 22.024 88.7081 21.288C89.3535 20.552 90.2601 20.184 91.4281 20.184C92.6015 20.184 93.5108 20.5493 94.1561 21.28C94.8015 22.0107 95.1241 23.1387 95.1241 24.664C95.1241 26.1787 94.7988 27.3067 94.1481 28.048C93.4975 28.784 92.5908 29.152 91.4281 29.152ZM91.4281 28.112C92.2068 28.112 92.7988 27.8507 93.2041 27.328C93.6095 26.8 93.8121 25.92 93.8121 24.688C93.8121 23.4347 93.6095 22.5467 93.2041 22.024C92.7988 21.496 92.2068 21.232 91.4281 21.232C90.6548 21.232 90.0628 21.4933 89.6521 22.016C89.2468 22.5387 89.0441 23.416 89.0441 24.648C89.0441 25.896 89.2468 26.7867 89.6521 27.32C90.0575 27.848 90.6495 28.112 91.4281 28.112ZM97.2467 20.32H98.3267L98.4147 21.304H98.5027C98.8601 20.9413 99.2707 20.664 99.7347 20.472C100.204 20.28 100.703 20.184 101.231 20.184C102.1 20.184 102.78 20.4293 103.271 20.92C103.767 21.4053 104.015 22.1867 104.015 23.264V29H102.735V23.32C102.735 22.6107 102.577 22.1013 102.263 21.792C101.953 21.4827 101.505 21.328 100.919 21.328C100.487 21.328 100.055 21.4213 99.6227 21.608C99.1907 21.7947 98.8254 22.0853 98.5267 22.48V29H97.2467V20.32ZM110.092 28.04C110.396 28.04 110.751 27.9973 111.156 27.912V28.992C110.703 29.0987 110.258 29.152 109.82 29.152C107.948 29.152 107.012 28.192 107.012 26.272V21.376H105.372V20.32H107.012L107.22 17.16H108.292V20.32H111.02V21.376H108.292V26.072C108.292 26.7813 108.436 27.288 108.724 27.592C109.018 27.8907 109.474 28.04 110.092 28.04ZM112.676 29V20.32H113.956V29H112.676ZM113.316 18.44C113.028 18.44 112.807 18.3707 112.652 18.232C112.497 18.088 112.42 17.888 112.42 17.632C112.42 17.376 112.497 17.176 112.652 17.032C112.812 16.888 113.033 16.816 113.316 16.816C113.599 16.816 113.817 16.888 113.972 17.032C114.127 17.176 114.204 17.376 114.204 17.632C114.204 17.888 114.127 18.088 113.972 18.232C113.817 18.3707 113.599 18.44 113.316 18.44ZM116.539 20.32H117.619L117.707 21.304H117.795C118.153 20.9413 118.563 20.664 119.027 20.472C119.497 20.28 119.995 20.184 120.523 20.184C121.393 20.184 122.073 20.4293 122.563 20.92C123.059 21.4053 123.307 22.1867 123.307 23.264V29H122.027V23.32C122.027 22.6107 121.87 22.1013 121.555 21.792C121.246 21.4827 120.798 21.328 120.211 21.328C119.779 21.328 119.347 21.4213 118.915 21.608C118.483 21.7947 118.118 22.0853 117.819 22.48V29H116.539V20.32ZM128.465 29.144C127.606 29.144 126.929 28.9013 126.433 28.416C125.942 27.9307 125.697 27.1547 125.697 26.088V20.32H126.977V26.024C126.977 26.728 127.132 27.2347 127.441 27.544C127.756 27.848 128.193 28 128.753 28C129.18 28 129.606 27.904 130.033 27.712C130.465 27.52 130.825 27.232 131.113 26.848V20.32H132.393V29H131.313L131.217 28.048H131.137C130.78 28.4107 130.372 28.6853 129.913 28.872C129.46 29.0533 128.977 29.144 128.465 29.144ZM141.369 25.088H135.809C135.83 25.8187 135.95 26.4053 136.169 26.848C136.393 27.2907 136.718 27.6107 137.145 27.808C137.571 28.0053 138.115 28.104 138.777 28.104C139.406 28.104 140.126 27.9867 140.937 27.752V28.8C140.147 29.0347 139.377 29.152 138.625 29.152C137.243 29.152 136.211 28.7947 135.529 28.08C134.851 27.3653 134.513 26.224 134.513 24.656C134.513 23.168 134.819 22.0507 135.433 21.304C136.051 20.5573 136.915 20.184 138.025 20.184C139.107 20.184 139.934 20.5573 140.505 21.304C141.081 22.0453 141.369 23.1733 141.369 24.688V25.088ZM138.009 21.12C137.31 21.12 136.774 21.36 136.401 21.84C136.027 22.32 135.83 23.1093 135.809 24.208H140.137C140.115 23.104 139.926 22.3147 139.569 21.84C139.217 21.36 138.697 21.12 138.009 21.12ZM158.061 20.32H159.269L156.741 29H155.229L152.997 21.584L150.749 29H149.245L146.701 20.32H147.957L150.061 27.672L152.261 20.32H153.765L155.957 27.632L158.061 20.32ZM161.12 29V20.32H162.4V29H161.12ZM161.76 18.44C161.472 18.44 161.251 18.3707 161.096 18.232C160.942 18.088 160.864 17.888 160.864 17.632C160.864 17.376 160.942 17.176 161.096 17.032C161.256 16.888 161.478 16.816 161.76 16.816C162.043 16.816 162.262 16.888 162.416 17.032C162.571 17.176 162.648 17.376 162.648 17.632C162.648 17.888 162.571 18.088 162.416 18.232C162.262 18.3707 162.043 18.44 161.76 18.44ZM168.576 28.04C168.88 28.04 169.234 27.9973 169.64 27.912V28.992C169.186 29.0987 168.741 29.152 168.304 29.152C166.432 29.152 165.496 28.192 165.496 26.272V21.376H163.856V20.32H165.496L165.704 17.16H166.776V20.32H169.504V21.376H166.776V26.072C166.776 26.7813 166.92 27.288 167.208 27.592C167.501 27.8907 167.957 28.04 168.576 28.04ZM171.159 16.072H172.439V21.288H172.519C172.866 20.9253 173.266 20.6507 173.719 20.464C174.173 20.2773 174.663 20.184 175.191 20.184C176.039 20.184 176.706 20.4293 177.191 20.92C177.682 21.4053 177.927 22.184 177.927 23.256V29H176.647V23.312C176.647 22.6027 176.49 22.0987 176.175 21.8C175.866 21.496 175.418 21.344 174.831 21.344C174.389 21.344 173.951 21.4373 173.519 21.624C173.093 21.8107 172.733 22.0987 172.439 22.488V29H171.159V16.072ZM193.628 23.24V28.872C192.562 29.048 191.578 29.136 190.676 29.136C188.41 29.136 186.714 28.6427 185.588 27.656C184.468 26.6693 183.906 25.1547 183.9 23.112C183.9 21.0907 184.474 19.568 185.62 18.544C186.767 17.52 188.436 17.008 190.628 17.008C191.562 17.008 192.45 17.1067 193.292 17.304V19.448C192.46 19.256 191.65 19.16 190.86 19.16C189.879 19.1653 189.079 19.3013 188.46 19.568C187.842 19.8347 187.38 20.2613 187.076 20.848C186.778 21.4293 186.628 22.1947 186.628 23.144C186.628 24.4773 186.943 25.4533 187.572 26.072C188.202 26.6853 189.17 26.992 190.476 26.992C190.642 26.992 190.884 26.9867 191.204 26.976V23.24H193.628ZM199.467 29.168C198.581 29.168 197.819 29 197.179 28.664C196.544 28.328 196.053 27.824 195.707 27.152C195.365 26.4747 195.195 25.64 195.195 24.648C195.195 23.144 195.565 22.0133 196.307 21.256C197.048 20.4933 198.101 20.112 199.467 20.112C200.827 20.112 201.877 20.4933 202.619 21.256C203.365 22.0187 203.739 23.144 203.739 24.632C203.739 25.6293 203.565 26.4667 203.219 27.144C202.877 27.8213 202.387 28.328 201.747 28.664C201.112 29 200.352 29.168 199.467 29.168ZM199.467 27.224C199.845 27.224 200.157 27.144 200.403 26.984C200.648 26.824 200.835 26.5573 200.963 26.184C201.096 25.8053 201.163 25.296 201.163 24.656C201.163 24.0053 201.096 23.488 200.963 23.104C200.835 22.72 200.645 22.448 200.395 22.288C200.149 22.128 199.84 22.048 199.467 22.048C199.093 22.048 198.781 22.128 198.531 22.288C198.285 22.448 198.096 22.7173 197.963 23.096C197.835 23.4693 197.771 23.9787 197.771 24.624C197.771 25.2747 197.835 25.792 197.963 26.176C198.096 26.5547 198.285 26.824 198.531 26.984C198.776 27.144 199.088 27.224 199.467 27.224ZM209.248 29.168C208.362 29.168 207.6 29 206.96 28.664C206.325 28.328 205.834 27.824 205.488 27.152C205.146 26.4747 204.976 25.64 204.976 24.648C204.976 23.144 205.346 22.0133 206.088 21.256C206.829 20.4933 207.882 20.112 209.248 20.112C210.608 20.112 211.658 20.4933 212.4 21.256C213.146 22.0187 213.52 23.144 213.52 24.632C213.52 25.6293 213.346 26.4667 213 27.144C212.658 27.8213 212.168 28.328 211.528 28.664C210.893 29 210.133 29.168 209.248 29.168ZM209.248 27.224C209.626 27.224 209.938 27.144 210.184 26.984C210.429 26.824 210.616 26.5573 210.744 26.184C210.877 25.8053 210.944 25.296 210.944 24.656C210.944 24.0053 210.877 23.488 210.744 23.104C210.616 22.72 210.426 22.448 210.176 22.288C209.93 22.128 209.621 22.048 209.248 22.048C208.874 22.048 208.562 22.128 208.312 22.288C208.066 22.448 207.877 22.7173 207.744 23.096C207.616 23.4693 207.552 23.9787 207.552 24.624C207.552 25.2747 207.616 25.792 207.744 26.176C207.877 26.5547 208.066 26.824 208.312 26.984C208.557 27.144 208.869 27.224 209.248 27.224ZM218.301 32.68C217.245 32.68 216.266 32.56 215.365 32.32V30.32C216.309 30.5813 217.221 30.712 218.101 30.712C218.677 30.712 219.144 30.6427 219.501 30.504C219.858 30.3653 220.12 30.144 220.285 29.84C220.456 29.5413 220.541 29.144 220.541 28.648V28.064H220.421C220.165 28.3787 219.842 28.624 219.453 28.8C219.069 28.9707 218.637 29.056 218.157 29.056C217.533 29.056 216.962 28.9013 216.445 28.592C215.933 28.2827 215.522 27.8107 215.213 27.176C214.909 26.536 214.757 25.744 214.757 24.8C214.757 23.2747 215.173 22.112 216.005 21.312C216.837 20.512 218.08 20.112 219.733 20.112C220.309 20.112 220.898 20.1547 221.501 20.24C222.104 20.32 222.637 20.4373 223.101 20.592V28.176C223.101 29.2267 222.925 30.0827 222.573 30.744C222.226 31.4107 221.701 31.8987 220.997 32.208C220.293 32.5227 219.394 32.68 218.301 32.68ZM219.125 26.976C219.392 26.976 219.65 26.9333 219.901 26.848C220.152 26.7573 220.365 26.624 220.541 26.448V22.16C220.221 22.0853 219.877 22.048 219.509 22.048C218.784 22.048 218.24 22.2507 217.877 22.656C217.514 23.056 217.333 23.6987 217.333 24.584C217.333 25.464 217.485 26.0827 217.789 26.44C218.093 26.7973 218.538 26.976 219.125 26.976ZM225.001 29V16.072H227.561V29H225.001ZM236.926 25.368H231.614C231.641 25.8373 231.739 26.208 231.91 26.48C232.086 26.7467 232.358 26.9413 232.726 27.064C233.094 27.1813 233.595 27.24 234.23 27.24C234.897 27.24 235.633 27.1467 236.438 26.96V28.872C235.585 29.0693 234.729 29.168 233.87 29.168C232.755 29.168 231.843 29.0107 231.134 28.696C230.43 28.376 229.907 27.8827 229.566 27.216C229.225 26.5493 229.054 25.6827 229.054 24.616C229.054 23.656 229.211 22.84 229.526 22.168C229.846 21.4907 230.31 20.9787 230.918 20.632C231.526 20.2853 232.262 20.112 233.126 20.112C234.363 20.112 235.305 20.504 235.95 21.288C236.601 22.0667 236.926 23.2027 236.926 24.696V25.368ZM233.094 21.728C232.609 21.728 232.243 21.8933 231.998 22.224C231.753 22.5547 231.622 23.1093 231.606 23.888H234.542C234.526 23.104 234.401 22.5493 234.166 22.224C233.931 21.8933 233.574 21.728 233.094 21.728Z" fill="#4552CB"/>
<g clip-path="url(#clip0_238_10143)">
<path d="M61.7828 20.9375C61.9233 21.673 62 22.4431 62 23.2474C62.0001 29.5313 57.7071 34 51.2247 34C45.0232 34 40 29.0774 40 23C40 16.9226 45.0232 12 51.2247 12C54.2556 12 56.7878 13.093 58.7314 14.8668L55.5669 17.9676V17.9605C54.3885 16.8604 52.8943 16.2968 51.2247 16.2968C47.5207 16.2968 44.5111 19.363 44.5111 22.9932C44.5111 26.6227 47.5207 29.6963 51.2247 29.6963C54.5852 29.6963 56.872 27.8124 57.3428 25.2276H51.2247V20.9375H61.7828Z" fill="#4552CB"/>
</g>
<defs>
<clipPath id="clip0_238_10143">
<rect width="22" height="22" fill="white" transform="translate(40 12)"/>
</clipPath>
</defs>
</svg>
