<svg width="56" height="56" viewBox="0 0 56 56" fill="none" xmlns="http://www.w3.org/2000/svg">
<rect width="56" height="56" rx="28" fill="#EF403B"/>
<path d="M38.7828 25.9375C38.9233 26.673 39 27.4431 39 28.2474C39.0001 34.5313 34.7071 39 28.2247 39C22.0232 39 17 34.0774 17 28C17 21.9226 22.0232 17 28.2247 17C31.2556 17 33.7878 18.093 35.7314 19.8668L32.5669 22.9676V22.9605C31.3885 21.8604 29.8943 21.2968 28.2247 21.2968C24.5207 21.2968 21.5111 24.363 21.5111 27.9932C21.5111 31.6227 24.5207 34.6963 28.2247 34.6963C31.5852 34.6963 33.872 32.8124 34.3428 30.2276H28.2247V25.9375H38.7828Z" fill="white"/>
</svg>
