<svg width="40" height="40" viewBox="0 0 40 40" fill="none" xmlns="http://www.w3.org/2000/svg">
<path fill-rule="evenodd" clip-rule="evenodd" d="M29.3024 13.1555C30.7194 13.1555 31.8682 12.0068 31.8682 10.5897C31.8682 9.17267 30.7194 8.02393 29.3024 8.02393C27.8853 8.02393 26.7366 9.17267 26.7366 10.5897C26.7366 12.0068 27.8853 13.1555 29.3024 13.1555ZM18.1841 24.274C19.4057 24.274 20.5276 23.8471 21.4088 23.1344C22.1664 24.333 23.5034 25.1291 25.0263 25.1291C27.388 25.1291 29.3026 23.2145 29.3026 20.8528C29.3026 18.491 27.388 16.5765 25.0263 16.5765C24.2559 16.5765 23.5331 16.7802 22.9089 17.1366C22.1279 15.2992 20.3064 14.0108 18.1841 14.0108C15.35 14.0108 13.0525 16.3083 13.0525 19.1424C13.0525 21.9765 15.35 24.274 18.1841 24.274Z" fill="#FFC4CD"/>
<path fill-rule="evenodd" clip-rule="evenodd" d="M9.77642 8.49595C9.77642 6.88743 11.0626 5.60303 12.6251 5.60303C14.1876 5.60303 15.4738 6.88743 15.4738 8.49595C15.4738 9.04823 15.9215 9.49595 16.4738 9.49595C17.0261 9.49595 17.4738 9.04823 17.4738 8.49595C17.4738 5.80447 15.3137 3.60303 12.6251 3.60303C9.9365 3.60303 7.77642 5.80447 7.77642 8.49595V15.0683C6.85614 15.4581 6.21052 16.3696 6.21052 17.4319V19.9977H4.50008C3.55538 19.9977 2.78955 20.7636 2.78955 21.7083C2.78955 22.653 3.55538 23.4188 4.50007 23.4188H4.50015V25.2478C4.50015 31.323 9.42501 36.2478 15.5001 36.2478H24.2896C30.3648 36.2478 35.2896 31.323 35.2896 25.2478V23.4188C36.2343 23.4187 37.0001 22.6529 37.0001 21.7083C37.0001 20.7636 36.2342 19.9977 35.2896 19.9977H11.3421V17.4319C11.3421 16.3697 10.6966 15.4582 9.77642 15.0684V8.49595Z" fill="url(#paint0_linear_656_3733)"/>
<defs>
<linearGradient id="paint0_linear_656_3733" x1="6.26405" y1="44.9191" x2="-12.1943" y2="18.4997" gradientUnits="userSpaceOnUse">
<stop offset="0.298343" stop-color="#4552CB"/>
<stop offset="1" stop-color="#4596EA"/>
</linearGradient>
</defs>
</svg>
