<svg width="24" height="24" viewBox="0 0 24 24" fill="none" xmlns="http://www.w3.org/2000/svg">
<path d="M20.1451 7.19995C19.3251 5.37995 17.6051 4.19995 15.7451 4.19995C13.8851 4.19995 12.6851 5.01995 11.9851 5.89995C11.2851 5.01995 10.0851 4.19995 8.22508 4.19995C6.36508 4.19995 4.64508 5.37995 3.82508 7.19995C2.98508 9.09995 3.34508 11.1999 4.80508 12.8399C8.30508 16.7799 11.4051 19.56 11.4451 19.58C11.6051 19.72 11.7851 19.78 11.9851 19.78C12.1851 19.78 12.3651 19.72 12.5251 19.58C12.5651 19.56 15.6451 16.7599 19.1651 12.8399C20.6451 11.1999 21.0051 9.09995 20.1451 7.19995ZM17.9851 11.78C15.3851 14.68 13.0251 16.96 12.0051 17.9C10.9851 16.9399 8.62508 14.68 6.02508 11.76C4.98508 10.58 4.72508 9.15995 5.30508 7.81995C5.84508 6.59995 7.02508 5.75996 8.24508 5.75996C10.6251 5.75996 11.1651 7.53996 11.2251 7.75996C11.3051 8.11996 11.6251 8.35996 11.9851 8.35996C12.3451 8.35996 12.6651 8.09996 12.7651 7.75996C12.8251 7.55996 13.3651 5.75996 15.7451 5.75996C16.9451 5.75996 18.1251 6.57995 18.6851 7.81995C19.2851 9.17995 19.0251 10.6 17.9851 11.78Z" fill="#4552CB"/>
</svg>
