<svg width="25" height="24" viewBox="0 0 25 24" fill="none" xmlns="http://www.w3.org/2000/svg">
<path d="M21.0458 7.37998C20.8853 7.21998 20.6847 7.2 20.4841 7.2H16.2715V4.8C16.2715 4.36 15.8703 4 15.429 4H8.68891C8.24759 4 7.84639 4.36 7.84639 4.8V7.2H3.63382C3.1925 7.2 2.83142 7.46 2.83142 7.9V19.2C2.83142 19.64 3.1925 20 3.63382 20H20.4841C20.9254 20 21.2865 19.64 21.2865 19.2V7.93999C21.2865 7.71999 21.2063 7.53998 21.0458 7.37998ZM9.45118 5.6H14.6667V7.2H9.45118V5.6ZM19.6817 18.4H4.43621V8.8H19.6817V18.4ZM8.78921 13.5C8.78921 13.12 9.11017 12.8 9.4913 12.8H11.2566V11.02C11.2566 10.64 11.5775 10.32 11.9587 10.32C12.3398 10.32 12.6608 10.64 12.6608 11.02V12.8H14.6266C15.0078 12.8 15.3287 13.12 15.3287 13.5C15.3287 13.88 15.0078 14.2 14.6266 14.2H12.6608V16.08C12.6608 16.46 12.3398 16.78 11.9587 16.78C11.5775 16.78 11.2566 16.46 11.2566 16.08V14.2H9.4913C9.11017 14.2 8.78921 13.88 8.78921 13.5Z" fill="#4552CB"/>
</svg>
