<svg width="24" height="24" viewBox="0 0 24 24" fill="none" xmlns="http://www.w3.org/2000/svg">
<path d="M11.2942 9.74176L16.5719 7.44078L14.3975 12.5516C14.0724 13.3158 13.467 13.9266 12.7057 14.2585L7.42805 16.5593L9.60252 11.4485C9.92765 10.6844 10.533 10.0737 11.2942 9.74176Z" stroke="#BBC3CE" stroke-width="1.5"/>
<path d="M12 2C6.47826 2 2 6.47826 2 12C2 17.5217 6.47826 22 12 22C17.5217 22 22 17.5217 22 12C22 6.47826 17.5217 2 12 2ZM12 20.2609C7.43478 20.2609 3.73913 16.5652 3.73913 12C3.73913 7.43478 7.43478 3.73913 12 3.73913C16.5652 3.73913 20.2609 7.43478 20.2609 12C20.2609 16.5652 16.5652 20.2609 12 20.2609Z" fill="#BBC3CE"/>
<circle cx="12" cy="12" r="1" fill="#BBC3CE"/>
</svg>
