<svg width="24" height="24" viewBox="0 0 24 24" fill="none" xmlns="http://www.w3.org/2000/svg">
<path d="M12 2C6.47826 2 2 6.47826 2 12C2 17.5217 6.47826 22 12 22C17.5217 22 22 17.5217 22 12C22 6.47826 17.5217 2 12 2ZM12 20.2609C7.43478 20.2609 3.73913 16.5652 3.73913 12C3.73913 7.43478 7.43478 3.73913 12 3.73913C16.5652 3.73913 20.2609 7.43478 20.2609 12C20.2609 16.5652 16.5652 20.2609 12 20.2609Z" fill="#070821"/>
<path d="M15.326 15.3261C15.6739 14.9783 15.6739 14.4348 15.326 14.087L12.8912 11.6739V6.84784C12.8912 6.36958 12.4999 5.97827 12.0217 5.97827C11.5434 5.97827 11.1521 6.36958 11.1521 6.84784V12.0218C11.1521 12.2392 11.2391 12.4565 11.413 12.6304L14.1086 15.3261C14.2825 15.5 14.4999 15.587 14.7173 15.587C14.9347 15.587 15.1521 15.5 15.326 15.3261Z" fill="#070821"/>
</svg>
