<svg width="30" height="26" viewBox="0 0 30 26" fill="none" xmlns="http://www.w3.org/2000/svg">
<path d="M15 3C9.47826 3 5 7.47826 5 13C5 18.5217 9.47826 23 15 23C20.5217 23 25 18.5217 25 13C25 7.47826 20.5217 3 15 3ZM15 21.2609C10.4348 21.2609 6.73913 17.5652 6.73913 13C6.73913 8.43478 10.4348 4.73913 15 4.73913C19.5652 4.73913 23.2609 8.43478 23.2609 13C23.2609 17.5652 19.5652 21.2609 15 21.2609Z" fill="#BBC3CE"/>
<path d="M18.326 16.3261C18.6739 15.9783 18.6739 15.4348 18.326 15.087L15.8912 12.6739V7.84784C15.8912 7.36958 15.4999 6.97827 15.0217 6.97827C14.5434 6.97827 14.1521 7.36958 14.1521 7.84784V13.0218C14.1521 13.2392 14.2391 13.4565 14.413 13.6304L17.1086 16.3261C17.2825 16.5 17.4999 16.587 17.7173 16.587C17.9347 16.587 18.1521 16.5 18.326 16.3261Z" fill="#BBC3CE"/>
</svg>
