<svg width="375" height="397" viewBox="0 0 375 397" fill="none" xmlns="http://www.w3.org/2000/svg">
<g clip-path="url(#clip0_529_11683)">
<path opacity="0.1" d="M122 203.205C272.7 202.605 272.9 256.905 423.6 256.405C574.3 255.805 574.1 201.605 724.8 201.005C875.5 200.405 875.7 254.705 1026.4 254.205" stroke="#4552CB" stroke-width="180" stroke-miterlimit="10" stroke-linecap="round"/>
<path d="M155.358 240.016C155.358 240.016 129.451 250.706 114.803 237.657C111.228 234.465 106.436 230.073 103.744 224.267C110.545 227.286 113.114 226.646 113.114 226.646C113.114 226.646 107.634 224.337 104.32 218.379C100.578 211.736 99.6599 201.911 99.7429 197.573C100.96 198.773 103.769 199.124 103.769 199.124C103.769 199.124 103.7 180.196 119.57 173.058C118.794 176.614 120.118 178.756 120.118 178.756C120.118 178.756 122.39 176.049 130.006 174.171C142.942 170.928 149.136 177.866 149.136 177.866C149.136 177.866 127.467 179.868 121.409 201.746C119.306 209.335 130.44 229.304 154.64 229.436" fill="white"/>
<path d="M160.036 239.169C160.036 239.169 134.622 248.308 120.107 235.308C116.532 232.116 114.942 229.877 114.499 228.208C121.301 231.227 123.87 230.587 123.87 230.587C123.87 230.587 117.295 229.006 108.998 217.532C105.56 212.733 104.691 207.294 104.732 202.866C105.95 204.065 108.758 204.416 108.758 204.416C108.758 204.416 104.749 188.639 117.332 179.166C116.556 182.723 117.88 184.865 117.88 184.865C117.88 184.865 127.068 175.203 134.642 173.234C147.578 169.991 153.772 176.929 153.772 176.929C153.772 176.929 132.103 178.93 126.045 200.809C123.942 208.398 135.076 228.367 159.276 228.499" fill="#F1A852"/>
<path d="M151.267 259.553L154.067 263.353C154.467 263.953 155.167 264.253 155.867 264.253H161.467L173.367 255.253C173.367 255.253 179.967 261.253 192.467 262.253C204.967 263.253 216.267 258.153 216.267 258.153L225.267 263.753C225.567 263.953 225.967 264.053 226.267 264.053L234.367 264.253C235.067 264.253 235.667 263.953 235.967 263.353L238.667 258.753C238.867 258.353 238.767 257.953 238.367 257.753L234.267 255.453C233.867 255.253 233.567 254.653 233.767 254.153L238.867 233.753C239.167 232.653 239.067 231.553 238.767 230.453L228.767 200.553L220.067 112.953L214.967 97.2529L194.967 112.953L169.467 115.053L163.867 159.253C163.867 159.253 164.467 172.253 164.467 177.253C164.367 195.253 156.667 214.353 156.667 214.353C156.567 215.253 156.067 216.053 155.867 216.853C152.667 226.453 151.967 234.653 152.467 238.853C152.967 243.453 154.467 248.853 155.267 251.553C155.567 252.653 155.267 253.753 154.467 254.553L151.367 257.453C150.867 257.953 150.767 258.853 151.267 259.553Z" fill="#FAF8F8"/>
<path d="M167.567 212.053L161.267 199.953C159.167 208.353 156.767 214.253 156.767 214.253C156.667 215.153 156.167 215.953 155.967 216.753C155.367 218.653 154.767 220.553 154.367 222.253L163.867 233.053L167.567 212.053Z" fill="#ED6D4E"/>
<path d="M228.667 198.953L237.567 226.853L224.067 233.153L225.367 203.653L228.667 198.953Z" fill="#ED6D4E"/>
<path d="M161.167 265.553L162.867 268.553C163.067 268.953 163.467 269.153 163.867 269.153H176.367C176.967 269.153 177.467 268.653 177.567 268.053L180.467 234.153V234.053V208.353C180.467 208.153 180.467 208.053 180.367 207.853C179.267 204.553 168.167 168.953 168.267 164.053C168.467 156.853 174.567 145.753 175.367 143.953C175.467 143.853 175.467 143.653 175.467 143.553V127.953C175.467 126.653 173.767 126.253 173.167 127.353L162.567 147.853C162.567 147.953 162.467 147.953 162.467 148.053L157.867 162.753C157.867 162.853 157.767 163.053 157.867 163.253L159.867 186.353L161.567 205.353L162.867 232.053L164.167 256.753C164.167 256.953 164.167 257.153 164.067 257.253L161.067 264.653C160.967 264.853 160.967 265.253 161.167 265.553Z" fill="white"/>
<path d="M180.567 213.653C180.567 213.653 161.467 203.153 161.167 200.853C160.867 198.553 157.667 159.053 157.667 159.053C157.667 159.053 157.667 156.753 160.367 148.153C163.067 139.553 167.867 113.953 167.867 113.953L175.867 119.453L176.167 139.253C176.167 139.553 176.367 142.753 175.867 144.553L170.067 157.753C169.267 160.253 169.567 164.553 169.867 167.653L181.267 205.653C181.267 205.753 181.267 205.853 181.267 205.953L180.567 213.653Z" fill="#F1A852"/>
<path d="M212.167 267.353L208.167 210.053C208.067 209.253 208.167 208.453 208.467 207.753L214.467 187.953V187.853C214.867 186.953 219.767 171.753 219.967 166.853C220.167 161.853 216.267 148.153 214.567 142.153C213.167 137.253 214.067 128.953 214.467 126.153C214.567 125.553 215.067 125.153 215.567 125.153H221.567C222.067 125.153 222.567 125.553 222.667 126.053L230.067 154.853C230.067 154.853 230.067 154.853 230.067 154.953L231.967 161.053C231.967 161.153 232.067 161.353 231.967 161.453L228.667 200.553L223.667 256.953C223.667 257.153 223.667 257.353 223.767 257.553L226.067 262.653C226.267 263.053 226.367 263.553 226.367 263.953V267.353C226.367 268.453 225.467 269.253 224.467 269.253H214.067C213.167 269.253 212.267 268.453 212.167 267.353Z" fill="white"/>
<path opacity="0.04" d="M167.167 116.753L217.067 151.253L224.067 112.753L221.067 96.4529L191.567 111.953L167.567 114.453L167.167 116.753Z" fill="#3C3C56"/>
<path d="M229.067 197.853L232.167 161.353C232.167 161.253 232.167 161.053 232.167 160.953L230.267 154.853C230.267 154.853 230.267 154.853 230.267 154.753L222.867 125.653C222.767 125.153 222.267 124.453 221.767 124.453H215.767C215.167 124.453 214.667 125.253 214.667 125.753C214.267 128.553 213.367 137.053 214.767 141.953C216.567 147.953 220.367 161.753 220.167 166.753C219.967 171.653 214.967 186.853 214.667 187.753V187.853L208.667 207.653C208.467 208.353 208.367 209.153 208.367 209.953L208.467 211.953C213.067 210.353 222.167 206.353 229.067 197.853Z" fill="#F1A852"/>
<path d="M166.467 107.053L165.767 84.853C165.767 84.853 169.367 69.3529 169.867 69.0529C170.367 68.7529 188.667 50.653 188.667 50.653L218.967 62.653L220.967 99.853L199.167 118.153L166.467 107.053Z" fill="#F1A852"/>
<path d="M169.467 117.553L189.067 125.053C190.267 125.453 191.667 125.053 192.467 124.053L199.267 118.153C200.467 116.753 201.267 115.053 201.467 113.253C202.067 108.453 202.367 98.253 196.967 87.853C196.667 87.253 196.567 86.553 196.667 85.853C197.467 81.553 200.367 68.853 201.667 63.153C201.767 62.753 201.167 62.453 200.967 62.853L189.867 83.4529C189.467 84.153 188.967 84.653 188.267 84.853C184.967 86.153 174.467 91.0529 167.667 101.553C166.967 102.653 166.567 103.853 166.567 105.153L167.267 114.253C167.167 115.853 168.067 117.153 169.467 117.553Z" fill="white"/>
<path d="M172.567 111.953L178.067 116.553C179.667 117.653 181.867 118.153 183.767 118.153L191.567 117.153" stroke="#DDDDDD" stroke-width="2" stroke-miterlimit="10" stroke-linecap="round" stroke-linejoin="round"/>
<path d="M183.267 112.753C182.467 112.653 181.767 112.253 181.267 111.653C179.767 109.853 177.067 104.953 178.067 99.753C179.167 94.353 190.667 99.553 190.667 99.553C190.667 99.553 195.067 101.353 195.067 104.553C194.967 107.853 190.667 113.553 183.267 112.753Z" fill="#382F2D"/>
<path d="M174.567 72.2529C174.567 72.2529 175.367 82.0529 183.967 77.5529C184.667 72.3529 178.767 68.6529 174.567 72.2529Z" fill="#382F2D"/>
<path d="M204.667 84.3529C204.667 84.3529 207.267 93.3529 214.967 87.5529C212.367 78.3529 204.667 84.3529 204.667 84.3529Z" fill="#382F2D"/>
<path d="M169.567 72.3529C169.567 72.3529 177.667 56.9529 182.467 50.5529C183.467 49.2529 189.067 50.6529 189.067 50.6529L169.567 72.3529Z" fill="#C7482C"/>
<path d="M157.367 110.753C157.367 110.753 150.567 106.653 147.267 92.9529C144.867 82.7529 145.367 73.5529 145.767 69.5529C145.867 68.1529 149.167 63.953 158.467 60.153L182.467 50.653L171.467 68.653C170.967 69.453 170.567 70.353 170.167 71.353C168.567 75.853 163.667 90.0529 163.267 95.9529C162.767 102.353 163.367 115.153 157.367 110.753Z" fill="#ED6D4E"/>
<path d="M219.067 62.653C219.067 62.653 238.067 89.953 240.267 100.653C242.467 111.353 235.267 126.653 220.067 129.853C204.867 133.053 217.267 114.853 218.867 100.853C220.467 86.853 219.067 62.653 219.067 62.653Z" fill="#ED6D4E"/>
<path d="M219.467 85.9529L215.367 61.2529L219.067 62.6529L219.467 85.9529Z" fill="#C7482C"/>
</g>
<g filter="url(#filter0_d_529_11683)">
<rect x="-3" y="57" width="64" height="64" rx="20" fill="white"/>
<path d="M19.4545 91.5011L27.3295 99.4546L34.767 95.2685L40.4545 91.5011L38.267 85.222L34.767 83.129L31.7045 81.4546H27.3295L19.4545 86.4778V91.5011Z" fill="#ED6D4E"/>
<path fill-rule="evenodd" clip-rule="evenodd" d="M35.1324 89.5969C34.6993 89.8722 34.3735 90.22 34.1537 90.6409C34.046 90.8721 33.9802 91.0884 33.9565 91.2903C33.9242 91.5415 33.9522 91.7845 34.0396 92.0204C34.1677 92.3152 34.365 92.5278 34.6322 92.6576C34.8015 92.7454 34.9958 92.8052 35.2155 92.8374C35.5248 92.8654 35.8595 92.8141 36.2179 92.6851C36.4589 92.5774 36.6863 92.4404 36.9001 92.2745C37.1851 92.0412 37.3998 91.782 37.5436 91.4969L37.642 91.284C37.6959 91.169 37.7341 91.026 37.7557 90.8564C37.8036 90.5751 37.7811 90.3146 37.6874 90.0754C37.5695 89.7941 37.3841 89.5812 37.1304 89.4378C36.9709 89.3419 36.7864 89.2834 36.5768 89.2613C36.2514 89.2215 35.9201 89.2635 35.5829 89.3869C35.4289 89.4471 35.2783 89.5171 35.1324 89.5969ZM35.4675 84.7588C35.2579 84.6828 35.0505 84.6557 34.8448 84.6782C34.5733 84.6917 34.3005 84.769 34.0252 84.9085C33.7418 85.0481 33.4682 85.2487 33.2052 85.51C32.9872 85.7395 32.8022 86.0026 32.6482 86.2999C32.574 86.4573 32.5235 86.582 32.4955 86.6737C32.4323 86.8612 32.389 87.0554 32.367 87.2574C32.3373 87.5386 32.3712 87.8156 32.4683 88.0888C32.5863 88.4099 32.795 88.6517 33.0941 88.8134C33.2633 88.9012 33.4495 88.9568 33.6506 88.9809C33.8984 89.0004 34.1707 88.9631 34.4676 88.8668C34.7391 88.7671 35.0055 88.6127 35.2669 88.4032C35.6283 88.1138 35.9074 87.7681 36.1047 87.3651C36.2243 87.1394 36.3024 86.9112 36.3384 86.6796C36.4003 86.3805 36.4071 86.0984 36.3592 85.8329C36.2777 85.4044 36.0631 85.085 35.7161 84.8754L35.7042 84.8576L35.4917 84.7588H35.4675ZM26.3589 89.7288C26.0776 89.8103 25.8057 89.918 25.5423 90.0521C25.1677 90.2536 24.8614 90.4809 24.6239 90.7342C24.4644 90.8958 24.3176 91.0943 24.1839 91.3289C24.0779 91.5228 24.0037 91.715 23.9595 91.9071C23.8357 92.4416 23.9086 92.9562 24.178 93.4508C24.3418 93.7227 24.564 93.9429 24.8453 94.1122L24.995 94.1932L25.5189 94.3994C25.7026 94.4469 26.0106 94.5101 26.4437 94.5877L27.3112 94.7578L27.7393 94.8987C27.9704 95.0064 28.138 95.0921 28.2419 95.1557C28.4473 95.2817 28.67 95.44 28.9092 95.6313C29.0848 95.7751 29.3423 95.9918 29.6809 96.2807C29.8887 96.4424 30.0542 96.5514 30.178 96.607L30.2226 96.6282L30.2404 96.646L30.4618 96.7508H30.483L30.5636 96.7868L30.8233 96.8492C31.0689 96.895 31.3226 96.8971 31.5839 96.8555C31.9449 96.7877 32.2588 96.6523 32.5265 96.4487C32.8115 96.2213 33.0283 95.924 33.1755 95.5566C33.2616 95.3534 33.3214 95.1146 33.3554 94.8414C33.3872 94.5203 33.374 94.2059 33.3159 93.8988C33.2527 93.5319 33.1475 93.1785 33.002 92.8391C32.8764 92.5697 32.7767 92.28 32.7029 91.9686C32.6308 91.6535 32.5761 91.351 32.5383 91.0617L32.4272 90.248C32.3733 89.9587 32.3071 89.7072 32.2265 89.4938C32.0789 89.1366 31.8638 88.8426 31.5805 88.611C31.3972 88.4693 31.1864 88.3425 30.9492 88.2309C30.7537 88.1508 30.5467 88.102 30.3269 88.0842C30.0733 88.0744 29.7899 88.1211 29.4768 88.225C29.2656 88.309 29.0594 88.4006 28.8579 88.4999C28.6721 88.5941 28.404 88.7425 28.0532 88.9457C27.6905 89.1532 27.3829 89.3148 27.1314 89.4306C26.876 89.5638 26.6189 89.6626 26.3589 89.7288ZM28.6454 84.1004C28.5834 84.2815 28.5304 84.4682 28.4863 84.6599C28.4286 85.0409 28.4294 85.3845 28.4893 85.692C28.5372 85.9894 28.6441 86.2626 28.8095 86.512C28.9555 86.7195 29.1192 86.8692 29.3033 86.9613C29.5184 87.0847 29.7542 87.1407 30.0092 87.1288C30.2166 87.117 30.4292 87.0559 30.6468 86.9464C30.9577 86.7691 31.2152 86.5256 31.4184 86.2159C31.5101 86.0942 31.597 85.9466 31.6789 85.7731L31.8104 85.3781C31.8804 85.1588 31.9249 84.9242 31.9423 84.6752C31.9521 84.282 31.8918 83.9142 31.7595 83.571C31.6717 83.3491 31.5453 83.1548 31.3794 82.9873C31.1796 82.7819 30.9497 82.6572 30.6879 82.6135C30.4368 82.5597 30.1776 82.5868 29.9104 82.6941C29.6851 82.7858 29.4781 82.9245 29.291 83.1099C29.0615 83.3334 28.8732 83.6058 28.7251 83.9269L28.6454 84.1004ZM26.4132 84.4559C26.148 84.3884 25.8846 84.4092 25.6233 84.5191C25.4057 84.615 25.211 84.7656 25.0396 84.9709C24.9658 85.0629 24.8941 85.1673 24.8241 85.2852L24.794 85.3183L24.6684 85.5877L24.6086 85.7909C24.5267 86.0662 24.4928 86.3406 24.5068 86.6138C24.517 86.9248 24.5717 87.2014 24.6718 87.4427C24.7855 87.7359 24.942 87.9764 25.1414 88.1639C25.3068 88.312 25.4922 88.4184 25.698 88.4842C25.9813 88.5622 26.2634 88.541 26.5447 88.4214C26.764 88.3298 26.9617 88.1754 27.1373 87.9577C27.2429 87.8339 27.3439 87.6697 27.4389 87.4644L27.5467 87.1772C27.6145 86.9574 27.6493 86.7513 27.6514 86.5578C27.6714 86.1447 27.6056 85.7582 27.4542 85.3968C27.3422 85.1495 27.1916 84.9429 27.0024 84.7779C26.823 84.6086 26.627 84.5025 26.4132 84.4559ZM34.6925 73.7412C35.5523 74.6011 35.9821 75.6383 35.9821 76.8528V82.93H42.0563C43.2708 82.93 44.3085 83.3589 45.1679 84.2166C46.0257 85.0765 46.4545 86.1141 46.4545 87.3286V91.5805C46.4545 92.795 46.0257 93.8318 45.1679 94.6891C44.3085 95.549 43.2708 95.9791 42.0563 95.9791H35.9821V102.056C35.9821 103.271 35.5523 104.307 34.6925 105.165C33.8347 106.024 32.7984 106.455 31.5839 106.455H27.332C26.1171 106.455 25.0799 106.024 24.22 105.165C23.3623 104.307 22.9334 103.271 22.9334 102.056V95.9795H16.8532C15.6382 95.9795 14.6019 95.5494 13.7441 94.6895C12.8847 93.8322 12.4545 92.7954 12.4545 91.5809V87.3291C12.4545 86.1141 12.8847 85.0765 13.7441 84.2171C14.6019 83.3593 15.6382 82.9304 16.8532 82.9304H22.9334V76.8528C22.9334 75.6378 23.3623 74.6006 24.22 73.7412C25.0799 72.8834 26.1171 72.4546 27.332 72.4546H31.5839C32.7984 72.4546 33.8347 72.8834 34.6925 73.7412Z" fill="#FFCF6F"/>
</g>
<g filter="url(#filter1_d_529_11683)">
<rect x="284" y="223" width="64" height="64" rx="20" fill="white"/>
<path fill-rule="evenodd" clip-rule="evenodd" d="M317.699 240.484L317.666 240.493C317.215 240.452 316.722 240.411 316.27 240.411C310.518 240.452 306.082 244.354 304.644 245.792L304.603 245.833C303.206 247.23 302.261 248.996 301.809 250.845L301.768 250.763C299.057 252.735 297.455 255.857 297.455 259.144C297.455 264.731 302.015 269.291 307.602 269.291L315.489 269.332C316.982 269.326 317.093 269.326 318.735 269.326C320.376 269.326 321.98 269.332 321.98 269.332H325.349C325.636 270.852 326.992 272.002 328.594 272.002C330.402 272.002 331.88 270.523 331.88 268.715C331.88 266.908 330.402 265.429 328.594 265.429C328.265 265.429 327.978 265.716 327.978 266.045C327.978 266.374 328.265 266.661 328.594 266.661C329.744 266.661 330.648 267.565 330.648 268.715C330.648 269.866 329.744 270.769 328.594 270.769C327.69 270.769 326.91 270.153 326.663 269.332H328.594C328.923 269.332 329.21 269.044 329.21 268.715C329.21 268.387 328.923 268.099 328.594 268.099H322.021C322.021 268.099 320.417 268.102 318.776 268.102C317.93 268.102 317.48 268.101 317.044 268.101H317.044H317.043H317.042H317.042C316.632 268.1 316.233 268.099 315.53 268.099L307.643 268.058C302.713 268.058 298.728 264.032 298.728 259.144C298.728 256.638 299.796 254.255 301.604 252.571C301.563 252.858 301.563 253.146 301.563 253.474C301.563 259.472 306.451 264.361 312.449 264.361C316.105 264.361 319.638 262.348 321.651 259.144L324.075 261.567C326.499 263.991 330.443 263.991 332.866 261.567L333.647 260.787C334.838 259.595 335.455 258.034 335.455 256.391C335.413 254.748 334.797 253.146 333.606 251.995L328.915 247.304L324.281 243.151C321.493 240.825 318.473 240.523 317.699 240.484ZM326.934 250.836C326.36 250.261 325.583 249.957 324.772 249.957C323.962 249.957 323.185 250.261 322.611 250.836C322.036 251.411 321.732 252.188 321.732 253C321.732 253.811 322.036 254.589 322.611 255.163L326.022 258.578C326.63 259.187 327.407 259.457 328.184 259.457C328.961 259.457 329.738 259.153 330.346 258.578C331.528 257.395 331.528 255.468 330.346 254.284L326.934 250.836Z" fill="#FD90AA"/>
<path d="M306.997 258.358C304.125 255.486 304.125 250.798 306.997 247.926C309.868 245.011 314.554 245.011 317.468 247.884C318.861 249.277 319.621 251.136 319.621 253.121C319.621 255.106 318.861 256.965 317.468 258.358C316.074 259.752 314.217 260.513 312.232 260.513C310.248 260.513 308.39 259.752 306.997 258.358Z" fill="#FFCF6F"/>
</g>
<g filter="url(#filter2_d_529_11683)">
<rect x="254" y="133" width="64" height="64" rx="20" fill="white"/>
<path d="M304.695 149.455H284.676C284.258 149.455 283.916 149.797 283.916 150.215V152.054H293.599C294.856 152.054 295.879 153.076 295.879 154.334V165.741H296.608L301.632 170.765C301.776 170.909 301.974 170.993 302.171 170.993C302.27 170.993 302.369 170.97 302.46 170.932C302.749 170.818 302.931 170.537 302.931 170.233V165.741H304.695C305.113 165.741 305.455 165.407 305.455 164.981V150.215C305.455 149.797 305.113 149.455 304.695 149.455Z" fill="url(#paint0_linear_529_11683)"/>
<path d="M293.598 153.574H268.215C267.797 153.574 267.455 153.916 267.455 154.334V173.068C267.455 173.486 267.797 173.828 268.215 173.828H270.654V179.718C270.654 180.022 270.837 180.303 271.118 180.417C271.217 180.455 271.315 180.478 271.414 180.478C271.612 180.478 271.802 180.402 271.946 180.257L278.376 173.828H293.598C294.016 173.828 294.358 173.486 294.358 173.068V154.334C294.358 153.916 294.016 153.574 293.598 153.574ZM286.553 164.768L281.438 169.876C281.294 170.028 281.096 170.096 280.906 170.096C280.709 170.096 280.511 170.028 280.367 169.876L275.26 164.768C274.431 163.94 273.975 162.846 273.975 161.675C273.975 160.505 274.431 159.403 275.26 158.574C276.795 157.047 279.196 156.895 280.906 158.126C282.616 156.895 285.018 157.054 286.546 158.582C287.374 159.41 287.83 160.505 287.83 161.675C287.838 162.846 287.382 163.94 286.553 164.768Z" fill="#FFC4CD"/>
</g>
<g filter="url(#filter3_d_529_11683)">
<rect x="14" y="253" width="64" height="64" rx="20" fill="white"/>
<circle cx="35.9545" cy="288.955" r="3.5" fill="#FFCF6F"/>
<circle cx="56.9545" cy="288.955" r="3.5" fill="#FFCF6F"/>
<path d="M60.7638 283.927H60.1865L57.4649 273.917C57.2174 273.032 56.3514 272.389 55.403 272.389H52.0731L51.4958 269.379C51.3308 268.816 50.836 268.455 50.2174 268.455H42.6917C42.1143 268.455 41.5783 268.857 41.4133 269.379L40.836 272.389H37.5473C36.5576 272.389 35.6917 273.032 35.4855 273.917L32.7638 283.927H32.1865C31.238 283.927 30.4545 284.651 30.4545 285.535V296.068C30.4545 296.952 31.238 297.676 32.1865 297.676H33.135V300.409C33.135 300.972 33.671 301.455 34.3721 301.455H37.6298C38.2896 301.455 38.8669 300.972 38.8669 300.409V297.676H54.0422V300.409C54.0422 300.972 54.5783 301.455 55.2793 301.455H58.537C59.1968 301.455 59.7741 300.972 59.7741 300.409V297.676H60.7226C61.671 297.676 62.4545 296.952 62.4545 296.068V285.535C62.4545 284.651 61.7123 283.927 60.7638 283.927ZM59.7329 289.032C59.7329 290.52 58.4958 291.726 56.97 291.726C55.4442 291.726 54.2071 290.52 54.2071 289.032C54.2071 287.545 55.4442 286.339 56.97 286.339C58.4958 286.339 59.7329 287.545 59.7329 289.032ZM37.3824 275.002C37.4649 274.64 37.836 274.399 38.2071 274.399H54.702C55.1143 274.399 55.4442 274.64 55.5267 275.002L57.9597 283.927H34.9494L37.3824 275.002ZM35.9391 286.339C37.4649 286.339 38.702 287.545 38.702 289.032C38.702 290.52 37.4649 291.726 35.9391 291.726C34.4133 291.726 33.1762 290.52 33.1762 289.032C33.1762 287.545 34.4133 286.339 35.9391 286.339Z" fill="url(#paint1_linear_529_11683)"/>
<path d="M49.2945 270.654C49.2831 270.64 49.2922 270.629 49.2922 270.629C49.7263 270.099 49.1586 269.455 48.6759 269.455C48.3547 269.455 48.0705 269.653 47.8969 269.958H46.7275C46.635 269.958 46.5745 269.959 46.5745 269.959C46.5745 269.959 46.5014 269.959 46.4545 269.959C46.348 269.958 46.3374 269.959 46.1816 269.958H45.0123C44.8387 269.653 44.5544 269.455 44.2332 269.455C43.7506 269.455 43.1829 270.099 43.6168 270.629C43.6168 270.629 43.626 270.64 43.6145 270.654C43.1828 271.198 43.7047 271.855 44.2331 271.855C44.5556 271.855 44.8408 271.654 45.0142 271.348H47.8948C48.0682 271.654 48.3533 271.855 48.6759 271.855C49.2044 271.854 49.7263 271.198 49.2945 270.654Z" fill="#FCECEA"/>
</g>
<g filter="url(#filter4_d_529_11683)">
<rect x="286" y="31" width="64" height="64" rx="20" fill="white"/>
<path fill-rule="evenodd" clip-rule="evenodd" d="M327.757 56.61C329.174 56.61 330.323 55.4613 330.323 54.0442C330.323 52.6272 329.174 51.4785 327.757 51.4785C326.34 51.4785 325.191 52.6272 325.191 54.0442C325.191 55.4613 326.34 56.61 327.757 56.61ZM316.639 67.7285C317.86 67.7285 318.982 67.3016 319.863 66.5889C320.621 67.7876 321.958 68.5836 323.481 68.5836C325.843 68.5836 327.757 66.669 327.757 64.3073C327.757 61.9456 325.843 60.031 323.481 60.031C322.71 60.031 321.988 60.2347 321.363 60.5912C320.582 58.7538 318.761 57.4653 316.639 57.4653C313.805 57.4653 311.507 59.7628 311.507 62.5969C311.507 65.431 313.805 67.7285 316.639 67.7285Z" fill="#FFC4CD"/>
<path fill-rule="evenodd" clip-rule="evenodd" d="M308.231 51.9505C308.231 50.342 309.517 49.0576 311.08 49.0576C312.642 49.0576 313.928 50.342 313.928 51.9505C313.928 52.5028 314.376 52.9505 314.928 52.9505C315.481 52.9505 315.928 52.5028 315.928 51.9505C315.928 49.259 313.768 47.0576 311.08 47.0576C308.391 47.0576 306.231 49.259 306.231 51.9505V58.5228C305.311 58.9126 304.665 59.8242 304.665 60.8865V63.4523H302.955C302.01 63.4523 301.244 64.2181 301.244 65.1628C301.244 66.1075 302.01 66.8733 302.955 66.8733H302.955V68.7024C302.955 74.7775 307.88 79.7024 313.955 79.7024H322.744C328.819 79.7024 333.744 74.7775 333.744 68.7024V66.8733C334.689 66.8733 335.455 66.1075 335.455 65.1628C335.455 64.2181 334.689 63.4523 333.744 63.4523H309.797V60.8865C309.797 59.8242 309.151 58.9128 308.231 58.5229V51.9505Z" fill="url(#paint2_linear_529_11683)"/>
</g>
<g filter="url(#filter5_d_529_11683)">
<rect x="37" y="151" width="64" height="64" rx="20" fill="white"/>
<path fill-rule="evenodd" clip-rule="evenodd" d="M87.5099 182.455H51.3992C50.8628 182.455 50.3934 182.783 50.0245 183.252C49.6892 183.768 49.4545 184.425 49.4545 185.176V186.067V193.199V198.455H52.2316V193.199H86.6775V198.455H89.4545V186.067V185.176C89.4545 184.425 89.2534 183.768 88.8846 183.252C88.5157 182.783 88.0463 182.455 87.5099 182.455Z" fill="#FD90AA"/>
<path d="M71.3155 178.466C70.8126 178.466 70.4102 178.813 70.4102 179.286V182.438H68.4991V179.286C68.4991 178.813 68.0967 178.466 67.5938 178.466H58.1386C57.6692 178.466 57.2669 178.813 57.2669 179.286V182.438H55.2216V174.4C55.2216 174.148 55.3222 173.896 55.5234 173.738C55.691 173.549 55.9593 173.455 56.2275 173.455H82.6818C82.95 173.455 83.2183 173.549 83.3859 173.738C83.5871 173.896 83.6877 174.148 83.6877 174.4V182.438H81.6424V179.286C81.6424 178.813 81.2401 178.466 80.7707 178.466H71.3155Z" fill="#FFC4CD"/>
</g>
<defs>
<filter id="filter0_d_529_11683" x="-34" y="26" width="132" height="132" filterUnits="userSpaceOnUse" color-interpolation-filters="sRGB">
<feFlood flood-opacity="0" result="BackgroundImageFix"/>
<feColorMatrix in="SourceAlpha" type="matrix" values="0 0 0 0 0 0 0 0 0 0 0 0 0 0 0 0 0 0 127 0" result="hardAlpha"/>
<feOffset dx="3" dy="3"/>
<feGaussianBlur stdDeviation="17"/>
<feColorMatrix type="matrix" values="0 0 0 0 0.180392 0 0 0 0 0.117647 0 0 0 0 0.478431 0 0 0 0.08 0"/>
<feBlend mode="normal" in2="BackgroundImageFix" result="effect1_dropShadow_529_11683"/>
<feBlend mode="normal" in="SourceGraphic" in2="effect1_dropShadow_529_11683" result="shape"/>
</filter>
<filter id="filter1_d_529_11683" x="253" y="192" width="132" height="132" filterUnits="userSpaceOnUse" color-interpolation-filters="sRGB">
<feFlood flood-opacity="0" result="BackgroundImageFix"/>
<feColorMatrix in="SourceAlpha" type="matrix" values="0 0 0 0 0 0 0 0 0 0 0 0 0 0 0 0 0 0 127 0" result="hardAlpha"/>
<feOffset dx="3" dy="3"/>
<feGaussianBlur stdDeviation="17"/>
<feColorMatrix type="matrix" values="0 0 0 0 0.180392 0 0 0 0 0.117647 0 0 0 0 0.478431 0 0 0 0.08 0"/>
<feBlend mode="normal" in2="BackgroundImageFix" result="effect1_dropShadow_529_11683"/>
<feBlend mode="normal" in="SourceGraphic" in2="effect1_dropShadow_529_11683" result="shape"/>
</filter>
<filter id="filter2_d_529_11683" x="223" y="102" width="132" height="132" filterUnits="userSpaceOnUse" color-interpolation-filters="sRGB">
<feFlood flood-opacity="0" result="BackgroundImageFix"/>
<feColorMatrix in="SourceAlpha" type="matrix" values="0 0 0 0 0 0 0 0 0 0 0 0 0 0 0 0 0 0 127 0" result="hardAlpha"/>
<feOffset dx="3" dy="3"/>
<feGaussianBlur stdDeviation="17"/>
<feColorMatrix type="matrix" values="0 0 0 0 0.180392 0 0 0 0 0.117647 0 0 0 0 0.478431 0 0 0 0.08 0"/>
<feBlend mode="normal" in2="BackgroundImageFix" result="effect1_dropShadow_529_11683"/>
<feBlend mode="normal" in="SourceGraphic" in2="effect1_dropShadow_529_11683" result="shape"/>
</filter>
<filter id="filter3_d_529_11683" x="-17" y="222" width="132" height="132" filterUnits="userSpaceOnUse" color-interpolation-filters="sRGB">
<feFlood flood-opacity="0" result="BackgroundImageFix"/>
<feColorMatrix in="SourceAlpha" type="matrix" values="0 0 0 0 0 0 0 0 0 0 0 0 0 0 0 0 0 0 127 0" result="hardAlpha"/>
<feOffset dx="3" dy="3"/>
<feGaussianBlur stdDeviation="17"/>
<feColorMatrix type="matrix" values="0 0 0 0 0.180392 0 0 0 0 0.117647 0 0 0 0 0.478431 0 0 0 0.08 0"/>
<feBlend mode="normal" in2="BackgroundImageFix" result="effect1_dropShadow_529_11683"/>
<feBlend mode="normal" in="SourceGraphic" in2="effect1_dropShadow_529_11683" result="shape"/>
</filter>
<filter id="filter4_d_529_11683" x="255" y="0" width="132" height="132" filterUnits="userSpaceOnUse" color-interpolation-filters="sRGB">
<feFlood flood-opacity="0" result="BackgroundImageFix"/>
<feColorMatrix in="SourceAlpha" type="matrix" values="0 0 0 0 0 0 0 0 0 0 0 0 0 0 0 0 0 0 127 0" result="hardAlpha"/>
<feOffset dx="3" dy="3"/>
<feGaussianBlur stdDeviation="17"/>
<feColorMatrix type="matrix" values="0 0 0 0 0.180392 0 0 0 0 0.117647 0 0 0 0 0.478431 0 0 0 0.08 0"/>
<feBlend mode="normal" in2="BackgroundImageFix" result="effect1_dropShadow_529_11683"/>
<feBlend mode="normal" in="SourceGraphic" in2="effect1_dropShadow_529_11683" result="shape"/>
</filter>
<filter id="filter5_d_529_11683" x="6" y="120" width="132" height="132" filterUnits="userSpaceOnUse" color-interpolation-filters="sRGB">
<feFlood flood-opacity="0" result="BackgroundImageFix"/>
<feColorMatrix in="SourceAlpha" type="matrix" values="0 0 0 0 0 0 0 0 0 0 0 0 0 0 0 0 0 0 127 0" result="hardAlpha"/>
<feOffset dx="3" dy="3"/>
<feGaussianBlur stdDeviation="17"/>
<feColorMatrix type="matrix" values="0 0 0 0 0.180392 0 0 0 0 0.117647 0 0 0 0 0.478431 0 0 0 0.08 0"/>
<feBlend mode="normal" in2="BackgroundImageFix" result="effect1_dropShadow_529_11683"/>
<feBlend mode="normal" in="SourceGraphic" in2="effect1_dropShadow_529_11683" result="shape"/>
</filter>
<linearGradient id="paint0_linear_529_11683" x1="286.104" y1="176.714" x2="273.74" y2="159.827" gradientUnits="userSpaceOnUse">
<stop offset="0.298343" stop-color="#4552CB"/>
<stop offset="1" stop-color="#4596EA"/>
</linearGradient>
<linearGradient id="paint1_linear_529_11683" x1="33.7045" y1="310.22" x2="14.5922" y2="284.908" gradientUnits="userSpaceOnUse">
<stop offset="0.298343" stop-color="#4552CB"/>
<stop offset="1" stop-color="#4596EA"/>
</linearGradient>
<linearGradient id="paint2_linear_529_11683" x1="304.719" y1="88.3737" x2="286.26" y2="61.9542" gradientUnits="userSpaceOnUse">
<stop offset="0.298343" stop-color="#4552CB"/>
<stop offset="1" stop-color="#4596EA"/>
</linearGradient>
<clipPath id="clip0_529_11683">
<rect width="375.7" height="375.7" fill="white" transform="translate(0 21)"/>
</clipPath>
</defs>
</svg>
