<svg width="375" height="424" viewBox="0 0 375 424" fill="none" xmlns="http://www.w3.org/2000/svg">
<g clip-path="url(#clip0_529_11684)">
<path opacity="0.1" d="M-264 230.205C-113.3 229.605 -113.1 283.905 37.6 283.405C188.3 282.805 188.1 228.605 338.8 228.005C489.5 227.405 489.7 281.705 640.4 281.205" stroke="#4552CB" stroke-width="180" stroke-miterlimit="10" stroke-linecap="round"/>
<path d="M136.951 229.785C136.951 229.785 102.158 228.292 92.5118 206.015C90.1004 200.618 87 193.154 87 185.116C93.086 192.121 96.3012 192.695 96.3012 192.695C96.3012 192.695 91.3635 187.183 90.6745 178.8C89.8707 169.384 94.1194 157.901 96.416 152.964C97.2198 154.916 100.091 156.753 100.091 156.753C100.091 156.753 109.851 135.395 131.439 135.739C128.683 139.299 129.143 142.399 129.143 142.399C129.143 142.399 133.047 140.562 142.693 142.399C158.884 145.5 162.214 156.523 162.214 156.523C162.214 156.523 136.836 147.452 118.578 168.925C112.263 176.274 114.33 204.637 141.544 217.383" fill="white"/>
<path d="M142.578 231.278C142.578 231.278 109.277 228.292 99.6313 206.015C97.2198 200.618 96.6457 197.173 96.9902 195.106C103.076 202.111 106.291 202.685 106.291 202.685C106.291 202.685 99.7461 197.518 96.416 180.178C95.038 173.059 96.9902 166.399 99.2868 161.461C100.091 163.413 102.961 165.25 102.961 165.25C102.961 165.25 106.751 145.5 125.698 141.366C122.942 144.926 123.401 148.026 123.401 148.026C123.401 148.026 138.788 141.94 148.319 143.777C164.51 146.878 167.84 157.901 167.84 157.901C167.84 157.901 142.463 148.83 124.205 170.303C117.889 177.652 119.956 206.015 147.171 218.761" fill="#F1A852"/>
<path d="M151.305 192.81L140.051 211.642C140.051 211.642 126.042 233.689 122.597 236.56C120.301 238.512 116.856 241.153 114.904 242.646C113.87 243.45 113.526 244.828 113.985 245.976L117.2 254.014C117.774 255.392 119.152 256.081 120.53 255.851L138.329 252.636C139.592 252.406 140.511 251.258 140.511 249.995L140.281 237.134C140.281 236.56 140.511 235.986 141.085 235.756L144.3 233.689C144.3 233.689 144.185 259.181 145.678 264.693C146.712 268.368 150.386 286.511 150.386 286.511L140.97 305.343C140.511 306.262 140.74 307.295 141.429 307.984L150.271 315.792C150.96 316.481 152.109 316.596 153.027 316.252L165.658 310.51C166.692 310.051 167.266 309.018 167.151 307.984L164.395 273.305L163.477 253.21L210.557 256.655L206.079 306.262C205.964 307.41 206.538 308.558 207.457 309.247L218.48 316.826C219.514 317.515 221.006 317.515 222.04 316.711L231.226 309.018C232.26 308.099 232.604 306.721 231.915 305.458L222.384 287.085C222.384 287.085 225.944 267.449 227.552 261.019C229.963 251.258 228.47 232.311 228.47 232.311L233.064 236.33V251.832C233.064 252.636 233.638 253.325 234.556 253.44L252.7 255.392C254.077 255.507 255.341 254.818 255.915 253.555L259.245 246.435C259.704 245.402 259.474 244.253 258.556 243.45C254.652 240.349 244.202 231.737 242.594 227.948C240.528 223.354 229.963 207.508 229.963 206.704C229.963 205.9 221.695 194.532 221.695 194.532L193.562 221.287L158.539 210.034L151.764 192.58" fill="white"/>
<path d="M149.812 193.499L141.2 209.575L144.185 213.594C144.185 213.594 143.956 251.258 144.53 257C145.104 262.741 155.783 272.042 164.166 273.994C163.936 269.975 163.362 252.521 163.362 252.521L149.812 193.499Z" fill="#F1A852"/>
<path d="M210.442 254.818L209.064 271.353C209.064 271.353 225.714 266.071 226.978 262.052C228.356 257.803 230.078 241.498 227.322 228.177C225.025 217.154 225.485 217.154 225.485 217.154L232.604 211.757L222.614 193.039L220.317 195.336C220.317 195.336 221.466 220.713 220.317 228.522C219.169 236.445 216.413 252.866 210.442 254.818Z" fill="#F1A852"/>
<path d="M146.023 211.412C146.482 210.953 147.63 209.575 147.63 209.575L148.893 204.293L150.156 200.503L150.271 195.451L149.238 194.532L141.085 209.69L144.07 213.709C144.07 213.594 145.563 211.986 146.023 211.412Z" fill="#ED6D4E"/>
<path d="M224.336 213.594L220.432 195.566L222.614 193.154L232.719 211.871L225.485 217.268L224.336 213.594Z" fill="#ED6D4E"/>
<path d="M151.764 162.954L150.156 200.503C150.156 200.503 146.941 208.771 147.515 213.135C148.089 217.498 151.879 246.435 153.486 249.88C155.209 253.325 172.433 264.578 183.572 264.578C194.71 264.578 212.509 259.067 215.724 255.162C218.94 251.258 224.681 225.881 225.14 216.694C225.6 207.508 221.121 194.532 221.121 194.532L219.973 165.94L151.764 162.954Z" fill="#F9FAFB"/>
<path opacity="0.04" d="M150.156 200.503C150.156 200.503 174.271 226.914 222.384 234.723C228.815 208.082 222.729 200.733 221.351 194.417C219.284 187.528 220.203 165.825 220.203 165.825L151.879 162.954L150.386 195.451L150.156 200.503Z" fill="#3C3C56"/>
<path d="M156.587 130.457C156.587 130.457 170.941 121.156 183.572 120.122C184.031 120.122 184.605 120.008 185.065 120.008C202.404 119.663 214.806 131.261 214.806 131.261L219.973 153.079V165.71C219.973 165.71 211.59 179.949 207.686 190.054C205.964 194.532 201.83 218.532 188.05 218.532C174.041 218.532 173.352 209.575 169.448 200.388C165.199 190.283 156.702 176.733 152.108 167.317C151.994 167.088 151.764 166.973 151.534 166.858C146.023 162.38 156.587 130.457 156.587 130.457Z" fill="#F1A852"/>
<path d="M166.003 181.556C166.003 181.556 165.084 187.068 166.003 189.135C166.922 191.202 170.711 202.455 170.711 202.455L176.223 213.709C176.223 213.709 181.964 218.302 186.213 218.417C190.462 218.532 194.71 215.776 195.974 214.513C197.237 213.249 202.634 203.03 202.863 200.044C203.093 197.058 204.126 191.317 205.16 188.102C206.308 184.542 206.308 179.834 206.308 179.834L166.003 181.556Z" fill="#382F2D"/>
<path d="M172.663 187.642C172.663 187.642 174.73 200.848 175.419 203.833C175.993 206.589 178.519 213.709 185.639 213.709C193.792 213.709 195.055 210.723 196.203 206.934C197.581 202.226 198.155 199.47 198.27 197.403C198.385 194.877 199.763 187.527 199.763 187.527H172.663V187.642Z" fill="#FCC4CD"/>
<path d="M218.94 166.973C218.94 166.973 214.117 172.255 211.246 177.078C208.72 181.327 205.964 185.69 203.093 193.499C201.6 197.518 202.978 214.398 188.05 216.579C188.05 216.579 180.931 216.809 176.912 212.331C173.582 208.656 171.859 202.455 169.563 196.714C167.725 192.006 165.084 187.413 163.362 184.427C161.41 181.097 156.817 173.289 155.783 171.796C155.553 171.451 154.635 169.729 153.142 168.121C152.798 167.777 151.42 166.628 151.42 166.628C151.534 166.628 151.42 166.743 151.42 166.858C151.534 167.088 151.764 167.432 151.879 167.662C154.979 173.748 161.869 181.901 167.381 199.01C171.515 211.871 176.452 218.876 187.935 218.876C203.208 218.876 205.849 194.762 207.571 190.283C210.901 181.671 217.447 170.303 219.399 166.858H218.94V166.973Z" fill="white"/>
<path d="M156.587 130.457C156.587 130.457 154.75 130.916 152.223 131.491C150.501 131.835 151.879 163.298 151.879 163.298L156.587 130.457Z" fill="#C7482C"/>
<path d="M214.232 130.802C214.232 130.802 216.758 131.146 217.906 131.376C218.94 132.868 220.432 155.26 220.432 155.26L214.232 130.802Z" fill="#C7482C"/>
<path d="M153.257 194.877C151.42 196.025 149.123 195.336 147.4 194.762C140.511 192.121 122.253 183.738 122.253 164.447C122.253 142.514 152.223 131.605 152.223 131.605C151.075 131.72 152.338 148.715 154.175 165.021C155.783 179.719 157.161 192.35 153.257 194.877Z" fill="#ED6D4E"/>
<path d="M217.906 131.376C217.906 131.376 247.991 158.705 248.566 161.576C249.14 164.447 251.436 167.317 242.594 179.375C233.753 191.432 222.844 198.666 216.758 193.613C213.083 190.283 217.447 179.604 218.48 158.705C218.71 151.815 217.906 131.376 217.906 131.376Z" fill="#ED6D4E"/>
<path opacity="0.1" d="M184.72 121.271L180.012 148.715C179.897 149.863 178.06 153.193 177.027 153.882C172.893 158.59 167.266 161.461 164.051 170.877C163.362 178.341 162.788 184.197 169.792 190.628C174.845 195.221 180.242 195.221 183.572 193.154C186.328 191.317 188.165 192.58 188.165 192.58C188.165 192.58 189.888 194.417 194.136 194.188C197.237 193.958 202.978 190.054 205.045 186.609C207.342 182.705 209.294 173.633 205.045 164.676C199.878 157.672 193.447 154.571 192.414 150.323C190.232 141.71 186.328 121.271 186.328 121.271C186.328 121.271 185.18 121.041 184.72 121.271Z" fill="#060822"/>
<path d="M184.72 120.122L180.012 147.567C179.897 148.715 178.06 152.045 177.027 152.734C172.893 157.442 167.266 160.313 164.051 169.729C163.362 177.193 162.788 183.049 169.792 189.48C174.845 194.073 180.242 194.073 183.572 192.006C186.328 190.169 188.165 191.432 188.165 191.432C188.165 191.432 189.888 193.269 194.136 193.039C197.237 192.81 202.978 188.905 205.045 185.461C207.342 181.556 209.294 172.485 205.045 163.528C199.878 156.523 193.447 153.423 192.414 149.174C190.232 140.562 186.328 120.122 186.328 120.122C186.328 120.122 185.18 119.893 184.72 120.122Z" fill="white"/>
<path d="M158.424 148.485C158.424 148.485 160.376 142.974 166.233 143.777C169.792 144.351 171.744 147.337 171.744 147.337C171.744 147.337 170.022 152.39 165.084 152.39C161.065 152.39 158.424 148.485 158.424 148.485Z" fill="#382F2D"/>
<path d="M200.107 148.026C200.107 148.026 201.256 143.203 207.112 143.662C211.935 143.662 213.428 148.026 213.428 148.026C213.428 148.026 212.05 152.964 206.768 152.39C201.485 151.815 200.107 148.026 200.107 148.026Z" fill="#382F2D"/>
<path d="M186.213 185.461C182.424 185.461 175.993 179.719 174.615 174.437C172.548 166.743 181.39 166.973 181.39 166.973C181.39 166.973 188.739 166.514 193.103 166.973C198.27 167.547 198.385 172.37 197.811 174.092C196.548 178.226 191.495 185.69 186.213 185.461Z" fill="#382F2D"/>
</g>
<g filter="url(#filter0_d_529_11684)">
<rect x="30" y="31" width="84" height="84" rx="20" fill="white"/>
<path fill-rule="evenodd" clip-rule="evenodd" d="M81.2115 66.0646C82.6285 66.0646 83.7773 64.9158 83.7773 63.4988C83.7773 62.0818 82.6285 60.933 81.2115 60.933C79.7944 60.933 78.6457 62.0818 78.6457 63.4988C78.6457 64.9158 79.7944 66.0646 81.2115 66.0646ZM70.0932 77.183C71.3148 77.183 72.4367 76.7562 73.3179 76.0434C74.0755 77.2421 75.4125 78.0382 76.9354 78.0382C79.2971 78.0382 81.2117 76.1236 81.2117 73.7619C81.2117 71.4001 79.2971 69.4855 76.9354 69.4855C76.165 69.4855 75.4422 69.6892 74.818 70.0457C74.037 68.2083 72.2155 66.9199 70.0932 66.9199C67.2591 66.9199 64.9616 69.2174 64.9616 72.0515C64.9616 74.8856 67.2591 77.183 70.0932 77.183Z" fill="#FFC4CD"/>
<path fill-rule="evenodd" clip-rule="evenodd" d="M61.6855 61.405C61.6855 59.7965 62.9716 58.5121 64.5342 58.5121C66.0967 58.5121 67.3829 59.7965 67.3829 61.405C67.3829 61.9573 67.8306 62.405 68.3829 62.405C68.9352 62.405 69.3829 61.9573 69.3829 61.405C69.3829 58.7136 67.2228 56.5121 64.5342 56.5121C61.8456 56.5121 59.6855 58.7136 59.6855 61.405V67.9774C58.7652 68.3672 58.1196 69.2787 58.1196 70.341V72.9068H56.4092C55.4645 72.9068 54.6986 73.6726 54.6986 74.6173C54.6986 75.562 55.4645 76.3279 56.4092 76.3279H56.4092V78.1569C56.4092 84.2321 61.3341 89.1569 67.4092 89.1569H76.1987C82.2738 89.1569 87.1987 84.2321 87.1987 78.1569V76.3279C88.1434 76.3278 88.9092 75.562 88.9092 74.6173C88.9092 73.6726 88.1433 72.9068 87.1986 72.9068H63.2512V70.341C63.2512 69.2788 62.6057 68.3673 61.6855 67.9775V61.405Z" fill="url(#paint0_linear_529_11684)"/>
</g>
<defs>
<filter id="filter0_d_529_11684" x="-1" y="0" width="152" height="152" filterUnits="userSpaceOnUse" color-interpolation-filters="sRGB">
<feFlood flood-opacity="0" result="BackgroundImageFix"/>
<feColorMatrix in="SourceAlpha" type="matrix" values="0 0 0 0 0 0 0 0 0 0 0 0 0 0 0 0 0 0 127 0" result="hardAlpha"/>
<feOffset dx="3" dy="3"/>
<feGaussianBlur stdDeviation="17"/>
<feColorMatrix type="matrix" values="0 0 0 0 0.180392 0 0 0 0 0.117647 0 0 0 0 0.478431 0 0 0 0.08 0"/>
<feBlend mode="normal" in2="BackgroundImageFix" result="effect1_dropShadow_529_11684"/>
<feBlend mode="normal" in="SourceGraphic" in2="effect1_dropShadow_529_11684" result="shape"/>
</filter>
<linearGradient id="paint0_linear_529_11684" x1="58.1731" y1="97.8282" x2="39.7148" y2="71.4088" gradientUnits="userSpaceOnUse">
<stop offset="0.298343" stop-color="#4552CB"/>
<stop offset="1" stop-color="#4596EA"/>
</linearGradient>
<clipPath id="clip0_529_11684">
<rect width="375.7" height="375.7" fill="white" transform="translate(0 48)"/>
</clipPath>
</defs>
</svg>
