<svg width="375" height="812" viewBox="0 0 375 812" fill="none" xmlns="http://www.w3.org/2000/svg">
<rect width="375" height="812" fill="url(#paint0_linear_238_10511)"/>
<path d="M248.112 232.78C247.877 232.659 247.728 232.603 247.526 232.529C246.739 232.241 245.896 232.179 244.998 232.33C244.631 232.392 244.244 232.5 243.823 232.642C243.403 232.785 242.964 232.959 242.48 233.184C241.972 233.421 241.561 233.629 240.456 234.209C239.028 234.959 238.305 235.301 237.482 235.627C236.887 235.863 236.345 236.04 235.709 236.197C234.309 236.544 233.076 237.101 232.023 237.866C231.117 238.525 230.409 239.282 229.881 240.161C229.785 240.319 229.573 240.732 229.503 240.898C229.047 241.957 228.897 243.027 229.085 244.111C229.237 244.987 229.62 245.878 230.119 246.505C230.849 247.426 231.864 248.02 233.434 248.473C233.92 248.615 234.545 248.77 235.553 248.979C236.985 249.278 237.754 249.486 238.438 249.745C239.415 250.115 240.383 250.708 241.456 251.611C241.782 251.883 242.077 252.138 242.748 252.757C243.528 253.475 243.829 253.752 244.224 254.063C244.493 254.275 244.823 254.497 245.046 254.633C245.105 254.67 245.169 254.711 245.183 254.722C245.198 254.731 245.375 254.838 245.585 254.944C245.994 255.151 246.089 255.18 246.395 255.277C247.319 255.569 248.36 255.593 249.407 255.342C249.565 255.305 249.994 255.167 250.145 255.105C251.063 254.732 251.839 254.136 252.433 253.336C252.641 253.056 252.767 252.849 252.94 252.514C253.068 252.264 253.131 252.101 253.218 251.874C253.721 250.556 253.843 249.042 253.563 247.41C253.428 246.626 253.206 245.848 252.88 245.012C252.559 244.187 252.374 243.538 252.202 242.701C252.043 241.917 251.955 241.26 251.822 239.877C251.712 238.719 251.672 238.284 251.6 237.816C251.393 236.51 251.047 235.563 250.487 234.765C249.936 233.981 249.126 233.301 248.112 232.78Z" fill="white"/>
<path d="M250.501 225.372C251.024 223.847 251.083 222.268 250.682 220.872C250.456 220.086 250.062 219.379 249.551 218.86C249.011 218.313 248.327 217.954 247.595 217.84C247.163 217.773 246.754 217.788 246.291 217.886C246.149 217.917 245.695 218.062 245.554 218.122C244.592 218.535 243.723 219.296 243.041 220.294C242.842 220.587 242.799 220.668 242.576 221.103C242.347 221.549 242.28 221.671 242.148 222.032C241.415 224.049 241.508 226.218 242.393 227.781C242.747 228.409 243.222 228.902 243.787 229.246C243.9 229.314 244.156 229.434 244.28 229.483C244.71 229.651 245.174 229.742 245.635 229.728C245.784 229.724 246.062 229.682 246.206 229.655C247.513 229.407 248.768 228.457 249.662 227.071C249.992 226.559 250.3 225.958 250.501 225.372Z" fill="white"/>
<path d="M264.448 236.74C264.276 236.602 264.159 236.516 263.943 236.397C263.351 236.076 262.693 235.935 261.941 235.919C261.348 235.908 260.816 235.969 260.211 236.146C260.032 236.198 259.87 236.243 259.693 236.312C258.458 236.795 257.301 237.689 256.542 238.755C255.589 240.094 255.286 241.613 255.692 242.877C255.931 243.618 256.416 244.248 257.082 244.673C257.123 244.699 257.279 244.775 257.425 244.848C257.707 244.989 257.804 245.032 258.056 245.106C258.955 245.368 260.02 245.335 261.024 245.032C261.542 244.874 261.964 244.706 262.42 244.45C263.491 243.85 264.349 243.017 264.955 242.008C265.061 241.831 265.301 241.346 265.368 241.172C265.758 240.158 265.813 239.211 265.536 238.347C265.415 237.971 265.278 237.691 265.049 237.382C264.867 237.134 264.688 236.931 264.448 236.74Z" fill="white"/>
<path d="M234.024 232.803C234.246 232.882 234.39 232.934 234.604 232.968C236.159 233.218 237.697 232.331 238.648 230.634C239.233 229.59 239.527 228.33 239.479 227.068C239.411 225.277 238.639 223.652 237.453 222.817C237.144 222.6 236.794 222.424 236.458 222.323C235.763 222.115 235.054 222.145 234.373 222.401C233.963 222.553 233.56 222.777 233.186 223.089C232.899 223.33 232.566 223.685 232.322 224.027C232.14 224.283 232.099 224.363 231.898 224.757C231.691 225.159 231.657 225.249 231.545 225.574C231.006 227.135 231.031 228.926 231.633 230.361C232.03 231.308 232.642 232.041 233.404 232.518C233.536 232.6 233.874 232.749 234.024 232.803Z" fill="white"/>
<path d="M260.918 224.397C260.774 224.296 260.386 224.101 260.207 224.031C259.385 223.711 258.462 223.661 257.462 223.903C257.282 223.945 256.873 224.079 256.684 224.153C255.104 224.771 253.686 226.015 252.755 227.593C252.633 227.801 252.335 228.369 252.255 228.568C251.826 229.636 251.671 230.661 251.786 231.621C251.935 232.875 252.544 233.878 253.536 234.466C254.18 234.848 255.019 235.026 255.874 234.968C258.02 234.823 260.224 233.306 261.515 231.109C261.625 230.924 261.906 230.383 261.975 230.213C262.412 229.145 262.571 228.117 262.472 227.173C262.341 225.965 261.817 225.024 260.918 224.397Z" fill="white"/>
<path d="M192.785 308.87C192.529 308.934 192.38 308.99 192.179 309.067C191.397 309.368 190.722 309.877 190.146 310.582C189.91 310.87 189.689 311.206 189.466 311.59C189.244 311.973 189.028 312.393 188.812 312.881C188.585 313.395 188.412 313.821 187.963 314.985C187.381 316.49 187.063 317.224 186.658 318.01C186.365 318.58 186.073 319.07 185.698 319.607C184.872 320.79 184.311 322.02 184.022 323.289C183.774 324.382 183.738 325.418 183.92 326.427C183.952 326.609 184.064 327.06 184.12 327.23C184.474 328.328 185.065 329.232 185.92 329.924C186.612 330.484 187.486 330.902 188.275 331.047C189.431 331.259 190.585 331.038 192.066 330.346C192.525 330.132 193.097 329.838 193.994 329.332C195.269 328.615 195.985 328.264 196.67 328.01C197.649 327.645 198.768 327.455 200.17 327.427C200.595 327.418 200.985 327.416 201.897 327.44C202.958 327.467 203.366 327.477 203.868 327.452C204.21 327.434 204.605 327.384 204.862 327.34C204.931 327.329 205.006 327.318 205.024 327.316C205.041 327.313 205.245 327.277 205.473 327.219C205.917 327.106 206.007 327.065 206.302 326.936C207.189 326.549 207.989 325.881 208.612 325.002C208.706 324.871 208.938 324.485 209.011 324.338C209.457 323.453 209.649 322.494 209.569 321.501C209.542 321.153 209.501 320.914 209.409 320.548C209.342 320.276 209.282 320.111 209.198 319.884C208.709 318.56 207.805 317.341 206.519 316.296C205.902 315.795 205.223 315.355 204.427 314.94C203.642 314.53 203.076 314.164 202.396 313.647C201.759 313.161 201.261 312.725 200.251 311.771C199.405 310.972 199.089 310.67 198.727 310.366C197.712 309.518 196.827 309.033 195.88 308.802C194.95 308.574 193.893 308.595 192.785 308.87Z" fill="white"/>
<path d="M189.708 301.721C189.098 300.229 188.104 299.001 186.883 298.214C186.195 297.772 185.433 297.498 184.706 297.444C183.94 297.387 183.189 297.567 182.563 297.963C182.193 298.198 181.895 298.478 181.611 298.856C181.525 298.973 181.279 299.382 181.212 299.52C180.759 300.463 180.606 301.609 180.75 302.808C180.793 303.161 180.814 303.249 180.932 303.724C181.053 304.21 181.083 304.346 181.222 304.705C181.997 306.706 183.495 308.278 185.189 308.871C185.87 309.111 186.551 309.17 187.203 309.056C187.334 309.033 187.606 308.955 187.731 308.91C188.165 308.754 188.574 308.517 188.913 308.203C189.022 308.102 189.204 307.888 189.294 307.773C190.114 306.725 190.435 305.184 190.195 303.552C190.106 302.949 189.943 302.295 189.708 301.721Z" fill="white"/>
<path d="M207.69 301.099C207.47 301.108 207.325 301.12 207.085 301.173C206.427 301.321 205.839 301.648 205.263 302.131C204.809 302.513 204.449 302.909 204.11 303.44C204.009 303.597 203.917 303.738 203.83 303.906C203.218 305.083 202.935 306.517 203.066 307.82C203.229 309.455 204.001 310.798 205.138 311.482C205.806 311.883 206.586 312.038 207.367 311.919C207.415 311.911 207.583 311.867 207.74 311.825C208.045 311.745 208.147 311.715 208.386 311.604C209.234 311.209 210.015 310.484 210.571 309.594C210.857 309.135 211.064 308.731 211.239 308.238C211.65 307.081 211.748 305.889 211.539 304.731C211.503 304.528 211.364 304.004 211.3 303.829C210.926 302.809 210.344 302.06 209.568 301.592C209.229 301.388 208.942 301.269 208.566 301.186C208.265 301.119 207.997 301.085 207.69 301.099Z" fill="white"/>
<path d="M182.196 318.161C182.415 318.074 182.558 318.018 182.741 317.903C184.076 317.067 184.65 315.387 184.249 313.485C184.002 312.314 183.394 311.171 182.528 310.253C181.297 308.949 179.646 308.234 178.204 308.386C177.828 308.426 177.449 308.524 177.13 308.669C176.47 308.97 175.956 309.459 175.611 310.1C175.402 310.484 175.247 310.919 175.17 311.4C175.113 311.77 175.096 312.256 175.137 312.674C175.169 312.987 175.191 313.074 175.298 313.503C175.408 313.942 175.441 314.031 175.571 314.35C176.193 315.881 177.39 317.212 178.788 317.896C179.71 318.347 180.653 318.497 181.541 318.354C181.694 318.329 182.047 318.219 182.196 318.161Z" fill="white"/>
<path d="M196.908 294.13C196.734 294.149 196.313 294.258 196.133 294.323C195.303 294.622 194.575 295.193 193.981 296.033C193.874 296.183 193.654 296.553 193.56 296.733C192.777 298.238 192.529 300.109 192.867 301.909C192.912 302.146 193.062 302.77 193.132 302.973C193.512 304.058 194.071 304.932 194.789 305.579C195.726 306.425 196.845 306.779 197.979 306.57C198.716 306.433 199.464 306.015 200.069 305.408C201.59 303.887 202.25 301.294 201.776 298.79C201.737 298.578 201.592 297.985 201.533 297.813C201.159 296.721 200.602 295.842 199.905 295.197C199.012 294.373 197.998 294.01 196.908 294.13Z" fill="white"/>
<path d="M191.651 390.814C191.409 390.919 191.271 390.999 191.086 391.108C190.364 391.535 189.782 392.147 189.33 392.938C189.145 393.261 188.983 393.629 188.827 394.045C188.67 394.46 188.527 394.909 188.395 395.426C188.256 395.97 188.156 396.419 187.905 397.641C187.58 399.221 187.387 399.998 187.117 400.841C186.922 401.45 186.715 401.982 186.434 402.574C185.815 403.876 185.465 405.183 185.389 406.482C185.325 407.601 185.461 408.628 185.806 409.594C185.868 409.768 186.053 410.194 186.137 410.353C186.667 411.377 187.399 412.171 188.357 412.713C189.131 413.151 190.063 413.419 190.864 413.431C192.04 413.449 193.142 413.041 194.488 412.114C194.905 411.827 195.421 411.442 196.222 410.795C197.361 409.877 198.009 409.413 198.643 409.049C199.549 408.528 200.621 408.155 201.999 407.897C202.416 407.817 202.801 407.751 203.704 407.624C204.755 407.476 205.159 407.418 205.65 407.311C205.985 407.236 206.365 407.121 206.612 407.036C206.678 407.013 206.75 406.99 206.768 406.986C206.784 406.98 206.979 406.911 207.194 406.815C207.614 406.631 207.696 406.575 207.965 406.4C208.777 405.871 209.455 405.081 209.924 404.111C209.996 403.966 210.161 403.547 210.208 403.39C210.502 402.444 210.533 401.466 210.29 400.5C210.206 400.161 210.126 399.933 209.975 399.586C209.864 399.329 209.777 399.177 209.657 398.966C208.956 397.742 207.863 396.688 206.423 395.87C205.731 395.477 204.989 395.156 204.136 394.878C203.293 394.604 202.674 394.336 201.918 393.938C201.21 393.564 200.647 393.216 199.493 392.442C198.526 391.793 198.166 391.549 197.758 391.308C196.617 390.64 195.664 390.308 194.692 390.235C193.737 390.164 192.698 390.36 191.651 390.814Z" fill="white"/>
<path d="M187.435 384.271C186.587 382.9 185.404 381.853 184.07 381.279C183.318 380.956 182.521 380.812 181.796 380.879C181.031 380.949 180.32 381.251 179.768 381.745C179.442 382.037 179.194 382.363 178.976 382.783C178.911 382.912 178.736 383.356 178.693 383.503C178.402 384.508 178.44 385.663 178.779 386.823C178.88 387.163 178.916 387.247 179.11 387.695C179.31 388.155 179.362 388.284 179.558 388.615C180.654 390.461 182.39 391.764 184.16 392.069C184.87 392.193 185.552 392.139 186.176 391.919C186.301 391.875 186.556 391.753 186.672 391.688C187.075 391.462 187.44 391.162 187.721 390.795C187.812 390.678 187.956 390.436 188.026 390.308C188.662 389.139 188.724 387.567 188.218 385.997C188.031 385.417 187.761 384.798 187.435 384.271Z" fill="white"/>
<path d="M205.068 380.688C204.852 380.734 204.712 380.769 204.483 380.861C203.859 381.115 203.333 381.535 202.845 382.107C202.46 382.558 202.17 383.009 201.923 383.588C201.85 383.76 201.783 383.914 201.724 384.094C201.315 385.356 201.272 386.817 201.617 388.08C202.048 389.666 203.031 390.863 204.266 391.35C204.991 391.635 205.785 391.659 206.536 391.413C206.582 391.398 206.74 391.326 206.889 391.259C207.176 391.13 207.272 391.083 207.489 390.934C208.26 390.405 208.91 389.56 209.312 388.591C209.519 388.091 209.656 387.658 209.747 387.143C209.961 385.934 209.861 384.742 209.464 383.635C209.395 383.44 209.171 382.947 209.079 382.785C208.542 381.841 207.844 381.198 207.001 380.864C206.633 380.72 206.33 380.649 205.946 380.629C205.638 380.613 205.368 380.623 205.068 380.688Z" fill="white"/>
<path d="M182.741 401.726C182.943 401.604 183.074 401.525 183.236 401.382C184.415 400.337 184.703 398.585 183.994 396.775C183.557 395.661 182.768 394.634 181.762 393.872C180.334 392.789 178.587 392.356 177.19 392.744C176.826 392.846 176.468 393.005 176.177 393.201C175.576 393.606 175.15 394.174 174.915 394.863C174.773 395.277 174.691 395.731 174.696 396.217C174.7 396.592 174.764 397.075 174.873 397.48C174.956 397.783 174.992 397.866 175.169 398.271C175.35 398.686 175.397 398.769 175.578 399.061C176.444 400.468 177.845 401.583 179.337 402.027C180.321 402.32 181.275 402.312 182.127 402.025C182.274 401.975 182.604 401.808 182.741 401.726Z" fill="white"/>
<path d="M193.283 375.595C193.114 375.643 192.718 375.819 192.55 375.913C191.781 376.346 191.158 377.029 190.71 377.955C190.63 378.121 190.474 378.523 190.411 378.715C189.887 380.33 189.951 382.215 190.582 383.935C190.666 384.162 190.916 384.752 191.019 384.94C191.573 385.948 192.269 386.718 193.084 387.237C194.148 387.917 195.31 388.081 196.394 387.687C197.097 387.431 197.766 386.895 198.263 386.196C199.512 384.445 199.735 381.778 198.854 379.387C198.78 379.185 198.54 378.624 198.452 378.464C197.903 377.449 197.209 376.674 196.416 376.153C195.399 375.488 194.338 375.297 193.283 375.595Z" fill="white"/>
<path d="M149.033 471.306C148.78 471.229 148.624 471.201 148.412 471.164C147.585 471.021 146.745 471.111 145.889 471.421C145.539 471.547 145.177 471.723 144.788 471.938C144.401 472.153 144 472.403 143.564 472.711C143.107 473.035 142.739 473.313 141.756 474.081C140.485 475.074 139.835 475.54 139.084 476.008C138.54 476.346 138.038 476.617 137.441 476.886C136.126 477.478 135.012 478.246 134.113 479.187C133.34 479.998 132.778 480.869 132.416 481.828C132.35 482.001 132.215 482.445 132.175 482.62C131.917 483.744 131.96 484.823 132.338 485.856C132.645 486.692 133.181 487.499 133.784 488.028C134.668 488.803 135.772 489.205 137.397 489.371C137.902 489.423 138.543 489.464 139.573 489.49C141.035 489.528 141.83 489.595 142.548 489.728C143.576 489.917 144.634 490.328 145.852 491.023C146.221 491.233 146.557 491.432 147.328 491.92C148.224 492.488 148.569 492.706 149.013 492.942C149.316 493.102 149.68 493.261 149.924 493.356C149.989 493.381 150.059 493.41 150.075 493.418C150.091 493.424 150.285 493.498 150.51 493.565C150.949 493.696 151.048 493.707 151.367 493.748C152.327 493.87 153.356 493.708 154.342 493.273C154.49 493.209 154.887 492.996 155.025 492.907C155.862 492.377 156.519 491.652 156.96 490.758C157.115 490.446 157.202 490.22 157.312 489.859C157.393 489.59 157.426 489.418 157.471 489.18C157.73 487.793 157.58 486.282 157.012 484.726C156.74 483.979 156.382 483.253 155.912 482.489C155.448 481.734 155.15 481.129 154.832 480.336C154.534 479.593 154.331 478.963 153.953 477.625C153.637 476.505 153.52 476.085 153.365 475.638C152.929 474.39 152.418 473.519 151.725 472.835C151.043 472.162 150.124 471.638 149.033 471.306Z" fill="white"/>
<path d="M150.059 463.59C150.301 461.997 150.077 460.433 149.433 459.13C149.07 458.398 148.555 457.772 147.96 457.353C147.331 456.911 146.594 456.681 145.854 456.699C145.416 456.711 145.016 456.799 144.578 456.977C144.445 457.033 144.024 457.258 143.896 457.342C143.023 457.92 142.304 458.825 141.812 459.928C141.668 460.252 141.64 460.339 141.498 460.807C141.353 461.287 141.309 461.418 141.244 461.798C140.883 463.914 141.362 466.031 142.512 467.41C142.973 467.965 143.528 468.365 144.146 468.602C144.269 468.649 144.543 468.721 144.673 468.747C145.126 468.836 145.599 468.843 146.051 468.746C146.196 468.716 146.463 468.625 146.599 468.573C147.841 468.094 148.906 466.936 149.537 465.412C149.77 464.849 149.966 464.203 150.059 463.59Z" fill="white"/>
<path d="M165.814 472.282C165.62 472.177 165.49 472.112 165.256 472.035C164.616 471.824 163.943 471.803 163.201 471.922C162.616 472.017 162.103 472.172 161.539 472.454C161.372 472.538 161.221 472.611 161.059 472.711C159.931 473.407 158.952 474.493 158.396 475.678C157.698 477.165 157.671 478.714 158.296 479.885C158.664 480.572 159.254 481.105 159.986 481.403C160.03 481.422 160.197 481.469 160.354 481.515C160.657 481.603 160.76 481.628 161.021 481.656C161.952 481.752 162.994 481.53 163.928 481.052C164.41 480.804 164.794 480.564 165.198 480.23C166.144 479.448 166.839 478.475 167.254 477.374C167.328 477.181 167.477 476.66 167.512 476.477C167.714 475.41 167.599 474.468 167.172 473.668C166.986 473.32 166.801 473.069 166.52 472.806C166.297 472.594 166.084 472.427 165.814 472.282Z" fill="white"/>
<path d="M135.177 473.848C135.409 473.886 135.56 473.911 135.777 473.906C137.351 473.874 138.706 472.726 139.338 470.887C139.727 469.755 139.791 468.462 139.519 467.23C139.131 465.48 138.081 464.019 136.765 463.409C136.422 463.252 136.046 463.141 135.698 463.102C134.977 463.021 134.285 463.178 133.659 463.551C133.283 463.774 132.927 464.067 132.615 464.44C132.375 464.729 132.112 465.137 131.933 465.517C131.8 465.802 131.773 465.888 131.646 466.311C131.514 466.744 131.497 466.838 131.445 467.179C131.193 468.811 131.539 470.568 132.388 471.873C132.948 472.733 133.68 473.345 134.515 473.678C134.66 473.736 135.019 473.822 135.177 473.848Z" fill="white"/>
<path d="M160.134 460.768C159.974 460.695 159.558 460.573 159.369 460.536C158.503 460.367 157.586 460.484 156.645 460.9C156.476 460.974 156.097 461.179 155.925 461.285C154.48 462.176 153.308 463.654 152.674 465.372C152.591 465.599 152.399 466.211 152.356 466.421C152.125 467.548 152.156 468.585 152.441 469.509C152.811 470.716 153.59 471.593 154.671 471.996C155.373 472.256 156.23 472.281 157.061 472.071C159.147 471.545 161.044 469.658 161.922 467.265C161.996 467.064 162.177 466.481 162.214 466.302C162.453 465.173 162.426 464.133 162.159 463.222C161.815 462.057 161.131 461.224 160.134 460.768Z" fill="white"/>
<path d="M204.112 519.78C203.877 519.659 203.728 519.603 203.526 519.529C202.739 519.241 201.896 519.179 200.998 519.33C200.631 519.392 200.244 519.5 199.823 519.643C199.403 519.785 198.964 519.959 198.48 520.184C197.972 520.421 197.561 520.629 196.456 521.209C195.028 521.959 194.305 522.302 193.482 522.627C192.887 522.863 192.345 523.04 191.709 523.197C190.309 523.544 189.076 524.101 188.023 524.866C187.117 525.525 186.409 526.282 185.881 527.161C185.785 527.319 185.573 527.732 185.503 527.898C185.047 528.957 184.897 530.027 185.085 531.111C185.237 531.987 185.62 532.878 186.119 533.505C186.849 534.426 187.864 535.02 189.434 535.473C189.92 535.615 190.545 535.77 191.553 535.979C192.985 536.278 193.754 536.486 194.438 536.745C195.415 537.116 196.383 537.708 197.456 538.611C197.782 538.883 198.077 539.138 198.748 539.757C199.528 540.476 199.829 540.752 200.224 541.063C200.493 541.275 200.823 541.497 201.046 541.634C201.105 541.67 201.169 541.711 201.183 541.722C201.198 541.731 201.375 541.838 201.585 541.944C201.994 542.151 202.089 542.18 202.395 542.277C203.319 542.569 204.36 542.593 205.407 542.342C205.565 542.305 205.994 542.167 206.145 542.105C207.063 541.732 207.839 541.136 208.433 540.336C208.641 540.056 208.767 539.849 208.94 539.514C209.068 539.264 209.131 539.101 209.218 538.874C209.721 537.556 209.843 536.042 209.563 534.41C209.428 533.627 209.206 532.848 208.88 532.012C208.559 531.187 208.374 530.538 208.202 529.701C208.043 528.917 207.955 528.26 207.822 526.877C207.712 525.719 207.672 525.284 207.6 524.816C207.393 523.51 207.047 522.563 206.487 521.766C205.936 520.981 205.126 520.301 204.112 519.78Z" fill="white"/>
<path d="M206.501 512.372C207.024 510.847 207.083 509.268 206.682 507.872C206.456 507.086 206.062 506.379 205.551 505.86C205.011 505.313 204.327 504.954 203.595 504.84C203.163 504.773 202.754 504.788 202.291 504.886C202.149 504.917 201.695 505.062 201.554 505.122C200.592 505.535 199.723 506.296 199.041 507.294C198.842 507.587 198.799 507.668 198.576 508.103C198.347 508.549 198.28 508.671 198.148 509.032C197.415 511.049 197.508 513.218 198.393 514.781C198.747 515.409 199.222 515.902 199.787 516.246C199.9 516.314 200.156 516.434 200.28 516.483C200.71 516.651 201.174 516.742 201.635 516.728C201.784 516.724 202.062 516.682 202.206 516.655C203.513 516.407 204.768 515.457 205.662 514.071C205.992 513.559 206.3 512.958 206.501 512.372Z" fill="white"/>
<path d="M220.448 523.74C220.276 523.602 220.159 523.516 219.943 523.397C219.351 523.076 218.693 522.935 217.941 522.919C217.348 522.908 216.816 522.969 216.211 523.146C216.032 523.198 215.87 523.243 215.693 523.312C214.458 523.795 213.301 524.689 212.542 525.755C211.589 527.094 211.286 528.613 211.692 529.877C211.931 530.618 212.416 531.248 213.082 531.673C213.123 531.699 213.279 531.775 213.425 531.848C213.707 531.989 213.804 532.032 214.056 532.106C214.955 532.368 216.02 532.335 217.024 532.032C217.542 531.874 217.964 531.706 218.42 531.45C219.491 530.85 220.349 530.017 220.955 529.008C221.061 528.831 221.301 528.346 221.368 528.172C221.758 527.158 221.813 526.211 221.536 525.347C221.415 524.971 221.278 524.691 221.049 524.382C220.867 524.134 220.688 523.931 220.448 523.74Z" fill="white"/>
<path d="M190.024 519.803C190.246 519.882 190.39 519.934 190.604 519.968C192.159 520.218 193.697 519.331 194.648 517.634C195.233 516.59 195.527 515.33 195.479 514.069C195.411 512.277 194.639 510.652 193.453 509.817C193.144 509.6 192.794 509.424 192.458 509.323C191.763 509.115 191.054 509.145 190.373 509.401C189.963 509.553 189.56 509.777 189.186 510.089C188.899 510.33 188.566 510.685 188.322 511.027C188.14 511.283 188.099 511.363 187.898 511.757C187.691 512.159 187.657 512.249 187.545 512.574C187.006 514.135 187.031 515.926 187.633 517.361C188.03 518.308 188.642 519.041 189.404 519.518C189.536 519.6 189.874 519.749 190.024 519.803Z" fill="white"/>
<path d="M216.918 511.397C216.774 511.296 216.386 511.101 216.207 511.031C215.385 510.711 214.462 510.661 213.462 510.903C213.282 510.945 212.873 511.079 212.684 511.153C211.104 511.77 209.686 513.015 208.755 514.593C208.633 514.801 208.335 515.369 208.255 515.568C207.826 516.636 207.671 517.661 207.786 518.621C207.935 519.875 208.544 520.878 209.536 521.466C210.18 521.848 211.019 522.026 211.874 521.968C214.02 521.823 216.224 520.306 217.515 518.109C217.625 517.924 217.906 517.383 217.975 517.213C218.412 516.145 218.571 515.117 218.472 514.173C218.341 512.965 217.817 512.024 216.918 511.397Z" fill="white"/>
<path d="M146.452 585.27C146.212 585.161 146.061 585.113 145.855 585.049C145.054 584.801 144.209 584.781 143.32 584.978C142.957 585.058 142.575 585.185 142.162 585.349C141.75 585.511 141.321 585.708 140.848 585.957C140.353 586.219 139.952 586.447 138.879 587.082C137.49 587.903 136.785 588.281 135.98 588.648C135.397 588.913 134.864 589.117 134.237 589.307C132.857 589.723 131.653 590.342 130.64 591.159C129.768 591.863 129.099 592.654 128.616 593.558C128.528 593.721 128.337 594.144 128.275 594.313C127.873 595.394 127.777 596.47 128.019 597.543C128.215 598.411 128.642 599.281 129.172 599.883C129.948 600.766 130.991 601.307 132.582 601.681C133.075 601.798 133.706 601.922 134.724 602.08C136.169 602.307 136.948 602.475 137.644 602.7C138.638 603.021 139.635 603.565 140.752 604.412C141.091 604.667 141.399 604.908 142.1 605.491C142.915 606.17 143.23 606.431 143.639 606.722C143.919 606.92 144.26 607.125 144.489 607.25C144.55 607.284 144.616 607.322 144.63 607.332C144.646 607.34 144.828 607.438 145.043 607.533C145.462 607.72 145.558 607.743 145.869 607.825C146.806 608.071 147.847 608.042 148.881 607.739C149.036 607.694 149.457 607.535 149.605 607.464C150.503 607.046 151.249 606.412 151.801 605.583C151.995 605.293 152.111 605.08 152.266 604.736C152.382 604.481 152.437 604.314 152.512 604.084C152.948 602.742 152.994 601.224 152.632 599.608C152.458 598.832 152.197 598.066 151.83 597.248C151.467 596.439 151.25 595.801 151.037 594.974C150.838 594.198 150.717 593.547 150.515 592.172C150.346 591.02 150.285 590.589 150.19 590.125C149.918 588.831 149.524 587.902 148.924 587.134C148.335 586.378 147.492 585.74 146.452 585.27Z" fill="white"/>
<path d="M148.466 577.751C148.912 576.203 148.892 574.623 148.422 573.248C148.156 572.475 147.727 571.788 147.19 571.296C146.624 570.776 145.922 570.452 145.186 570.375C144.75 570.33 144.343 570.365 143.885 570.486C143.746 570.524 143.299 570.693 143.162 570.76C142.221 571.22 141.392 572.024 140.761 573.054C140.576 573.358 140.538 573.44 140.337 573.886C140.131 574.343 140.07 574.468 139.956 574.836C139.325 576.887 139.527 579.049 140.49 580.565C140.875 581.174 141.374 581.643 141.956 581.958C142.072 582.02 142.334 582.127 142.46 582.17C142.898 582.316 143.366 582.384 143.826 582.347C143.974 582.335 144.25 582.28 144.392 582.245C145.685 581.931 146.891 580.92 147.714 579.49C148.018 578.962 148.295 578.347 148.466 577.751Z" fill="white"/>
<path d="M162.967 588.404C162.788 588.275 162.668 588.195 162.445 588.087C161.838 587.796 161.174 587.688 160.422 587.711C159.83 587.729 159.301 587.817 158.706 588.024C158.53 588.085 158.37 588.138 158.197 588.216C156.988 588.761 155.877 589.711 155.173 590.815C154.288 592.199 154.061 593.732 154.531 594.973C154.806 595.702 155.323 596.306 156.01 596.697C156.052 596.721 156.211 596.79 156.36 596.855C156.649 596.981 156.748 597.02 157.004 597.081C157.915 597.297 158.977 597.211 159.964 596.858C160.474 596.675 160.886 596.486 161.33 596.207C162.369 595.553 163.184 594.679 163.738 593.64C163.835 593.458 164.051 592.961 164.109 592.784C164.447 591.752 164.454 590.803 164.135 589.955C163.995 589.585 163.844 589.313 163.6 589.015C163.406 588.777 163.216 588.583 162.967 588.404Z" fill="white"/>
<path d="M132.384 586.001C132.61 586.069 132.756 586.114 132.972 586.137C134.537 586.308 136.029 585.345 136.893 583.603C137.425 582.531 137.655 581.257 137.544 580C137.386 578.214 136.534 576.63 135.307 575.855C134.987 575.655 134.629 575.496 134.288 575.412C133.584 575.239 132.877 575.305 132.209 575.595C131.808 575.767 131.416 576.012 131.059 576.342C130.784 576.597 130.469 576.968 130.243 577.322C130.074 577.587 130.037 577.669 129.856 578.072C129.67 578.485 129.641 578.575 129.545 578.906C129.085 580.492 129.2 582.279 129.873 583.683C130.318 584.608 130.965 585.31 131.75 585.748C131.886 585.823 132.231 585.955 132.384 586.001Z" fill="white"/>
<path d="M158.822 576.254C158.673 576.161 158.275 575.986 158.093 575.925C157.256 575.646 156.332 575.643 155.345 575.934C155.168 575.986 154.765 576.14 154.581 576.223C153.033 576.92 151.68 578.234 150.83 579.856C150.718 580.07 150.449 580.653 150.379 580.855C150.004 581.943 149.901 582.975 150.064 583.928C150.276 585.173 150.935 586.144 151.955 586.682C152.617 587.031 153.464 587.166 154.315 587.065C156.451 586.813 158.576 585.187 159.755 582.928C159.855 582.737 160.109 582.183 160.169 582.01C160.552 580.922 160.66 579.887 160.513 578.949C160.322 577.749 159.751 576.835 158.822 576.254Z" fill="white"/>
<defs>
<linearGradient id="paint0_linear_238_10511" x1="38.0859" y1="1027.69" x2="-403.186" y2="749.353" gradientUnits="userSpaceOnUse">
<stop offset="0.298343" stop-color="#4552CB"/>
<stop offset="1" stop-color="#4596EA"/>
</linearGradient>
</defs>
</svg>
