<svg width="24" height="24" viewBox="0 0 24 24" fill="none" xmlns="http://www.w3.org/2000/svg">
<path d="M17.8571 7.24524C17.8559 7.23016 17.8514 7.21605 17.8489 7.20106C17.8453 7.17667 17.8423 7.15209 17.836 7.12848C17.8306 7.1098 17.8225 7.09252 17.8154 7.07448C17.8081 7.0548 17.802 7.03473 17.7922 7.01588C17.7816 6.99467 17.7679 6.97576 17.755 6.95635C17.7457 6.94233 17.7384 6.92711 17.728 6.91383C17.7029 6.88179 17.6748 6.85206 17.6442 6.82537C17.6434 6.82459 17.6429 6.82386 17.6421 6.82308C17.6337 6.81588 17.6243 6.81103 17.6155 6.80439C17.5924 6.78631 17.5693 6.76854 17.5439 6.75386C17.53 6.74566 17.5149 6.7401 17.5004 6.73307C17.4782 6.72243 17.4561 6.71118 17.4325 6.70314C17.4164 6.69772 17.4003 6.6945 17.384 6.69031C17.361 6.68427 17.3384 6.67798 17.3142 6.67459C17.2951 6.67179 17.2761 6.67186 17.2567 6.6709C17.2389 6.66991 17.2214 6.66677 17.203 6.66757L13.6801 6.77595C13.3314 6.78667 13.0586 7.07398 13.0716 7.41807C13.0843 7.7624 13.3789 8.03306 13.7269 8.02157L15.7897 7.95827L14.0024 9.96838C13.4615 9.6101 12.841 9.35172 12.161 9.22947C9.52177 8.75501 6.99521 10.4825 6.52821 13.0803C6.06121 15.678 7.82819 18.1774 10.4671 18.6518C13.106 19.1262 15.6328 17.3987 16.0998 14.801C16.3676 13.3116 15.8985 11.8566 14.9544 10.7948L16.7131 8.81662L16.8631 10.72C16.8859 11.0095 17.1058 11.2382 17.3832 11.2881C17.4346 11.2974 17.4881 11.3003 17.5428 11.2965C17.8908 11.2718 18.1515 10.9734 18.1245 10.63L17.8571 7.24524ZM14.8544 14.5768C14.5089 16.4987 12.6396 17.7764 10.6876 17.4254C8.73555 17.0745 7.42832 15.2254 7.77376 13.3039C8.11921 11.3823 9.98861 10.1043 11.9406 10.4552C13.8926 10.8061 15.1999 12.6549 14.8544 14.5768Z" fill="white"/>
</svg>
