<svg width="16" height="16" viewBox="0 0 16 16" fill="none" xmlns="http://www.w3.org/2000/svg">
<path d="M11.0033 2.92004C10.2433 2.24004 9.17664 1.8667 8.01664 1.8667C6.85664 1.8667 5.78997 2.24004 5.02997 2.92004C4.10997 3.7467 3.61663 4.9867 3.61663 6.52004C3.61663 9.8667 7.46998 13.8 7.64331 13.96C7.74998 14.0667 7.8833 14.12 8.01664 14.12C8.14997 14.12 8.29664 14.0667 8.38998 13.96C8.54998 13.8 12.4166 9.8667 12.4166 6.52004C12.4033 4.9867 11.9233 3.7467 11.0033 2.92004ZM8.00331 12.8134C7.64331 12.4134 7.06998 11.7467 6.50998 10.9467C5.30998 9.24003 4.66997 7.72003 4.66997 6.53337C4.66997 3.20003 7.21664 2.93337 8.00331 2.93337C11.0966 2.93337 11.3366 5.69337 11.3366 6.53337C11.3366 8.88003 8.94997 11.7734 8.00331 12.8134ZM8.00331 4.17336C6.82997 4.17336 5.8833 5.1467 5.8833 6.33337C5.8833 7.52003 6.82997 8.49337 8.00331 8.49337C9.17664 8.49337 10.1233 7.52003 10.1233 6.33337C10.1233 5.13337 9.17664 4.17336 8.00331 4.17336ZM8.00331 7.5467C7.34997 7.5467 6.81664 7.00004 6.81664 6.32004C6.81664 5.64004 7.34997 5.09337 8.00331 5.09337C8.65664 5.09337 9.18998 5.64004 9.18998 6.32004C9.18998 7.00004 8.65664 7.5467 8.00331 7.5467Z" fill="#070821"/>
</svg>
