<svg width="26" height="32" viewBox="0 0 26 32" fill="none" xmlns="http://www.w3.org/2000/svg">
<path d="M19.4351 4.0052L15.8373 4C11.7953 4 9.18317 6.41487 9.18317 10.1525V12.9893H5.56572C5.25313 12.9893 5 13.2176 5 13.4993V17.6094C5 17.8911 5.25342 18.1191 5.56572 18.1191H9.18317V28.4902C9.18317 28.7719 9.4363 29 9.74889 29H14.4686C14.7812 29 15.0343 28.7716 15.0343 28.4902V18.1191H19.264C19.5766 18.1191 19.8297 17.8911 19.8297 17.6094L19.8314 13.4993C19.8314 13.364 19.7717 13.2345 19.6658 13.1388C19.5598 13.0431 19.4155 12.9893 19.2654 12.9893H15.0343V10.5845C15.0343 9.42872 15.34 8.84197 17.0109 8.84197L19.4346 8.84119C19.7469 8.84119 20 8.61284 20 8.33143V4.51497C20 4.23382 19.7472 4.00572 19.4351 4.0052Z" fill="white"/>
</svg>
