<svg width="40" height="40" viewBox="0 0 40 40" fill="none" xmlns="http://www.w3.org/2000/svg">
<path d="M22.6504 16.3822C22.4897 16.2211 22.3823 16.1358 22.2358 16.022C21.6659 15.5776 20.9907 15.3045 20.2138 15.1918C19.8963 15.1456 19.55 15.1321 19.1671 15.1378C18.7849 15.1434 18.3792 15.1708 17.9223 15.2277C17.4427 15.2882 17.0505 15.35 15.9913 15.5346C14.6214 15.7731 13.9376 15.8638 13.1764 15.9139C12.6256 15.9502 12.1339 15.9523 11.5707 15.9139C10.3302 15.829 9.17146 15.9609 8.10552 16.3107C7.18819 16.6126 6.40705 17.0464 5.74217 17.6284C5.62163 17.7333 5.33861 18.0159 5.23728 18.1333C4.58378 18.8824 4.17809 19.7205 4.04618 20.6595C3.93987 21.4193 4.01916 22.2509 4.26272 22.8977C4.61933 23.8463 5.29524 24.6008 6.46393 25.3872C6.82589 25.6319 7.29735 25.9238 8.06961 26.3615C9.16577 26.9851 9.74248 27.3584 10.2349 27.7517C10.9389 28.3134 11.5768 29.0555 12.2196 30.0791C12.4152 30.3888 12.5897 30.6761 12.9773 31.3605C13.4278 32.1562 13.602 32.4624 13.8434 32.8222C14.0087 33.0668 14.221 33.336 14.3675 33.507C14.4066 33.5528 14.4478 33.6033 14.4567 33.6158C14.4667 33.6268 14.584 33.7619 14.7284 33.9041C15.0089 34.1822 15.0793 34.2305 15.3051 34.3912C15.9856 34.8748 16.8336 35.1692 17.7598 35.2392C17.8985 35.2506 18.2871 35.2506 18.4279 35.2392C19.2794 35.1756 20.0737 34.8918 20.772 34.3912C21.0167 34.217 21.1749 34.0805 21.4049 33.8504C21.5759 33.6798 21.6709 33.5621 21.8017 33.3989C22.5626 32.4503 23.0621 31.2403 23.263 29.8267C23.3594 29.1483 23.3825 28.451 23.3356 27.6791C23.2897 26.9168 23.3089 26.3359 23.3893 25.6038C23.4653 24.9176 23.5667 24.3558 23.8227 23.1857C24.0374 22.2058 24.1199 21.8392 24.1839 21.436C24.3592 20.3096 24.3247 19.4406 24.0755 18.6385C23.8305 17.8496 23.3455 17.078 22.6504 16.3822Z" fill="#FFC4CD"/>
<path d="M26.566 10.9334C27.3973 9.82054 27.8631 8.54056 27.9026 7.28866C27.9239 6.58431 27.7874 5.89952 27.5047 5.33917C27.2064 4.74753 26.7395 4.27252 26.1692 3.98594C25.8318 3.8167 25.4923 3.72105 25.0866 3.6791C24.9625 3.66737 24.5511 3.66701 24.4196 3.6791C23.5211 3.76337 22.607 4.15909 21.7846 4.79766C21.5432 4.98611 21.4873 5.04086 21.189 5.33881C20.8836 5.64459 20.7965 5.72672 20.5928 5.98876C19.4586 7.45043 18.9626 9.25486 19.2765 10.7706C19.4017 11.3796 19.6609 11.9094 20.0342 12.3407C20.1089 12.4267 20.2877 12.5928 20.3762 12.6653C20.6845 12.9167 21.0411 13.1144 21.4237 13.2246C21.5467 13.2605 21.786 13.2996 21.9108 13.3153C23.0493 13.4561 24.33 13.0084 25.4293 12.1064C25.835 11.7732 26.246 11.3619 26.566 10.9334Z" fill="#FFCF6F"/>
<path d="M35.0112 23.9432C34.9063 23.7846 34.8338 23.6829 34.6873 23.5286C34.2862 23.1083 33.7835 22.8193 33.1709 22.6081C32.6873 22.4424 32.2343 22.3521 31.6914 22.3375C31.5307 22.3329 31.3856 22.3275 31.2224 22.3375C30.0815 22.4079 28.8961 22.8356 27.9919 23.5108C26.8566 24.3577 26.2067 25.5243 26.2067 26.6685C26.2067 27.3401 26.4388 27.9847 26.8737 28.5092C26.9003 28.5415 27.0077 28.6453 27.1083 28.7435C27.3028 28.9333 27.3707 28.9948 27.5585 29.1221C28.2269 29.5737 29.1094 29.8282 30.0136 29.8439C30.4804 29.8517 30.8704 29.825 31.3127 29.7354C32.3499 29.5253 33.274 29.0684 34.037 28.4C34.171 28.283 34.4963 27.9477 34.597 27.8226C35.1843 27.0937 35.4794 26.3307 35.4805 25.5495C35.4805 25.2086 35.4414 24.943 35.3354 24.6287C35.2515 24.3769 35.1577 24.1632 35.0112 23.9432Z" fill="#FFCF6F"/>
<path d="M11.0837 12.6838C11.2448 12.8072 11.3497 12.8879 11.5161 12.9722C12.7264 13.5873 14.2225 13.2655 15.4502 12.1242C16.2058 11.4216 16.78 10.4648 17.0737 9.41738C17.4904 7.92939 17.2859 6.39199 16.5329 5.3936C16.3363 5.1344 16.0959 4.89725 15.8467 4.72588C15.3315 4.37175 14.7416 4.20962 14.1148 4.23913C13.7383 4.25584 13.3482 4.3337 12.9592 4.49086C12.6599 4.61281 12.2933 4.81619 12.0028 5.03236C11.7859 5.19485 11.7312 5.2496 11.462 5.51947C11.1861 5.79537 11.1349 5.85973 10.9571 6.09724C10.1024 7.23607 9.65083 8.71196 9.76603 10.0488C9.84212 10.9306 10.1504 11.6936 10.6499 12.2863C10.7363 12.3884 10.9745 12.5999 11.0837 12.6838Z" fill="#FFCF6F"/>
<path d="M35.3721 12.8824C35.2804 12.7619 35.0134 12.4995 34.885 12.3949C34.2952 11.9149 33.5506 11.6308 32.666 11.5647C32.5074 11.5523 32.1362 11.554 31.962 11.5647C30.5018 11.6547 29.0099 12.3018 27.8298 13.351C27.6744 13.4897 27.2801 13.8772 27.1617 14.0191C26.5281 14.7821 26.1306 15.5832 25.9717 16.4009C25.7626 17.469 25.9984 18.4528 26.6565 19.1977C27.0846 19.6812 27.726 20.0482 28.4431 20.2263C30.2422 20.6739 32.4513 20.0101 34.0907 18.5481C34.2294 18.4251 34.6034 18.0553 34.7044 17.9344C35.3447 17.1735 35.7469 16.3718 35.9143 15.5707C36.1263 14.5449 35.9446 13.6344 35.3721 12.8824Z" fill="#FFCF6F"/>
</svg>
