<svg width="24" height="24" viewBox="0 0 24 24" fill="none" xmlns="http://www.w3.org/2000/svg">
<path d="M13.2876 10.5871L13.2873 10.5868C13.2267 10.526 13.1929 10.4988 13.1177 10.4404L13.1166 10.4395C12.9005 10.2711 12.6346 10.1577 12.2972 10.1088L12.2968 10.1087C12.1667 10.0898 12.0092 10.0821 11.8089 10.0851L13.2876 10.5871ZM13.2876 10.5871C13.6199 10.9197 13.8283 11.2653 13.9286 11.5882L13.9286 11.5884C14.0295 11.9129 14.0566 12.2948 13.9668 12.8722C13.9362 13.0646 13.898 13.239 13.7895 13.7337C13.7819 13.7684 13.7739 13.8048 13.7656 13.8428L13.7655 13.8431C13.615 14.5311 13.5498 14.8867 13.5014 15.3234L13.5013 15.3242C13.4503 15.7881 13.4377 16.1676 13.467 16.6549L13.467 16.6554C13.4916 17.0595 13.4789 17.4128 13.431 17.75C13.3305 18.4575 13.0859 19.0282 12.7409 19.4583L12.7408 19.4585C12.6685 19.5486 12.6346 19.5902 12.566 19.6586L12.5654 19.6592C12.4571 19.7675 12.3969 19.8188 12.2936 19.8923L12.2917 19.8937C12.0004 20.1025 11.672 20.2204 11.313 20.2472L11.3085 20.2475C11.3095 20.2474 11.2969 20.2483 11.267 20.249C11.2402 20.2497 11.2081 20.25 11.1747 20.25C11.1413 20.25 11.1093 20.2497 11.0828 20.249C11.0589 20.2484 11.0465 20.2478 11.0434 20.2476C11.0426 20.2476 11.0424 20.2476 11.0427 20.2476L11.038 20.2472C10.6223 20.2158 10.2643 20.0853 9.99196 19.8918C9.92083 19.8412 9.902 19.8276 9.88033 19.8096C9.8595 19.7924 9.82741 19.7637 9.75099 19.688L9.74939 19.6864C9.70267 19.6404 9.66408 19.5978 9.64092 19.5719C9.6186 19.544 9.59558 19.5168 9.58438 19.5037L9.5833 19.5024C9.51292 19.4202 9.40843 19.2874 9.33176 19.1741C9.21117 18.9943 9.12471 18.8434 8.85996 18.3757L8.85994 18.3757C8.63121 17.9717 8.52368 17.7943 8.4026 17.6025M13.2876 10.5871L3.85427 13.572M10.0843 10.3042L10.0843 10.3042C9.27954 10.4444 8.85274 10.5021 8.37208 10.5338L8.37207 10.5338C8.02142 10.5569 7.70262 10.5584 7.3404 10.5337L7.34016 10.5336C6.7062 10.4902 6.13207 10.5586 5.61563 10.7281C5.16899 10.8751 4.80676 11.0797 4.50455 11.3442L4.50289 11.3457L4.50289 11.3457C4.48857 11.3581 4.44528 11.3989 4.39015 11.4541C4.36487 11.4793 4.34072 11.504 4.32058 11.525C4.31055 11.5355 4.30219 11.5444 4.29563 11.5516L4.28796 11.56C4.28623 11.5619 4.28539 11.5629 4.28531 11.563C4.2853 11.563 4.2853 11.563 4.2853 11.563L4.28288 11.5658L4.28287 11.5658C3.98918 11.9024 3.82381 12.2563 3.76955 12.642L10.0843 10.3042ZM10.0843 10.3042C10.6965 10.1976 10.9095 10.1642 11.1689 10.1315M10.0843 10.3042L11.1689 10.1315M3.85427 13.572L3.85442 13.5724C3.98738 13.9261 4.24589 14.253 4.84794 14.6582L4.84917 14.659C5.03715 14.7861 5.29235 14.9448 5.73039 15.193L5.73146 15.1936C6.3772 15.561 6.7524 15.8006 7.08458 16.0658C7.57492 16.4572 7.99765 16.9578 8.4026 17.6025M3.85427 13.572C3.76237 13.328 3.72317 12.974 3.7695 12.6424L3.85427 13.572ZM8.4026 17.6025C8.40238 17.6022 8.40217 17.6018 8.40195 17.6015L7.7678 18.002L8.40295 17.6031C8.40283 17.6029 8.40271 17.6027 8.4026 17.6025ZM11.1689 10.1315C11.4082 10.1018 11.6161 10.088 11.8088 10.0851L11.1689 10.1315Z" stroke="#4552CB" stroke-width="1.5"/>
<path d="M15.4887 6.44762L15.4887 6.44759C15.8879 5.91307 16.0975 5.31686 16.1152 4.75909C16.1243 4.45611 16.0638 4.1863 15.9644 3.98925L15.9643 3.98912C15.86 3.78227 15.7026 3.62715 15.5229 3.53681C15.4178 3.4841 15.312 3.45174 15.1634 3.43553C15.1601 3.43538 15.1502 3.43489 15.132 3.43443C15.1059 3.43375 15.0734 3.43336 15.0393 3.43335C15.0052 3.43334 14.9725 3.43371 14.9459 3.43438C14.9213 3.435 14.9108 3.43566 14.9108 3.43561C14.5589 3.46948 14.1622 3.63005 13.7768 3.92916C13.7134 3.97868 13.688 4.00006 13.6619 4.02385C13.6296 4.05349 13.5912 4.09141 13.501 4.18154C13.4886 4.19398 13.4769 4.20563 13.4659 4.2166C13.3187 4.36391 13.2967 4.38595 13.217 4.48835C12.6652 5.19968 12.4668 6.02755 12.5957 6.64984L12.5959 6.651C12.6438 6.88401 12.7386 7.07137 12.8649 7.21847C12.8661 7.21978 12.8692 7.223 12.8745 7.22833C12.8842 7.23809 12.8968 7.25037 12.9112 7.26387C12.9254 7.27724 12.9395 7.29021 12.9519 7.30125C12.9651 7.31301 12.9727 7.3194 12.9745 7.32085L12.4991 7.90101M15.4887 6.44762L13.4826 7.53384C13.4607 7.5311 13.4208 7.5252 13.3795 7.51782C13.3594 7.51423 13.342 7.51082 13.3284 7.5079C13.3195 7.50599 13.3149 7.50484 13.3138 7.50458C13.2009 7.47197 13.0832 7.40953 12.9731 7.31976L12.4991 7.90101M15.4887 6.44762C15.3458 6.63886 15.1522 6.83461 14.9545 6.99699L15.4887 6.44762ZM12.4991 7.90101C12.678 8.04682 12.8848 8.16149 13.1067 8.22542L13.3161 3.33736C13.176 3.44667 13.1436 3.47843 12.9706 3.65125C12.9567 3.66515 12.9436 3.67825 12.9312 3.69066C12.7851 3.83672 12.7337 3.88817 12.6247 4.02826C11.9668 4.87611 11.6791 5.92277 11.8612 6.80196C11.9338 7.15525 12.0842 7.46254 12.3007 7.71271C12.3441 7.76262 12.4478 7.85894 12.4991 7.90101Z" stroke="#4552CB" stroke-width="1.5"/>
<path d="M20.3637 14.8583L20.3625 14.8565C20.3158 14.7858 20.3006 14.7654 20.257 14.7194C20.1276 14.584 19.9498 14.4718 19.6768 14.3775C19.4624 14.3042 19.2749 14.2673 19.0423 14.2611L19.0409 14.261L19.0365 14.2609C18.9371 14.258 18.8896 14.2567 18.8361 14.2599L18.7904 13.5113M20.3637 14.8583L18.102 17.1155C17.7003 17.1086 17.3352 16.9942 17.0855 16.8257C17.0443 16.7977 17.0312 16.7872 17.0217 16.779C17.0065 16.7661 16.9858 16.7469 16.9279 16.6905L16.9276 16.6902C16.9204 16.6831 16.9133 16.6763 16.9065 16.6696C16.8842 16.6478 16.8643 16.6285 16.8471 16.6115C16.8414 16.6058 16.8367 16.6011 16.833 16.5974C16.6997 16.43 16.631 16.2309 16.631 16.0235C16.631 15.6477 16.8512 15.1764 17.365 14.7931L17.3653 14.7928C17.7697 14.4908 18.3166 14.292 18.8366 14.2599L18.7904 13.5113M20.3637 14.8583C20.4019 14.9156 20.4304 14.9748 20.4646 15.0775L20.4646 15.0775L20.4655 15.0799C20.4981 15.1769 20.5103 15.249 20.5103 15.3738L20.3637 14.8583ZM18.7904 13.5113C18.1286 13.5522 17.441 13.8003 16.9165 14.1919L19.0624 13.5113C19.056 13.5111 19.0496 13.511 19.0433 13.5108C18.9576 13.5083 18.8785 13.506 18.7904 13.5113ZM19.9288 16.4638C19.5868 16.7634 19.1705 16.9709 18.6939 17.0675L19.9288 16.4638ZM18.6938 17.0675C18.5015 17.1064 18.331 17.1194 18.1022 17.1155L18.6938 17.0675Z" stroke="#4552CB" stroke-width="1.5"/>
<path d="M7.56596 7.31709C7.56596 7.3171 7.56597 7.3171 7.56598 7.31711C7.61624 7.35561 7.63827 7.37227 7.65793 7.38578C7.67188 7.39536 7.68263 7.40188 7.69864 7.40999L7.69961 7.41048C8.04622 7.58663 8.58104 7.54929 9.13111 7.03797L7.56596 7.31709ZM7.56596 7.31709C7.56565 7.31685 7.56488 7.31625 7.56364 7.31526L7.55701 7.3099L7.5362 7.29249C7.51967 7.27842 7.50073 7.2618 7.48193 7.24477C7.4629 7.22752 7.44642 7.21201 7.43413 7.19996C7.42976 7.19568 7.42674 7.19263 7.42489 7.19073C7.24798 6.97771 7.1238 6.68812 7.09193 6.319L7.56596 7.31709ZM8.90248 3.76262L8.90046 3.76272C8.76324 3.7688 8.62149 3.79697 8.47889 3.85445C8.36378 3.90147 8.20767 3.98776 8.09082 4.07457C8.03808 4.1141 8.01973 4.12956 8.00141 4.14623C7.97479 4.17045 7.9426 4.20241 7.85949 4.28575L7.85879 4.28645C7.78056 4.36468 7.74924 4.39807 7.72764 4.42302C7.70703 4.44681 7.68853 4.47053 7.63603 4.54068L7.63544 4.54146C7.24063 5.0675 7.04232 5.74292 7.09192 6.31891L8.90248 3.76262ZM8.90248 3.76262C9.10783 3.75295 9.28735 3.80418 9.44686 3.9138L8.90248 3.76262ZM9.67167 4.13554C9.93324 4.48305 10.0567 5.11702 9.86137 5.81463L9.44695 3.91386C9.51612 3.96144 9.59891 4.0398 9.67167 4.13554ZM9.86131 5.81486C9.72614 6.29679 9.46291 6.72941 9.13119 7.0379L9.86131 5.81486Z" stroke="#4552CB" stroke-width="1.5"/>
<path d="M19.5691 8.01031L19.5691 8.0103C19.5693 8.01032 19.5682 8.01023 19.5656 8.01008L19.5553 8.00956C19.5464 8.00917 19.5352 8.0088 19.5217 8.00848C19.4945 8.00783 19.4623 8.00752 19.4283 8.00757C19.3569 8.00769 19.2948 8.00941 19.2656 8.01118L19.5691 8.01031ZM19.5691 8.01031L19.5719 8.01052M19.5691 8.01031L19.5719 8.01052M19.5719 8.01052C19.9527 8.03898 20.2332 8.15645 20.4413 8.3257L19.5719 8.01052ZM16.481 10.2109L16.4808 10.2119C16.3986 10.6319 16.4956 10.9574 16.7037 11.1932C16.8359 11.3424 17.0662 11.4861 17.3591 11.5589L17.3594 11.559C18.1126 11.7464 19.1472 11.474 19.955 10.7536L19.9565 10.7523C19.9797 10.7317 20.0414 10.673 20.1112 10.6034C20.1442 10.5705 20.1752 10.5391 20.2001 10.5132C20.2197 10.4927 20.2301 10.4813 20.2337 10.4774C20.2354 10.4755 20.2356 10.4753 20.2346 10.4766L20.2364 10.4744C20.5402 10.1134 20.7096 9.75898 20.7777 9.43363C20.8615 9.02694 20.7862 8.72784 20.6048 8.48657C20.6029 8.48439 20.5984 8.47932 20.5908 8.47102C20.5762 8.45527 20.557 8.43544 20.5354 8.4139C20.5139 8.39253 20.4924 8.37191 20.4737 8.35464C20.4645 8.34607 20.4566 8.33902 20.4505 8.33359L16.481 10.2109ZM16.481 10.2109C16.5453 9.88028 16.7107 9.52868 17.0109 9.16679C17.0109 9.16679 17.0109 9.16679 17.0109 9.16679C17.0109 9.16675 17.011 9.1667 17.011 9.16663C17.0127 9.16477 17.0252 9.15059 17.0532 9.12139C17.0804 9.09302 17.1138 9.05916 17.1494 9.02383C17.223 8.95067 17.2912 8.88576 17.3215 8.85872C17.8918 8.35184 18.6008 8.05221 19.2653 8.0112L16.481 10.2109ZM20.6007 8.48114L20.6007 8.4812L20.6007 8.48114Z" stroke="#4552CB" stroke-width="1.5"/>
</svg>
