<svg width="24" height="24" viewBox="0 0 24 24" fill="none" xmlns="http://www.w3.org/2000/svg">
<path d="M20 12.1509C20 12.9057 19.3962 13.5094 18.6415 13.5094H13.2075V18.6415C13.2075 19.3962 12.6038 20 11.8491 20C11.0943 20 10.4906 19.3962 10.4906 18.6415V13.5094H5.35849C4.60377 13.5094 4 12.9057 4 12.1509C4 11.3962 4.60377 10.7925 5.35849 10.7925H10.4906V5.35849C10.4906 4.60377 11.0943 4 11.8491 4C12.6038 4 13.2075 4.60377 13.2075 5.35849V10.7925H18.6415C19.3962 10.7925 20 11.3962 20 12.1509Z" fill="#4552CB"/>
</svg>
