<svg width="25" height="24" viewBox="0 0 25 24" fill="none" xmlns="http://www.w3.org/2000/svg">
<path d="M15.0478 7.90005C15.6897 8.62005 15.9906 9.60004 15.8502 10.64C15.6094 12.56 14.2052 13.24 12.9615 13.24C12.9014 13.24 12.8612 13.24 12.8612 13.24V13.72C12.8612 14.16 12.5002 14.52 12.0588 14.52C11.6175 14.52 11.2564 14.16 11.2564 13.72V13.0801C11.2564 12.4201 11.5373 11.64 12.9615 11.64C13.7439 11.64 14.1451 11.24 14.2454 10.44C14.2855 10.18 14.3056 9.48006 13.8241 8.96006C13.443 8.54006 12.8211 8.32004 11.9786 8.32004C10.1732 8.32004 10.113 9.50004 10.113 9.62004C10.113 10.06 9.75197 10.42 9.31065 10.42C8.86933 10.42 8.50825 10.06 8.50825 9.62004C8.50825 8.82004 9.1301 6.72004 11.9786 6.72004C13.6436 6.72004 14.5663 7.36005 15.0478 7.90005ZM11.9987 15.2001C11.7379 15.2001 11.4771 15.3 11.2966 15.5C11.116 15.68 10.9957 15.9401 10.9957 16.2001C10.9957 16.46 11.096 16.72 11.2966 16.9001C11.4771 17.0801 11.7379 17.2001 11.9987 17.2001C12.2594 17.2001 12.5202 17.1 12.7007 16.9001C12.8813 16.72 13.0016 16.46 13.0016 16.2001C13.0016 15.9401 12.9013 15.68 12.7007 15.5C12.5403 15.3201 12.2795 15.2001 11.9987 15.2001ZM21.2864 12C21.2864 17.0801 17.154 21.2001 12.0588 21.2001C6.96363 21.2001 2.8313 17.0801 2.8313 12C2.8313 6.92005 6.96363 2.80005 12.0588 2.80005C17.154 2.80005 21.2864 6.92005 21.2864 12ZM19.6816 12C19.6816 7.80005 16.2714 4.40005 12.0588 4.40005C7.84627 4.40005 4.43609 7.80005 4.43609 12C4.43609 16.2001 7.84627 19.6 12.0588 19.6C16.2714 19.6 19.6816 16.2001 19.6816 12Z" fill="#4552CB"/>
</svg>
