<svg width="24" height="24" viewBox="0 0 24 24" fill="none" xmlns="http://www.w3.org/2000/svg">
<path d="M12.0051 15.8598C9.88511 15.8598 8.1451 14.1398 8.1451 11.9998C8.1451 9.87978 9.86511 8.13978 12.0051 8.13978C14.1251 8.13978 15.8651 9.85978 15.8651 11.9998C15.8651 14.1198 14.1251 15.8598 12.0051 15.8598ZM12.0051 9.55979C10.6651 9.55979 9.56512 10.6598 9.56512 11.9998C9.56512 13.3398 10.6651 14.4398 12.0051 14.4398C13.3451 14.4398 14.4451 13.3398 14.4451 11.9998C14.4451 10.6598 13.3451 9.55979 12.0051 9.55979ZM12.0051 21.1998H11.9051C11.2051 21.1998 10.6051 21.1198 10.5651 21.1198C10.2451 21.0798 10.0051 20.8398 9.94511 20.5198L9.74511 19.0798C9.30511 18.9398 8.88512 18.7598 8.48512 18.5398L7.34511 19.3998C7.0851 19.5998 6.74512 19.5798 6.48512 19.3998C6.46512 19.3798 5.98512 18.9998 5.48512 18.5198L5.40511 18.4398C4.90511 17.9398 4.54511 17.4598 4.52511 17.4398C4.32511 17.1798 4.32511 16.8398 4.52511 16.5798L5.40511 15.4198C5.18511 15.0198 5.02512 14.5798 4.88512 14.1398L3.48512 13.9398C3.16512 13.8998 2.92512 13.6398 2.88512 13.3198C2.88512 13.2998 2.80511 12.6798 2.80511 11.9798V11.8798C2.80511 11.1798 2.88512 10.5798 2.88512 10.5398C2.92512 10.2198 3.16512 9.97978 3.48512 9.91978L4.92511 9.71978C5.06511 9.27978 5.24512 8.85979 5.46512 8.45979L4.60511 7.31978C4.40511 7.05978 4.42511 6.71979 4.60511 6.45979C4.62511 6.43979 5.00512 5.95979 5.48512 5.45979L5.56512 5.37979C6.06512 4.87979 6.54512 4.51979 6.56512 4.49979C6.82512 4.29979 7.16511 4.29979 7.42511 4.49979L8.58512 5.37979C8.98512 5.15979 9.42512 4.99979 9.86512 4.85979L10.0651 3.45979C10.1051 3.13979 10.3651 2.89979 10.6851 2.85979C10.7051 2.85979 11.3251 2.77979 12.0251 2.77979H12.1251C12.8251 2.77979 13.4251 2.85979 13.4651 2.85979C13.7851 2.89979 14.0251 3.13979 14.0851 3.45979L14.2851 4.89979C14.7251 5.03979 15.1451 5.21978 15.5451 5.43978L16.6851 4.57979C16.9451 4.37979 17.2851 4.39979 17.5451 4.57979C17.5651 4.59979 18.0451 4.97979 18.5451 5.45979L18.6251 5.53978C19.1251 6.03978 19.4851 6.51978 19.5051 6.53978C19.7051 6.79978 19.7051 7.13978 19.5051 7.39979L18.6251 8.55979C18.8451 8.95979 19.0051 9.39977 19.1451 9.83977L20.5451 10.0398C20.8651 10.0798 21.1051 10.3398 21.1451 10.6598C21.1451 10.6798 21.2251 11.2998 21.2251 11.9998V12.0998C21.2251 12.7998 21.1451 13.3998 21.1451 13.4398C21.1051 13.7598 20.8651 13.9998 20.5451 14.0598L19.1051 14.2598C18.9651 14.6998 18.7851 15.1198 18.5651 15.5198L19.4251 16.6598C19.6251 16.9198 19.6051 17.2598 19.4251 17.5198C19.4051 17.5398 19.0251 18.0198 18.5451 18.5198L18.4651 18.5998C17.9651 19.0998 17.4851 19.4598 17.4651 19.4798C17.2051 19.6798 16.8651 19.6798 16.6051 19.4798L15.4451 18.5998C15.0451 18.8198 14.6051 18.9798 14.1651 19.1198L13.9651 20.5198C13.9251 20.8398 13.6651 21.0798 13.3451 21.1198C13.3051 21.1198 12.7051 21.1998 12.0051 21.1998ZM11.2851 19.7598C11.4651 19.7798 11.6851 19.7798 11.9051 19.7798H12.0051C12.2251 19.7798 12.4451 19.7798 12.6251 19.7598L12.8051 18.4398C12.8451 18.1398 13.0651 17.9198 13.3451 17.8398C13.9651 17.6998 14.5651 17.4598 15.1051 17.1198C15.2651 17.0198 15.4651 16.9998 15.6451 17.0398C15.7451 17.0598 15.8451 17.1198 15.9251 17.1798L16.9851 17.9798C17.1251 17.8598 17.2851 17.7198 17.4451 17.5598L17.5251 17.4798C17.6851 17.3198 17.8251 17.1598 17.9451 17.0198L17.1451 15.9598C16.9651 15.7198 16.9651 15.3998 17.1051 15.1598C17.4451 14.6398 17.6851 14.0598 17.8251 13.4598C17.8851 13.1598 18.1251 12.9198 18.4251 12.8798L19.7651 12.6998C19.7851 12.5198 19.7851 12.2998 19.7851 12.0798V11.9798C19.7851 11.7598 19.7851 11.5398 19.7651 11.3598L18.4451 11.1798C18.1651 11.1398 17.9251 10.9198 17.8651 10.6398C17.7251 10.0198 17.4851 9.43979 17.1651 8.89979C17.1251 8.85979 17.1051 8.79978 17.0851 8.73978C17.0051 8.51977 17.0451 8.25979 17.1851 8.07979L18.0051 6.99978C17.8851 6.85979 17.7451 6.69978 17.5851 6.53978L17.5051 6.45979C17.3451 6.29979 17.1851 6.15978 17.0451 6.03978L15.9851 6.83978C15.7251 7.01978 15.3851 7.01978 15.1451 6.83978C14.6251 6.51978 14.0451 6.27978 13.4451 6.11978C13.1651 6.05978 12.9451 5.81978 12.9051 5.51978L12.7251 4.17979C12.5451 4.15979 12.3251 4.15979 12.1051 4.15979H12.0051C11.7851 4.15979 11.5651 4.15979 11.3851 4.17979L11.2051 5.49979C11.1651 5.81979 10.9251 6.05979 10.6051 6.09979C10.0051 6.23978 9.42511 6.47978 8.90511 6.79979C8.74511 6.89979 8.54512 6.91979 8.36512 6.87979C8.26512 6.85979 8.16512 6.79978 8.08512 6.73978L7.0451 5.93978C6.90511 6.05978 6.74512 6.19979 6.58512 6.35979L6.50511 6.43978C6.34511 6.59978 6.20512 6.75978 6.08512 6.89979L6.88512 7.95979C7.06512 8.19979 7.06511 8.49979 6.92511 8.75979C6.90511 8.77979 6.90512 8.79978 6.88512 8.81978C6.56512 9.33978 6.32512 9.91978 6.18512 10.5198C6.12512 10.7998 5.88512 11.0198 5.58512 11.0598L4.24511 11.2398C4.22511 11.4198 4.22511 11.6398 4.22511 11.8598V11.9598C4.22511 12.1798 4.22511 12.3998 4.24511 12.5798L5.56512 12.7598C5.88512 12.7998 6.12512 13.0398 6.16512 13.3598V13.3798C6.30512 13.9798 6.54512 14.5398 6.86512 15.0598C6.96512 15.2398 7.00511 15.4598 6.92511 15.6598C6.90511 15.7398 6.84512 15.8198 6.78512 15.8998L6.00511 16.9398C6.12511 17.0798 6.26511 17.2398 6.42511 17.3998L6.50511 17.4798C6.66511 17.6398 6.82512 17.7798 6.96512 17.8998L8.02511 17.0998C8.28511 16.8998 8.66511 16.9198 8.90511 17.1198C9.42511 17.4398 9.98512 17.6598 10.5651 17.7998C10.8451 17.8598 11.0651 18.0998 11.1051 18.3998L11.2851 19.7598Z" fill="#4552CB"/>
</svg>
