<svg width="24" height="24" viewBox="0 0 24 24" fill="none" xmlns="http://www.w3.org/2000/svg">
<path d="M17.4052 18.1V19.1C17.4052 19.54 17.0252 19.8 16.5852 19.8H3.52517C3.08517 19.8 2.80518 19.56 2.80518 19.1V9.19995C2.80518 8.75995 3.08517 8.35995 3.52517 8.35995H5.86517C6.30517 8.35995 6.66517 8.71995 6.66517 9.15995C6.66517 9.59995 6.30517 9.95995 5.86517 9.95995H4.40518V18.2H15.8052V18.1C15.8052 17.66 16.1652 17.3 16.6052 17.3C17.0652 17.28 17.4052 17.66 17.4052 18.1ZM20.9652 10.64L16.0052 15.7C15.7652 15.94 15.4252 16 15.1252 15.88C14.8252 15.76 14.6252 15.46 14.6252 15.14V12.9599C13.0252 12.9199 9.18518 13.08 7.78518 15.54C7.64518 15.8 7.36518 15.9599 7.08518 15.9599C7.02518 15.9599 6.94518 15.96 6.88518 15.94C6.52518 15.84 6.28518 15.5199 6.28518 15.1599C6.28518 14.5 6.28518 11.94 8.60518 9.63995C10.0652 8.15995 12.0252 7.35995 14.6252 7.21995V4.99995C14.6252 4.67995 14.8252 4.37995 15.1252 4.25995C15.4252 4.13995 15.7852 4.19995 16.0052 4.43995L20.9852 9.49995C21.2852 9.81995 21.2852 10.32 20.9652 10.64ZM19.2452 10.0599L16.2052 6.97996V7.95995C16.2052 8.39995 15.8652 8.75995 15.4052 8.75995C12.9252 8.75995 11.0252 9.41995 9.72517 10.74C9.12517 11.34 8.72517 12 8.46517 12.64C10.3452 11.52 12.7252 11.3199 14.1852 11.3199C14.9452 11.3199 15.4452 11.38 15.5052 11.38C15.9052 11.42 16.2052 11.78 16.2052 12.18V13.1599L19.2452 10.0599Z" fill="white"/>
</svg>
