<svg width="40" height="40" viewBox="0 0 40 40" fill="none" xmlns="http://www.w3.org/2000/svg">
<circle cx="9.5" cy="23.5" r="3.5" fill="#FFCF6F"/>
<circle cx="30.5" cy="23.5" r="3.5" fill="#FFCF6F"/>
<path d="M34.3093 18.4724H33.732L31.0103 8.46231C30.7629 7.57789 29.8969 6.93467 28.9485 6.93467H25.6186L25.0412 3.92462C24.8763 3.36181 24.3814 3 23.7629 3H16.2371C15.6598 3 15.1237 3.40201 14.9588 3.92462L14.3814 6.93467H11.0928C10.1031 6.93467 9.23711 7.57789 9.03093 8.46231L6.30928 18.4724H5.73196C4.78351 18.4724 4 19.196 4 20.0804V30.6131C4 31.4975 4.78351 32.2211 5.73196 32.2211H6.68041V34.9548C6.68041 35.5176 7.21649 36 7.91753 36H11.1753C11.8351 36 12.4124 35.5176 12.4124 34.9548V32.2211H27.5876V34.9548C27.5876 35.5176 28.1237 36 28.8247 36H32.0825C32.7423 36 33.3196 35.5176 33.3196 34.9548V32.2211H34.268C35.2165 32.2211 36 31.4975 36 30.6131V20.0804C36 19.196 35.2577 18.4724 34.3093 18.4724ZM33.2783 23.5779C33.2783 25.0653 32.0412 26.2714 30.5155 26.2714C28.9897 26.2714 27.7526 25.0653 27.7526 23.5779C27.7526 22.0905 28.9897 20.8844 30.5155 20.8844C32.0412 20.8844 33.2783 22.0905 33.2783 23.5779ZM10.9278 9.54774C11.0103 9.18593 11.3814 8.94472 11.7526 8.94472H28.2474C28.6598 8.94472 28.9897 9.18593 29.0722 9.54774L31.5052 18.4724H8.49485L10.9278 9.54774ZM9.48454 20.8844C11.0103 20.8844 12.2474 22.0905 12.2474 23.5779C12.2474 25.0653 11.0103 26.2714 9.48454 26.2714C7.95876 26.2714 6.72165 25.0653 6.72165 23.5779C6.72165 22.0905 7.95876 20.8844 9.48454 20.8844Z" fill="url(#paint0_linear_656_3947)"/>
<path d="M22.84 5.19993C22.8286 5.18563 22.8377 5.1744 22.8377 5.1744C23.2717 4.64405 22.704 4 22.2214 4C21.9001 4 21.6159 4.19852 21.4424 4.50303H20.273C20.1805 4.50303 20.12 4.504 20.12 4.504C20.12 4.504 20.0469 4.50405 20 4.504C19.8934 4.50388 19.8828 4.504 19.7271 4.50303H18.5577C18.3842 4.19859 18.0999 4 17.7787 4C17.2961 4 16.7284 4.64405 17.1623 5.1744C17.1623 5.1744 17.1714 5.18555 17.16 5.19993C16.7283 5.74382 17.2501 6.4 17.7786 6.4C18.1011 6.4 18.3862 6.19984 18.5596 5.89338H21.4403C21.6137 6.19984 21.8988 6.4 22.2213 6.4C22.7499 6.39992 23.2717 5.74382 22.84 5.19993Z" fill="#FCECEA"/>
<defs>
<linearGradient id="paint0_linear_656_3947" x1="7.25" y1="44.7656" x2="-11.8624" y2="19.4531" gradientUnits="userSpaceOnUse">
<stop offset="0.298343" stop-color="#4552CB"/>
<stop offset="1" stop-color="#4596EA"/>
</linearGradient>
</defs>
</svg>
