<svg width="40" height="40" viewBox="0 0 40 40" fill="none" xmlns="http://www.w3.org/2000/svg">
<path d="M23.979 6.47849C23.0635 9.71793 23.6973 13.1686 25.6691 15.8799C27.6057 18.5912 30.6691 20.2461 34.0846 20.387L35.0001 20.4222C35.0001 20.2813 35.0001 20.1405 35.0001 19.9996C35.0001 13.2038 30.4579 7.42919 24.2255 5.59821L23.979 6.47849Z" fill="#FFCF6F"/>
<path d="M34.0141 22.5C29.9648 22.324 26.3029 20.3873 23.9789 17.1127C21.5845 13.8732 20.8451 9.78874 21.9367 5.91549L22.1479 5.14085C21.4437 5.03521 20.7395 5 20 5C12.4296 5 6.162 10.6338 5.14087 17.9225L5.95073 17.993C9.71834 18.3099 13.169 20.2465 15.4226 23.3099C17.6409 26.3381 18.4507 30.2113 17.6057 33.9437L17.4296 34.7888C18.2747 34.9296 19.1198 35 20 35C27.3944 35 33.5916 29.6127 34.7888 22.5352L34.0141 22.5Z" fill="url(#paint0_linear_656_3511)"/>
<path d="M15.5634 33.4857C16.2676 30.3519 15.5986 27.1124 13.7324 24.542C11.831 22.0068 8.94367 20.3519 5.77465 20.1054L5 20.035C5 26.6899 9.3662 32.3237 15.3873 34.2603L15.5634 33.4857Z" fill="#FFCF6F"/>
<defs>
<linearGradient id="paint0_linear_656_3511" x1="8.15198" y1="42.9688" x2="-9.13006" y2="19.6421" gradientUnits="userSpaceOnUse">
<stop offset="0.298343" stop-color="#4552CB"/>
<stop offset="1" stop-color="#4596EA"/>
</linearGradient>
</defs>
</svg>
