<svg width="40" height="40" viewBox="0 0 40 40" fill="none" xmlns="http://www.w3.org/2000/svg">
<path d="M1.31148 28.7588L0 30.0703L9.92974 40L11.2412 38.6885L6.93209 34.3794L10.1639 31.1944L14.0047 35.0351L14.192 35.2225L15.8314 36.8618L17.1429 35.5504L15.5035 33.911L33.911 15.5035C34.0826 15.3284 34.1788 15.093 34.1788 14.8478C34.1788 14.6026 34.0826 14.3671 33.911 14.192L30.5386 10.8197L40 1.31148L38.6885 0L29.1803 9.46136L25.808 6.08899C25.6329 5.91735 25.3974 5.82121 25.1522 5.82121C24.907 5.82121 24.6716 5.91735 24.4965 6.08899L6.08899 24.4965L4.44965 22.8571L3.13817 24.1686L4.96487 25.9953L6.08899 27.1194L8.80562 29.8361L5.62061 33.0211L1.31148 28.7588ZM7.40047 25.8548L10.5386 22.7166L15.082 27.26L16.3934 25.9485L11.8501 21.4052L13.9578 19.2974L17.4707 22.8103L18.7822 21.4988L15.3162 17.9391L17.4707 15.7845L22.0141 20.3279L23.3255 19.0164L18.7822 14.4731L20.8899 12.3653L24.4028 15.8782L25.7143 14.5667L22.2014 11.0539L25.1522 8.10304L31.897 14.8478L14.192 32.5527L10.8197 29.1803L10.1639 28.5246L7.40047 25.8548Z" fill="#4552CB"/>
</svg>
