<svg width="16" height="16" viewBox="0 0 16 16" fill="none" xmlns="http://www.w3.org/2000/svg">
<path d="M11.5101 8.44009C11.6834 8.61342 11.7768 8.85342 11.7768 9.10675C11.7768 9.34675 11.6834 9.58674 11.5101 9.76007C11.3368 9.93341 11.0968 10.0401 10.8434 10.0401C10.6034 10.0401 10.3634 9.93341 10.1768 9.76007C10.0034 9.58674 9.91009 9.34675 9.91009 9.10675C9.91009 8.85342 10.0168 8.62675 10.1768 8.44009C10.3501 8.26675 10.5901 8.17342 10.8434 8.17342C11.0968 8.17342 11.3368 8.26675 11.5101 8.44009ZM14.0034 6.36007V12.2534C14.0034 12.8534 13.5234 13.3334 12.9234 13.3334H3.27008C2.56342 13.3334 2.00342 12.7601 2.00342 12.0667V7.26675V6.14676V4.26675C2.00342 3.38675 2.72342 2.66675 3.60342 2.66675H10.9768C11.7101 2.66675 12.2701 3.26675 12.2701 4.00008V4.80008H12.5101C13.3368 4.80008 14.0034 5.53341 14.0034 6.36007ZM2.99009 4.26675C2.99009 4.56008 3.23009 4.80008 3.52342 4.80008H11.2034V3.97342C11.2034 3.84009 11.0967 3.73341 10.9634 3.73341H3.52342C3.23009 3.73341 2.99009 3.97341 2.99009 4.26675ZM12.9368 6.36007C12.9368 6.13341 12.7501 5.86675 12.5101 5.86675H3.28341C3.16341 5.86675 3.07008 6.02676 3.07008 6.14676V7.26675V12.0667C3.07008 12.1734 3.16342 12.2667 3.27008 12.2667H12.9234C12.9368 12.2667 12.9368 12.2534 12.9368 12.2534V6.36007Z" fill="#070821"/>
</svg>
